<svg xmlns="http://www.w3.org/2000/svg" viewBox="0 0 13.11 13.11"><defs><style>.cls-1{fill:#4e4d4d;}</style></defs><g id="Capa_2" data-name="Capa 2"><g id="Capa_1-2" data-name="Capa 1"><path class="cls-1" d="M10.57,0h-8A2.54,2.54,0,0,0,0,2.53v8a2.54,2.54,0,0,0,2.53,2.54h8a2.54,2.54,0,0,0,2.54-2.54v-8A2.54,2.54,0,0,0,10.57,0Zm.73,1.51h.29V3.73H9.38V1.52ZM4.68,5.21a2.3,2.3,0,0,1,3.74,0,2.24,2.24,0,0,1,.44,1.34A2.31,2.31,0,1,1,4.68,5.21Zm7.15,5.36a1.25,1.25,0,0,1-1.26,1.26h-8a1.25,1.25,0,0,1-1.25-1.26V5.21h2A3.52,3.52,0,0,0,3,6.55a3.59,3.59,0,1,0,7.17,0,3.52,3.52,0,0,0-.27-1.34h2Z"/></g></g></svg>