<svg xmlns="http://www.w3.org/2000/svg" viewBox="0 0 16.3 13.04"><defs><style>.cls-1{fill:#4e4d4d;}</style></defs><g id="Capa_2" data-name="Capa 2"><g id="Capa_1-2" data-name="Capa 1"><path class="cls-1" d="M15.85.24a6.75,6.75,0,0,1-2.13.8A3.35,3.35,0,0,0,7.94,3.29,3.08,3.08,0,0,0,8,4,9.54,9.54,0,0,1,1.14.6,3.23,3.23,0,0,0,.68,2.26,3.28,3.28,0,0,0,2.17,5,3.34,3.34,0,0,1,.66,4.58v0A3.3,3.3,0,0,0,3.34,7.85a3.31,3.31,0,0,1-1.51.06A3.34,3.34,0,0,0,5,10.2,6.76,6.76,0,0,1,.8,11.6a7,7,0,0,1-.8,0A9.62,9.62,0,0,0,5.13,13a9.37,9.37,0,0,0,9.51-9.37c0-.14,0-.28,0-.42A7,7,0,0,0,16.3,1.54a6.58,6.58,0,0,1-1.92.52A3.32,3.32,0,0,0,15.85.24Z"/></g></g></svg>