<?xml version="1.0" standalone="no"?>
<!DOCTYPE svg PUBLIC "-//W3C//DTD SVG 20010904//EN"
 "http://www.w3.org/TR/2001/REC-SVG-20010904/DTD/svg10.dtd">
<svg version="1.0" xmlns="http://www.w3.org/2000/svg"
 width="64.000000pt" height="64.000000pt" viewBox="0 0 64.000000 64.000000"
 preserveAspectRatio="xMidYMid meet">

<g transform="translate(0.000000,64.000000) scale(0.100000,-0.100000)"
fill="#000000" stroke="none">
<path d="M330 404 c0 -149 -4 -243 -11 -256 -6 -11 -26 -26 -45 -34 -29 -12
-39 -12 -68 0 -41 17 -56 42 -56 91 0 49 36 85 85 85 l35 0 0 49 c0 55 -11 64
-63 54 -48 -9 -80 -28 -114 -67 -106 -119 -39 -297 121 -323 85 -14 193 53
215 134 6 21 11 95 11 164 l0 126 47 -23 c25 -13 61 -24 80 -24 33 0 33 0 33
48 l0 48 -44 12 c-52 14 -102 66 -112 117 -6 35 -6 35 -60 35 l-54 0 0 -236z"/>
</g>
</svg>
