<svg xmlns="http://www.w3.org/2000/svg" viewBox="0 0 55.83 63.89"><defs><style>.cls-1{fill:#4e4d4d;}</style></defs><g id="Capa_2" data-name="Capa 2"><g id="Capa_1-2" data-name="Capa 1"><path class="cls-1" d="M28.83,23.6c0,14.9-.4,24.3-1.1,25.6a10.43,10.43,0,0,1-4.5,3.4c-2.9,1.2-3.9,1.2-6.8,0-4.1-1.7-5.6-4.2-5.6-9.1a8.25,8.25,0,0,1,8.5-8.5h3.5V30.1c0-5.5-1.1-6.4-6.3-5.4a18.3,18.3,0,0,0-11.4,6.7c-10.6,11.9-3.9,29.7,12.1,32.3,8.5,1.4,19.3-5.3,21.5-13.4.6-2.1,1.1-9.5,1.1-16.4V21.3l4.7,2.3a21.72,21.72,0,0,0,8,2.4c3.3,0,3.3,0,3.3-4.8V16.4l-4.4-1.2c-5.2-1.4-10.2-6.6-11.2-11.7-.6-3.5-.6-3.5-6-3.5h-5.4Z"/></g></g></svg>