<svg xmlns="http://www.w3.org/2000/svg" xmlns:xlink="http://www.w3.org/1999/xlink" viewBox="0 0 234.27 202.64"><defs><style>.cls-1,.cls-3{fill:none;}.cls-10,.cls-2{fill:#001a5a;}.cls-3{stroke:#001a5a;stroke-miterlimit:10;stroke-width:0.74px;}.cls-4{clip-path:url(#clip-path);}.cls-5{fill:#cf9b47;}.cls-10,.cls-5,.cls-7,.cls-9{fill-rule:evenodd;}.cls-6{clip-path:url(#clip-path-2);}.cls-7{fill:#c3862d;}.cls-8{clip-path:url(#clip-path-3);}.cls-9{fill:#fff;}</style><clipPath id="clip-path" transform="translate(0 -20.04)"><path class="cls-1" d="M112.08,1.16c0,1.09-3.23,4.28-4.37,4.68l-6.15,2.78L95.18,15l-2.42,4.2c-.86-.09-3.58-1.62-9.08-1.69a19.77,19.77,0,0,0-7.85,1.66c-3.08,1.2-5.62,2.4-9,1.08l-.34.34c2.25,5.83-2.82,9.09-2.73,16.88.06,5.5,1.59,8.23,1.68,9.08l-5.57,3.44-4.95,5.37-2.79,6.15c-.39,1.14-3.59,4.38-4.67,4.36l-1.16.44c5.88,1.55,6.24,6.46,8.15,10,.16.29.15,0,.11.33,1.13,1.25.49,1.26,3.66,4.42a27.32,27.32,0,0,0,7.25,4.89c-5.31,16.76,4,18.47,1,26.17l.47.47c3.53-1.39,5.8-.19,8.84,1,3.59,1.43,8.25,2.86,17.33,0A27.32,27.32,0,0,0,98,120.78c3.16,3.17,3.16,2.53,4.42,3.66.28,0,0,0,.33.11,3.53,1.91,8.44,2.27,10,8.15l.44-1.16c0-1.08,3.22-4.28,4.36-4.67l6.15-2.79,6.39-6.32,2.42-4.2c.85.08,3.58,1.62,9.08,1.68a20,20,0,0,0,7.85-1.66c3.09-1.19,5.64-2.38,8.92-1.11l.41-.41c-2.17-5.63,2.87-9.09,2.78-16.78-.07-5.5-1.6-8.22-1.69-9.08l5.57-3.44,5-5.37,2.78-6.15c.39-1.13,3.59-4.38,4.67-4.36l1.17-.43c-5.88-1.55-6.25-6.47-8.16-10-.15-.29-.15-.05-.11-.33-1.12-1.26-.49-1.27-3.65-4.43a27.49,27.49,0,0,0-7.25-4.89c5.3-16.75-4-18.47-1-26.17l-.47-.47c-3.53,1.4-5.8.19-8.84-1-3.6-1.42-8.26-2.85-17.33,0a27.49,27.49,0,0,0-4.89-7.25c-3.17-3.16-3.17-2.53-4.43-3.65-.28,0,0,0-.33-.11-3.52-1.91-8.44-2.28-10-8.16Z"/></clipPath><clipPath id="clip-path-2" transform="translate(0 -20.04)"><path class="cls-1" d="M95.63,110.39s3.24-.31,8.36-3.3a6.82,6.82,0,0,1-2-2.34,30,30,0,0,1-5.6,2.4,26.93,26.93,0,0,1-2.67-4.55l-.83.05a7.74,7.74,0,0,1-2-.27,22,22,0,0,0,4.67,8M129.15,107a26,26,0,0,1-5-1.28,7.5,7.5,0,0,1-2.13,1.89,20.8,20.8,0,0,0,8.8,2.26s2.08-2.59,3.65-8.43l-1.09.09a6.25,6.25,0,0,1-1.9-.3,32.57,32.57,0,0,1-2.31,5.77m-17.49-4.14a1.72,1.72,0,1,0,1.72-1.77,1.74,1.74,0,0,0-1.72,1.77m-2.36,1.65.31,0,0,.06a2.66,2.66,0,0,0,.36.06s1.05,3.08,3.53,3,3.36-3.41,3.36-3.41a2.67,2.67,0,0,0,2.62-2.94c-.74,1.56-3.4,1.51-3.4,1.51a2.88,2.88,0,0,1-3,2.86c-2,0-2.61-2.78-2.61-2.78a4.3,4.3,0,0,1-3.62-2,3.24,3.24,0,0,0,2.43,3.53m5.16-7.63A2.81,2.81,0,0,0,114,98.5a2.75,2.75,0,0,0,2.7,2.78h0a2.75,2.75,0,0,0,2.71-2.78l0-.12a2.4,2.4,0,0,1,1,.49V99h.06v-.1l.49.66a4.5,4.5,0,0,1,.38,1.86,3.78,3.78,0,0,1-3.33,4,6.77,6.77,0,0,1-1.85,3,4.49,4.49,0,0,1-5.31,0,6.81,6.81,0,0,1-1.84-3,3.78,3.78,0,0,1-3.34-4,4.5,4.5,0,0,1,.39-1.86,2.22,2.22,0,0,1,1.48-1.19v.12a2.71,2.71,0,1,0,5.41,0,2.82,2.82,0,0,0-.52-1.62,4.31,4.31,0,0,0-3.93-2.07A7,7,0,0,0,107,95c-3.42.71-4.71,3.71-4.71,6.44l.16,1.65a6.24,6.24,0,0,0,3.74,4.18,7.55,7.55,0,0,0,4.81,5.06l.93-.94-.15.26-.7.7a7.22,7.22,0,0,0,2.21.35h.23a7.43,7.43,0,0,0,7.11-5.43,6.22,6.22,0,0,0,3.73-4.18l.16-1.65c0-2.73-1.28-5.73-4.7-6.44l-1.4-.15a4.31,4.31,0,0,0-3.93,2.07m-27.55-5.4a1.77,1.77,0,0,0-.51,1.25A1.82,1.82,0,0,0,86.9,94a1.68,1.68,0,0,0,2.43,0,1.81,1.81,0,0,0,0-2.5A1.68,1.68,0,0,0,88.12,91a1.65,1.65,0,0,0-1.21.52m12-.21a6.85,6.85,0,0,1,1,5.12,8.64,8.64,0,0,1-3.64,5.28,5.64,5.64,0,0,1-1.35.66c.86,1.62,2.11,3.48,2.11,3.48a46.68,46.68,0,0,0,4.66-1.92l-.18-.64a8.86,8.86,0,0,1,1.05-6.39,6.4,6.4,0,0,1,3.9-2.76,26.82,26.82,0,0,1-7.9-3.27Zm20.6,2.65L120,94a6.42,6.42,0,0,1,4.24,2.87,8.78,8.78,0,0,1,1.05,6.38,5.77,5.77,0,0,1-.51,1.45c1.72.52,3.89.92,3.89.92a48.32,48.32,0,0,0,2-4.75l-.56-.32a8.58,8.58,0,0,1-3.63-5.29,6.81,6.81,0,0,1,.87-4.82,26.78,26.78,0,0,1-7.83,3.48m18.73-4.09a1.73,1.73,0,0,0-1.22.52,1.82,1.82,0,0,0-.5,1.25,1.79,1.79,0,0,0,.5,1.25,1.69,1.69,0,0,0,1.22.52,1.71,1.71,0,0,0,1.21-.51,1.83,1.83,0,0,0,0-2.51,1.71,1.71,0,0,0-1.21-.52h0M113.08,87a3,3,0,0,0-.74,2.25c.12,1.92,1.74,1.74,2.53,1.22a1.55,1.55,0,0,0,.54-2.49,2.65,2.65,0,0,0-2.12-1h-.21m-29,3.9.19.25,0,0a2.86,2.86,0,0,0,.21.31s-1.37,2.95.42,4.72,4.71,0,4.71,0a2.54,2.54,0,0,0,3.86-.17,3,3,0,0,1-2.55-.65,6.1,6.1,0,0,1-.89-.76A2.79,2.79,0,0,1,86,94.56c-1.4-1.51.06-3.87.06-3.87a4.58,4.58,0,0,1-1.21-4,3.35,3.35,0,0,0-.7,4.28m25.57-4.21c-1.79.57-1.25,2.15-.57,2.82s1.6,1.12,2.47,0a3,3,0,0,0,.38-2.57,2.56,2.56,0,0,0-1.37-.37,2.88,2.88,0,0,0-.91.15m30.45,2.91a3,3,0,0,1-.16,4.21c-1.46,1.44-3.75-.07-3.75-.07A4.24,4.24,0,0,1,132.29,95a3.12,3.12,0,0,0,4.15.73l.25-.2,0,0a3.31,3.31,0,0,0,.3-.21s2.86,1.41,4.59-.43,0-4.86,0-4.86a2.73,2.73,0,0,0-.16-4c.55,1.64-1.37,3.55-1.37,3.55M115.41,84a2.8,2.8,0,0,0-1.79,1.81,2.87,2.87,0,0,0,1.71,1.6c1.76.65,2.24-1,2.09-1.92-.12-.8-.49-1.58-1.42-1.58a2.29,2.29,0,0,0-.59.09m-7.16,0c-.28.92-.25,2,1.14,2.27a2.71,2.71,0,0,0,2.39-.79,2.91,2.91,0,0,0-.82-2.21,1.65,1.65,0,0,0-1.19-.64A1.84,1.84,0,0,0,108.25,84m-28,.9a5.48,5.48,0,0,0-.8,2.88A7.44,7.44,0,0,0,80,90.56a8.46,8.46,0,0,0-.87,3.66,7.68,7.68,0,0,0,.9,3.6l.14,0h.2l-.32.08a7.71,7.71,0,0,0,1.33,1.8A7.27,7.27,0,0,0,86.66,102a7.86,7.86,0,0,0,3.56-.89,6.89,6.89,0,0,0,2.71.58,5,5,0,0,0,2.8-.82,7.31,7.31,0,0,0,3.33-5.8,5.88,5.88,0,0,0-1-3.23,5.1,5.1,0,0,0-4.15-2.66l-.93.13a2.7,2.7,0,0,0-1.47.77,2.85,2.85,0,0,0,0,3.94,2.7,2.7,0,0,0,1.92.82,2.62,2.62,0,0,0,1.9-.82l.08-.09a2.59,2.59,0,0,1,.33,1l-.14.11.05,0,.1-.11v.16l-.11.69a4.34,4.34,0,0,1-3.8,2.88,3.65,3.65,0,0,1-2.31-.87,6.79,6.79,0,0,1-2.91.75l-.43,0a4.74,4.74,0,0,1-2.48-1.31,5.08,5.08,0,0,1-1.28-2.55l0-.46a7.17,7.17,0,0,1,.75-3,4,4,0,0,1-.86-2.38A4.47,4.47,0,0,1,85.1,85l.67-.12a2.41,2.41,0,0,1,1.2.36l-.09.08-.16.18-.34.53a2.94,2.94,0,0,0-.29,1.26,2.83,2.83,0,0,0,.79,2,2.65,2.65,0,0,0,3.82,0,2.81,2.81,0,0,0,.75-1.52l.12-1A5.29,5.29,0,0,0,89,82.47a5.56,5.56,0,0,0-3.15-1,7.06,7.06,0,0,0-5.61,3.43m32.69-3.78c-.93.1-1.86.54-1.57,2A2.81,2.81,0,0,0,113,85a2.8,2.8,0,0,0,1.64-1.66c.69-1.65-.59-2.28-1.53-2.28h-.19m24.37.26a5.3,5.3,0,0,0-2.57,4.27l.12,1a2.78,2.78,0,0,0,.75,1.52,2.64,2.64,0,0,0,1.91.82,2.68,2.68,0,0,0,1.91-.82,2.88,2.88,0,0,0,.51-3.22l0-.07-.47-.65-.08-.07a2.49,2.49,0,0,1,1-.35l.11.15,0-.06-.11-.09h.15l.67.12a4.42,4.42,0,0,1,2.8,3.93,3.92,3.92,0,0,1-.85,2.37,7.15,7.15,0,0,1,.74,3l0,.45a5,5,0,0,1-1.28,2.56,4.71,4.71,0,0,1-2.47,1.32h-.44a6.65,6.65,0,0,1-2.9-.76,3.69,3.69,0,0,1-2.31.88,4.35,4.35,0,0,1-3.81-2.89l-.11-.68a2.51,2.51,0,0,1,.35-1.24l.07.09a2.66,2.66,0,0,0,3.82,0,2.83,2.83,0,0,0,.79-2,2.79,2.79,0,0,0-.79-2,2.61,2.61,0,0,0-1.47-.77l-.94-.13a5.07,5.07,0,0,0-4.14,2.65,5.93,5.93,0,0,0-1,3.23,7.33,7.33,0,0,0,3.33,5.81,4.93,4.93,0,0,0,2.79.81,6.91,6.91,0,0,0,2.72-.58,7.89,7.89,0,0,0,3.57.9,7.16,7.16,0,0,0,4.14-1.35v-.86l.18.72a6.88,6.88,0,0,0,.94-.83,7.76,7.76,0,0,0,2.26-5.44,8.55,8.55,0,0,0-.88-3.67,7.35,7.35,0,0,0,.57-2.8,5.31,5.31,0,0,0-.8-2.87,7,7,0,0,0-5.61-3.45,5.5,5.5,0,0,0-3.15,1m-34.85-1.23c-2.85,3.61-2,6.8-2,6.8,3.24.83,7.25-3.62,7.31-6.25a2.19,2.19,0,0,0-2.11-2.51,4.32,4.32,0,0,0-3.18,2m14.56.55c.06,2.63,4.08,7.08,7.32,6.25,0,0,.83-3.19-2-6.8a4.34,4.34,0,0,0-3.19-2A2.21,2.21,0,0,0,117,80.67M95.67,79.15c-.59,1.83,1,2.3,1.9,2.12s1.81-.69,1.41-2.09a2.81,2.81,0,0,0-1.8-1.82,2.87,2.87,0,0,0-1.51,1.79m29.4-1c-1.39,1.29-.24,2.49.64,2.81s1.91.31,2.23-1.12a2.91,2.91,0,0,0-.7-2.49H127a2.86,2.86,0,0,0-1.94.81m3.22-1.2a3,3,0,0,0,.25,2.35c.9,1.7,2.29.83,2.8,0s.73-1.84-.54-2.5a2.34,2.34,0,0,0-1.08-.26,2.9,2.9,0,0,0-1.43.4M70.4,85.11s2.51,2.15,8.18,3.77a7.1,7.1,0,0,1,.21-3.09,30.32,30.32,0,0,1-5.6-2.38,28.09,28.09,0,0,1,1.23-5.17A7.81,7.81,0,0,1,72.59,76a22.62,22.62,0,0,0-2.19,9.07M93.68,76c-1.85.26-1.56,1.92-1,2.7s1.4,1.35,2.45.37a2.93,2.93,0,0,0,.78-2.47A2.73,2.73,0,0,0,94.12,76a2.27,2.27,0,0,0-.44,0m56.17,1.22A32.52,32.52,0,0,1,152.17,83a26.39,26.39,0,0,1-4.41,2.76,8.09,8.09,0,0,1-.21,2.89,21.24,21.24,0,0,0,7.76-4.82s-.3-3.34-3.19-8.62a6.85,6.85,0,0,1-2.27,2M100,75.09a2.78,2.78,0,0,0-2.13,1.38,2.92,2.92,0,0,0,1.34,1.93c1.59,1,2.39-.45,2.44-1.41s-.21-1.9-1.51-1.9H100m7.31,1.83c1.22,2.55,6.58,3,8.48,1.71s1.1-3.7-2.55-3.76h-.21c-4,0-5.72,2.06-5.72,2.06m15.32-.65c.12,1,.58,1.89,2,1.56a2.82,2.82,0,0,0,1.85-1.75,2.89,2.89,0,0,0-1.65-1.65,2.21,2.21,0,0,0-.8-.18c-1.11,0-1.45,1.22-1.36,2M85.79,74c-.8,4.16-4.23,5.64-7.16,5.64a8.43,8.43,0,0,1-1.81-.19,5.41,5.41,0,0,1-1.4-.52c-.51,1.77-.9,4-.9,4a46.6,46.6,0,0,0,4.62,2l.3-.58a8.06,8.06,0,0,1,6.41-3.89,6.37,6.37,0,0,1,3.39,1,28.43,28.43,0,0,1-3.37-8.1Zm43.38-.76a2.89,2.89,0,0,0-.88,2.42,2.76,2.76,0,0,0,2.19.71c1.87-.18,1.65-1.85,1.12-2.65a1.77,1.77,0,0,0-1.37-1,1.63,1.63,0,0,0-1.06.48m7.16,7.7.44-.36a6.48,6.48,0,0,1,3.68-1.2,8.08,8.08,0,0,1,6.41,3.88,6,6,0,0,1,.63,1.4c1.58-.88,3.38-2.18,3.38-2.18A49.79,49.79,0,0,0,149,77.62l-.62.2a8.94,8.94,0,0,1-1.8.19,6.9,6.9,0,0,1-7.07-5.3,28.9,28.9,0,0,1-3.19,8.18m-43.2-7.75c-.46.84-.65,1.87.65,2.47a2.72,2.72,0,0,0,2.5-.25A2.94,2.94,0,0,0,95.93,73a1.52,1.52,0,0,0-1.28-.91,1.94,1.94,0,0,0-1.52,1m3.75-.39a2.92,2.92,0,0,0,.39,2.56,2.72,2.72,0,0,0,2.24-.5c1.55-1.09.56-2.44-.28-2.87a2.36,2.36,0,0,0-1-.29c-.52,0-1,.28-1.31,1.1m28.84-1.12a1.55,1.55,0,0,0-.61,2.47,2.72,2.72,0,0,0,2.3,1.05,2.94,2.94,0,0,0,.81-2.22c0-1.22-.71-1.61-1.4-1.61a2.21,2.21,0,0,0-1.1.31m-20.36,4.46c2.16.75,3.49-1.4,1.29-4.39-2.51-3.4-5.25-3.52-5.25-3.52-1.19,2.56,1.82,7.17,4,7.91M119.7,70c-2.48,3.41-1.85,6.16-1.85,6.16,2.71.48,6.19-3.76,6.3-6.09,0-1.26-.6-2.06-1.56-2.06s-1.88.59-2.89,2m-12.25.17a2.39,2.39,0,1,0,2.39-2.46,2.42,2.42,0,0,0-2.39,2.46m5.42,0a2.39,2.39,0,1,0,2.39-2.46,2.42,2.42,0,0,0-2.39,2.46M77.2,65.38a1.77,1.77,0,1,0,1.72,1.77,1.74,1.74,0,0,0-1.72-1.77h0m12,1.5c1.2,3.21,7,4.05,9.17,2.59s1.37-4.49-2.6-4.79l-.81,0a7.53,7.53,0,0,0-5.76,2.23m39.4-2.7c-4,.29-4.74,3.31-2.6,4.78s8,.63,9.16-2.59a7.51,7.51,0,0,0-5.75-2.22l-.81,0m17.69,1.38A1.71,1.71,0,1,0,148,63.79a1.73,1.73,0,0,0-1.71,1.77m-38.85-1a2.39,2.39,0,1,0,2.39-2.46,2.42,2.42,0,0,0-2.39,2.46m5.42,0a2.39,2.39,0,1,0,2.39-2.46,2.42,2.42,0,0,0-2.39,2.46M75.6,63l0,.31h0c-.05.23-.07.37-.07.37s-3,1.09-2.94,3.65,3.31,3.46,3.31,3.46a2.6,2.6,0,0,0,2.8,2.7h0C77.14,72.7,77.19,70,77.19,70a2.88,2.88,0,0,1-2.77-3.09c0-2.08,2.69-2.69,2.69-2.69A4.51,4.51,0,0,1,79,60.43h-.32A3.2,3.2,0,0,0,75.6,63m71-3.71c1.52.76,1.47,3.5,1.47,3.5a2.91,2.91,0,0,1,2.77,3.1c-.05,2.08-2.7,2.68-2.7,2.68a4.46,4.46,0,0,1-1.91,3.74,3.18,3.18,0,0,0,3.42-2.5l0-.33.05,0a2.66,2.66,0,0,0,.06-.36s3-1.09,2.94-3.65-3.3-3.46-3.3-3.46a2.6,2.6,0,0,0-2.67-2.71h-.18M95.89,61.07c-.21,1.92,1.42,2,2.29,1.68a1.55,1.55,0,0,0,1-2.35A2.77,2.77,0,0,0,97,59a3,3,0,0,0-1.12,2.07m22.48,2.12c2.27,3.57,5,3.89,5,3.89,1.36-2.47-1.33-7.28-3.41-8.18a2.57,2.57,0,0,0-1-.21c-1.53,0-2.3,1.87-.62,4.5m5.94-4c-1.38,1.3-.23,2.49.66,2.81s1.91.29,2.22-1.13a2.91,2.91,0,0,0-.72-2.49h-.21a2.83,2.83,0,0,0-2,.82m-31-.71c-1.77.65-1.15,2.21-.45,2.85s1.65,1,2.47-.15a2.94,2.94,0,0,0,.27-2.58,2.51,2.51,0,0,0-1.25-.31,3,3,0,0,0-1,.19m34.59-.25a2.93,2.93,0,0,0-.25,2.35c.51,1.86,2.06,1.32,2.73.64s1.1-1.63,0-2.56a2.46,2.46,0,0,0-1.61-.56,2.81,2.81,0,0,0-.87.13m-26.85,6.42c.12,2.35,2.55,2.83,4.43-.39,2.13-3.66,1.23-6.33,1.23-6.33h-.17c-2.7,0-5.62,4.44-5.49,6.72m-1.72-8.44A2.82,2.82,0,0,0,97.54,58a2.87,2.87,0,0,0,1.7,1.6c1.76.66,2.25-.94,2.1-1.9-.11-.8-.48-1.59-1.42-1.59a2.09,2.09,0,0,0-.57.09M77,55.86C74.08,56.49,73,59.7,73,59.7A7.63,7.63,0,0,0,67.69,67v.25A7.64,7.64,0,0,0,73,74.6s1.12,3.21,4.06,3.84a7.64,7.64,0,0,0,1.61.17,6,6,0,0,0,6.23-4.86L85,72.31a4.48,4.48,0,0,0-2-4,2.6,2.6,0,0,0-1.57-.53,2.79,2.79,0,0,0,0,5.57h.11a2.62,2.62,0,0,1-.47,1l-.21,0,0,.06h.17l-.66.53a4.15,4.15,0,0,1-1.81.39,3.71,3.71,0,0,1-3.89-3.43,6.49,6.49,0,0,1-2.87-1.91A5,5,0,0,1,71,67.15a5,5,0,0,1,.85-2.74,6.49,6.49,0,0,1,2.87-1.91,3.72,3.72,0,0,1,3.89-3.43,4,4,0,0,1,1.81.4A2.21,2.21,0,0,1,81.54,61l-.11,0H81.2l-.62.14a2.78,2.78,0,0,0-1.85,2.64,2.75,2.75,0,0,0,2.7,2.79A2.55,2.55,0,0,0,83,66a4.48,4.48,0,0,0,2-4l-.14-1.44c-.69-3.52-3.59-4.85-6.23-4.85a7,7,0,0,0-1.61.17m45.24,1.24c.08,1,.49,1.92,1.89,1.65a2.82,2.82,0,0,0,1.92-1.67,2.86,2.86,0,0,0-1.58-1.72,2.06,2.06,0,0,0-.86-.22c-1,0-1.43,1.18-1.37,2m-12.94-1.46c-1.94,1.23-1.2,3.66,2.45,3.83,4.13.19,6-1.89,6-1.89C117,55.85,114.35,55,112.1,55a5.41,5.41,0,0,0-2.78.61m-17.11.09c-.29.92-.27,2,1.12,2.28a2.72,2.72,0,0,0,2.4-.78A2.92,2.92,0,0,0,94.92,55a1.64,1.64,0,0,0-1.2-.65,1.83,1.83,0,0,0-1.51,1.36M129,54.66A2.91,2.91,0,0,0,128,57a2.77,2.77,0,0,0,2.17.8c1.87-.09,1.72-1.77,1.23-2.59a1.74,1.74,0,0,0-1.38-1,1.63,1.63,0,0,0-1,.43m17.57-.56c-2.64,0-5.54,1.33-6.22,4.85l-.15,1.44a4.5,4.5,0,0,0,2,4,2.65,2.65,0,0,0,1.57.53,2.75,2.75,0,0,0,2.7-2.79,2.78,2.78,0,0,0-1.85-2.64l-.08,0-.77-.11h-.11a2.62,2.62,0,0,1,.47-1l.15,0,0-.07h-.09l.65-.5a4.11,4.11,0,0,1,1.8-.4,3.73,3.73,0,0,1,3.9,3.44,6.42,6.42,0,0,1,2.86,1.9,4.84,4.84,0,0,1,0,5.48,6.53,6.53,0,0,1-2.87,1.9,3.71,3.71,0,0,1-3.89,3.43,4.11,4.11,0,0,1-1.8-.39,2,2,0,0,1-.69-.55l-.3-.5-.17-.48h.11a2.79,2.79,0,0,0,0-5.57,2.65,2.65,0,0,0-1.57.53,4.49,4.49,0,0,0-2,4l.14,1.44c.69,3.52,3.59,4.86,6.24,4.86a7.62,7.62,0,0,0,1.6-.17c2.94-.63,4.06-3.85,4.06-3.85a7.56,7.56,0,0,0,5.13-5.85l0,0,0,0a8.08,8.08,0,0,0,.14-1.45v-.26a7.63,7.63,0,0,0-5.27-7.32s-1.11-3.21-4.06-3.84a7.54,7.54,0,0,0-1.6-.17h0m-50.78.45A2.9,2.9,0,0,0,96.69,57a2.78,2.78,0,0,0,2.1-1c1.29-1.39,0-2.5-.86-2.75a2.9,2.9,0,0,0-.71-.1c-.67,0-1.26.33-1.42,1.39m30.81-2c-.93.14-1.83.62-1.49,2a2.83,2.83,0,0,0,1.74,1.88,2.83,2.83,0,0,0,1.57-1.73,1.5,1.5,0,0,0-1.53-2.21l-.29,0M109.24,50.7c-1.38,1.3-.22,2.49.66,2.8s1.91.3,2.22-1.13a2.88,2.88,0,0,0-.72-2.48h-.21a2.83,2.83,0,0,0-2,.82m3.61-1a2.93,2.93,0,0,0-.25,2.35c.52,1.86,2.06,1.32,2.73.63a1.56,1.56,0,0,0,0-2.55,2.43,2.43,0,0,0-1.61-.56,2.89,2.89,0,0,0-.87.13m-38.51.54a51.39,51.39,0,0,0,1.86,4.8l.62-.19a9,9,0,0,1,1.81-.19A6.91,6.91,0,0,1,85.7,60a28.49,28.49,0,0,1,3.19-8.18l-.45.36a6.47,6.47,0,0,1-3.68,1.19,8.08,8.08,0,0,1-6.41-3.88,6.11,6.11,0,0,1-.63-1.39c-1.57.88-3.38,2.18-3.38,2.18m71.43-1.91a8,8,0,0,1-6.41,3.88,6.41,6.41,0,0,1-3.38-1,28.78,28.78,0,0,1,3.37,8.09l.07-.56c.81-4.17,4.23-5.65,7.16-5.65a9,9,0,0,1,1.81.19,6.06,6.06,0,0,1,1.41.53c.51-1.77.89-4,.89-4a48.77,48.77,0,0,0-4.61-2ZM99.72,47.13s-.82,3.15,2,6.72c2.48,3.15,5.28,2.08,5.22-.54,0-2.39-3.39-6.28-6.41-6.28a3.74,3.74,0,0,0-.81.1m17.12,6.18c-.06,2.62,2.74,3.69,5.22.54,2.82-3.57,2-6.72,2-6.72a3.74,3.74,0,0,0-.81-.1c-3,0-6.36,3.89-6.41,6.28m-9.65-4.68c.08,1,.5,1.93,1.89,1.66A2.79,2.79,0,0,0,111,48.62a2.89,2.89,0,0,0-1.58-1.73,2,2,0,0,0-.85-.21c-1.06,0-1.44,1.18-1.38,2m6.75-2.43a2.87,2.87,0,0,0-1,2.38,2.76,2.76,0,0,0,2.16.8c1.87-.1,1.72-1.77,1.23-2.59a1.74,1.74,0,0,0-1.38-1,1.63,1.63,0,0,0-1,.43m-2.4-2.12c-.92.13-1.83.62-1.48,2A2.8,2.8,0,0,0,111.79,48a2.87,2.87,0,0,0,1.57-1.73,1.5,1.5,0,0,0-1.52-2.21,1.46,1.46,0,0,0-.3,0M69.9,48.85s.3,3.34,3.19,8.62a6.83,6.83,0,0,1,2.27-2A32.3,32.3,0,0,1,73,49.67a26.43,26.43,0,0,1,4.42-2.75A8.09,8.09,0,0,1,77.67,44a21.27,21.27,0,0,0-7.77,4.82m76.52-1.94A30.73,30.73,0,0,1,152,49.3a28.67,28.67,0,0,1-1.24,5.17,7.93,7.93,0,0,1,1.83,2.19,22.61,22.61,0,0,0,2.19-9.06s-2.51-2.15-8.17-3.77a7.06,7.06,0,0,1-.22,3.08M85.81,39.85a1.82,1.82,0,0,0-.5,1.25,1.79,1.79,0,0,0,.5,1.25,1.68,1.68,0,0,0,2.43,0,1.74,1.74,0,0,0,.5-1.25,1.78,1.78,0,0,0-.5-1.25,1.68,1.68,0,0,0-2.43,0m2.74,26.5c0-13.67,10.79-24.8,24.06-24.8s24,11.12,24,24.8a25,25,0,0,1-7,17.53,23.55,23.55,0,0,1-17,7.28C99.34,91.16,88.55,80,88.55,66.35m-2.65,0c0,15.18,12,27.54,26.71,27.54s26.7-12.36,26.7-27.54-12-27.53-26.7-27.53S85.9,51.17,85.9,66.35m50-27.62a1.81,1.81,0,0,0,0,2.5,1.7,1.7,0,0,0,2.43,0,1.81,1.81,0,0,0,0-2.5,1.67,1.67,0,0,0-1.21-.52,1.69,1.69,0,0,0-1.22.52M88.77,37l-.24.18,0,0a2.13,2.13,0,0,0-.31.22s-2.86-1.41-4.58.43,0,4.86,0,4.86a2.71,2.71,0,0,0,.16,4c-.55-1.64,1.36-3.55,1.36-3.55a3,3,0,0,1,.17-4.2c1.46-1.44,3.74.06,3.74.06a4.24,4.24,0,0,1,3.92-1.25,3,3,0,0,0-2.37-1.21,3.75,3.75,0,0,0-1.78.5m43-.39c1.59-.57,3.44,1.4,3.44,1.4a2.8,2.8,0,0,1,4.09.17c1.39,1.51-.07,3.87-.07,3.87a4.53,4.53,0,0,1,1.21,4,3.32,3.32,0,0,0,.7-4.27l-.19-.26,0,0a2.86,2.86,0,0,0-.21-.31s1.36-3-.42-4.73-4.71,0-4.71,0a2.87,2.87,0,0,0-1.89-.82,2.77,2.77,0,0,0-2,1M81.22,33.34l0,.09v1L81,33.5a8.16,8.16,0,0,0-3,6.11,8.53,8.53,0,0,0,.87,3.67,7.24,7.24,0,0,0-.56,2.8A5.32,5.32,0,0,0,79.15,49a7,7,0,0,0,5.61,3.44,5.56,5.56,0,0,0,3.15-1,5.29,5.29,0,0,0,2.57-4.27l-.12-1a2.78,2.78,0,0,0-.75-1.52,2.67,2.67,0,0,0-1.91-.81,2.64,2.64,0,0,0-1.91.82,2.83,2.83,0,0,0-.79,2,2.79,2.79,0,0,0,.79,2l.09.08a2.52,2.52,0,0,1-1,.34l-.11-.14,0,.06.1.09h-.15L84,48.86a4.47,4.47,0,0,1-2.8-3.93,3.9,3.9,0,0,1,.86-2.38,7.17,7.17,0,0,1-.75-3l0-.46a5,5,0,0,1,1.28-2.55,4.77,4.77,0,0,1,2.48-1.32l.43,0a6.71,6.71,0,0,1,2.91.77,3.63,3.63,0,0,1,2.31-.89A4.35,4.35,0,0,1,94.55,38l.11.69v.2l-.13.59-.2.45-.08-.1-.17-.16-.52-.35a2.61,2.61,0,0,0-1.21-.3,2.66,2.66,0,0,0-1.91.82,2.84,2.84,0,0,0,0,3.94,2.66,2.66,0,0,0,1.48.77l.93.13A5.08,5.08,0,0,0,97,42a6,6,0,0,0,1-3.24A7.31,7.31,0,0,0,94.64,33a4.93,4.93,0,0,0-2.79-.82,6.62,6.62,0,0,0-2.72.59,7.75,7.75,0,0,0-3.56-.9,7.17,7.17,0,0,0-4.35,1.49M135,31.62a6.89,6.89,0,0,0-2.71-.58,5,5,0,0,0-2.8.82,7.3,7.3,0,0,0-3.33,5.8,5.93,5.93,0,0,0,1,3.23,5.1,5.1,0,0,0,4.15,2.66l.93-.13a2.77,2.77,0,0,0,1.47-.77,2.86,2.86,0,0,0,0-3.95,2.67,2.67,0,0,0-1.92-.81,2.73,2.73,0,0,0-1.21.29l-.07,0-.62.47-.07.1a2.71,2.71,0,0,1-.34-1l.11-.09-.06,0-.05.06v-.14l.12-.68a4.32,4.32,0,0,1,3.8-2.89,3.69,3.69,0,0,1,2.31.88,6.65,6.65,0,0,1,2.9-.76l.44,0a4.71,4.71,0,0,1,2.47,1.32A4.92,4.92,0,0,1,142.78,38l0,.45a7.15,7.15,0,0,1-.74,3,3.92,3.92,0,0,1,.85,2.37,4.42,4.42,0,0,1-2.8,3.93l-.67.12h-.19l-.57-.14-.44-.21.1-.07a2.86,2.86,0,0,0,.78-2,2.81,2.81,0,0,0-.79-2A2.67,2.67,0,0,0,133.77,45l-.13,1a5.29,5.29,0,0,0,2.57,4.26,5.48,5.48,0,0,0,3.15,1A7,7,0,0,0,145,47.83a5.26,5.26,0,0,0,.8-2.88,7.42,7.42,0,0,0-.57-2.8,8.49,8.49,0,0,0,.87-3.66,7.43,7.43,0,0,0-.72-3.25h-.7l.42-.11h.23a7.65,7.65,0,0,0-1.48-2.08,7.26,7.26,0,0,0-5.27-2.33,7.88,7.88,0,0,0-3.56.9m-24.87-1.77a1.72,1.72,0,1,0,1.72-1.77,1.74,1.74,0,0,0-1.72,1.77m-15.52,2,.57.32a8.64,8.64,0,0,1,3.63,5.28,6.78,6.78,0,0,1-.88,4.83,27,27,0,0,1,7.9-3.5l-.58-.06A6.49,6.49,0,0,1,101,35.84a8.79,8.79,0,0,1-1-6.38,5.77,5.77,0,0,1,.51-1.45c-1.72-.53-3.89-.93-3.89-.93-.52,1-1.4,3.23-2,4.76m28.94-3,.18.64a8.79,8.79,0,0,1-1,6.38,6.36,6.36,0,0,1-3.9,2.76,26.84,26.84,0,0,1,7.9,3.28l-.31-.44a6.82,6.82,0,0,1-1-5.12A8.56,8.56,0,0,1,129,31a5.29,5.29,0,0,1,1.35-.66c-.86-1.62-2.11-3.48-2.11-3.48a44.41,44.41,0,0,0-4.66,1.92M111.69,25c-2.48.05-3.35,3.41-3.35,3.41a2.66,2.66,0,0,0-2.62,2.94c.73-1.56,3.4-1.52,3.4-1.52a2.88,2.88,0,0,1,3-2.85c2,0,2.6,2.77,2.6,2.78a4.31,4.31,0,0,1,3.63,2,3.27,3.27,0,0,0-2.45-3.54l-.3,0,0,0-.35-.07s-1-3-3.48-3h-.06M94.41,22.84s-2.08,2.58-3.65,8.43l1.09-.09a6,6,0,0,1,1.91.3,32.57,32.57,0,0,1,2.31-5.77,26.49,26.49,0,0,1,5,1.27,7.58,7.58,0,0,1,2.13-1.88,21.3,21.3,0,0,0-8.51-2.26h-.29m26.81,2.78a6.64,6.64,0,0,1,2,2.34,30.25,30.25,0,0,1,5.59-2.4,27.42,27.42,0,0,1,2.68,4.55l.82-.06a7.29,7.29,0,0,1,2,.28,22,22,0,0,0-4.67-8s-3.24.31-8.36,3.3m-9.38-5.57h-.12a7.43,7.43,0,0,0-7.11,5.43,6.24,6.24,0,0,0-3.73,4.19l-.16,1.64c0,2.74,1.29,5.74,4.71,6.44l1.39.15a4.31,4.31,0,0,0,3.93-2.06,2.85,2.85,0,0,0,.52-1.63,2.7,2.7,0,0,0-5.28-.87l0,.08-.11.79v.13a2.54,2.54,0,0,1-1-.49l0-.21h-.06v.18a2.16,2.16,0,0,1-.52-.69,4.46,4.46,0,0,1-.38-1.85,3.76,3.76,0,0,1,3.33-4,6.88,6.88,0,0,1,1.85-3,4.49,4.49,0,0,1,5.31,0,6.88,6.88,0,0,1,1.85,3,3.76,3.76,0,0,1,3.33,4,4.46,4.46,0,0,1-.38,1.85,2,2,0,0,1-.54.71l-.49.31-.46.18V34l-.12-.63a2.7,2.7,0,0,0-5.27.87,2.82,2.82,0,0,0,.51,1.63,4.31,4.31,0,0,0,3.93,2.06l1.39-.15C121.66,37,123,34,123,31.3l-.16-1.64a6.22,6.22,0,0,0-3.73-4.19,7.54,7.54,0,0,0-5-5.11l-.56.95-.37.37.79-1.34v0a7.35,7.35,0,0,0-2-.28Z"/></clipPath><clipPath id="clip-path-3" transform="translate(0 -20.04)"><path class="cls-1" d="M111.28,105.7c1.3,1.79,3.17,1.84,4.37-.24a3.31,3.31,0,0,1-4.37.24m5.44-2.16,0,.09.83-.22a8,8,0,0,1-.81.13m.81-.13.39-.1Zm-21.64,6.27a25.83,25.83,0,0,0,6.93-2.71,7.42,7.42,0,0,1-1.06-1.31,24.1,24.1,0,0,1-5.62,2.25,26.72,26.72,0,0,1-2.82-4.6l-1.29,0a20.16,20.16,0,0,0,3.86,6.4m14.19-5.75c0-.11-.08-.21-.12-.32a4.6,4.6,0,0,1-1.75-.51,2.7,2.7,0,0,0,1.87.83m19.41,3.81a25.61,25.61,0,0,1-5.15-1.2,7.18,7.18,0,0,1-1,.94,19,19,0,0,0,7.1,1.71,28,28,0,0,0,3.06-7l-1.62-.14a26.18,26.18,0,0,1-2.42,5.68m-16.11-3.8a1.09,1.09,0,0,0,0-2.17,1.09,1.09,0,0,0,0,2.17M91.06,96.37l-.33-.2.33.2m-1.13-.7.8.5a6.82,6.82,0,0,1-.72-.55l-.08,0m17.18,0c-2.85.59-4.16,3-4.17,5.74.18,1.78.19,2.95,2,4.35l1.79,1c.85,2.56,2.37,4.35,4.71,5l0,0,0,0a7.51,7.51,0,0,0,2.07.27c3.37,0,5.54-2.18,6.57-5.27,1.66-.62,3.33-2,3.6-3.77,1.25-8.12-6.94-8.82-8.59-5.74a2.22,2.22,0,0,0-.44,1.3,2,2,0,1,0,4,0l-.13-1.09,1,.29-.08-1.13,1.52,2a4.48,4.48,0,0,1,.88,2.85,4.43,4.43,0,0,1-3.48,4.62c-.84,2.29-2.52,3.91-5,3.91s-4.2-1.62-5-3.91c-3.28-.71-4.16-4.38-3-6.76.61-1.31,1.7-1.5,2.9-1.84l-.13,1.09a2.07,2.07,0,0,0,2,2.06,2.09,2.09,0,0,0,1.61-3.36,3.71,3.71,0,0,0-3.33-1.75,6.1,6.1,0,0,0-1.27.14m27.54-.07a2.81,2.81,0,0,0,2-.82l-.29-.13a4.84,4.84,0,0,1-1.68,1M88,96.22a3.39,3.39,0,0,1-3.32-2.93c-.26,2.16,1,3.56,3.32,2.93m7.86,6.45L97.31,105l3.54-1.49a9.6,9.6,0,0,1,1.12-7,7,7,0,0,1,2.37-2.26,27.9,27.9,0,0,1-4.08-1.66c1.46,4.06-1,8.51-4.39,10.1m26-8.77c3.52,1.66,4.84,5.81,4.09,9.48a5.5,5.5,0,0,1-.25.88c.85.23,1.73.43,2.59.6l1.5-3.68a9.36,9.36,0,0,1-4-5.78,7.39,7.39,0,0,1,.11-3.31,28.4,28.4,0,0,1-4,1.81m16.72,1.24c2.21.36,3.56-1,3-3.34a3.39,3.39,0,0,1-3,3.34M87.09,92.73a1,1,0,1,0,2.06,0,1,1,0,1,0-2.06,0m50.06-1.13a1,1,0,1,0,2.07,0,1,1,0,1,0-2.07,0m-52.09-.53.12-.28a4.9,4.9,0,0,1-.87-1.58,2.91,2.91,0,0,0,.75,1.86M141,89.67l0,.06.38-.62a5.84,5.84,0,0,1-.42.56m.42-.56c.08-.12.15-.24.22-.37Zm-27.94,1c.58.17,2.29-.53,1.38-1.72a2,2,0,0,0-1.46-.72c-.48.68-.6,2.23.08,2.44M109.15,88c-.07.62,1,2.24,1.88,1.06a2.14,2.14,0,0,0,.34-1.69,2,2,0,0,0-.77-.13c-.68,0-1.41.25-1.45.76m6.45-3.36a2,2,0,0,0-1.24,1.12c.4.72,1.66,1.41,2.12.94s.51-2.11-.55-2.11a1,1,0,0,0-.33,0m-6-1.36c-.58.21-1.51,2-.08,2.26a1.89,1.89,0,0,0,1.58-.43c0-.74-.75-1.85-1.35-1.85l-.15,0M80.13,87.75c0,2,.77,2.52.5,3.1-3,6.29,3.15,12.72,9.29,9.63l.3-.15a5.16,5.16,0,0,0,5.13,0c2.64-1.78,4.05-5.14,2.14-8.09A4.55,4.55,0,0,0,94,89.85c-3.08.19-2.88,2.72-1.95,3.68a2,2,0,0,0,2.81,0l.69-.86.52.93.33-.38.09,2-.17.81c-.85,2.52-4,4.47-6.82,2.58-2.21,1-4.47.92-6.24-.89a5.54,5.54,0,0,1-.85-6.41c-2.4-3.74,1.73-8.63,4.95-6.71l.83.5c-.7.57-1.38,1-1.38,2.13a2,2,0,0,0,4,.36l.12-.92c.12-2-2.46-4.58-5-4.58s-5.72,2.52-5.72,5.63M112,82.94a2.1,2.1,0,0,0,1,1.34c.69-.37,1.52-1.72.94-2.24a1.56,1.56,0,0,0-1-.28c-.58,0-1.17.29-1,1.18m25.66-1a4.79,4.79,0,0,0-2.28,3.67,3.17,3.17,0,0,0,.68,2c1.85,1.91,4.74-1,2.83-3l-.76-.64.91-.54-.38-.34,2-.09.77.18a4.8,4.8,0,0,1,2.51,7,5.52,5.52,0,0,1-.86,6.4c-1.8,1.87-4,1.87-6.22.89-3.44,2.33-7-1.12-7-3.47a4.86,4.86,0,0,1,.93-2.48c.58.74,1,1.45,2.08,1.45,2.49,0,2.72-3.8.34-4.16l-.88-.13c-2-.12-4.41,2.61-4.42,5.21s2.36,5.93,5.45,5.93c1.8,0,2.45-.78,3-.5a6.7,6.7,0,0,0,6.93-.35v0a7.29,7.29,0,0,0,3.15-5.91,8,8,0,0,0-.94-3.67,5.61,5.61,0,0,0-.06-5.31,6.19,6.19,0,0,0-5-3.11,4.85,4.85,0,0,0-2.78.9M101,86.33c3.4.29,7.76-5.71,5.35-7.27a1.29,1.29,0,0,0-.74-.22c-2,0-5,4.08-4.61,7.49m17.36-7.27c-2.4,1.56,2,7.56,5.36,7.27.34-3.41-2.57-7.49-4.61-7.49a1.34,1.34,0,0,0-.75.22M96.45,80.41c.48.37,2.28.39,1.87-1a2.12,2.12,0,0,0-1.09-1.26c-.66.43-1.38,1.84-.78,2.31m28.7-.79c.23.57,1.79,1.52,2.13.07A2.18,2.18,0,0,0,126.9,78c-.75,0-2,.88-1.75,1.6M71.08,84.78a25.45,25.45,0,0,0,6.74,3.16A7.57,7.57,0,0,1,78,86.23a24.12,24.12,0,0,1-5.52-2.49,26.9,26.9,0,0,1,1.16-5.3,7.48,7.48,0,0,1-.89-1,20.65,20.65,0,0,0-1.65,7.31m57.79-7.37c-.16.82.36,2.25,1,2.18s1.9-1.49.6-2.17a1.8,1.8,0,0,0-.8-.18,2.08,2.08,0,0,0-.82.17M93,77.23c-.18.61.62,2.39,1.69,1.38a2.15,2.15,0,0,0,.6-1.61,2.27,2.27,0,0,0-1.19-.31c-.52,0-1,.17-1.1.54m57.76.29a25.87,25.87,0,0,1,2.2,5.79,25.41,25.41,0,0,1-4.45,2.9,8.92,8.92,0,0,1,0,1.37,19.21,19.21,0,0,0,6.16-4A27.3,27.3,0,0,0,152,76.46a7.08,7.08,0,0,1-1.26,1.06M75.87,79.83c-.23.88-.43,1.8-.59,2.69l3.54,1.54.05-.09c1.83-2.88,5.31-4.92,8.76-4a30.87,30.87,0,0,1-1.74-4.11c-1.78,3.94-6.69,5.19-10,3.92m24.19-4.06a2,2,0,0,0-1.43.83c.24.79,1.35,1.75,1.89,1.39s1-2.22-.38-2.22h-.08M108.21,77c1.77,2.21,8,2.06,7.93-.05,0-.92-1.46-1.45-3.17-1.45a7.88,7.88,0,0,0-4.76,1.5m15.43-2c-.45.43-.59,2.43.82,2.09a2.06,2.06,0,0,0,1.28-1.09,2.37,2.37,0,0,0-1.7-1.15.57.57,0,0,0-.4.15m14.4,4c4-1.52,8.34,1.22,9.81,4.52.76-.46,1.51-1,2.23-1.46l-1.46-3.7-2,.23a7.68,7.68,0,0,1-6.94-3.78A30.41,30.41,0,0,1,138,79.1m-8.42-5.4a2.06,2.06,0,0,0-.66,1.59c.65.45,2.07.54,2.29-.12.16-.48-.27-1.74-1-1.74a1,1,0,0,0-.62.27m-35.05-.91c-.61.1-1.84,1.59-.51,2.2a1.94,1.94,0,0,0,1.63-.07c.12-.78-.42-2.13-1-2.13h-.07m3,.2a2,2,0,0,0,.19,1.71c.75,0,2.09-.6,1.91-1.34a1.67,1.67,0,0,0-1.33-1c-.31,0-.59.18-.77.66m28.14.71a2,2,0,0,0,1.44.77c.5-.66.67-2.21,0-2.43a.8.8,0,0,0-.24,0c-.7,0-1.95.63-1.19,1.7m-20.08,1.74c2.94,1,1.33-4.28-2.77-6.15a4.65,4.65,0,0,0-.94-.34c-.42,2.15,1.91,5.87,3.71,6.49M148.77,69a5.18,5.18,0,0,1-.49,1.82,3,3,0,0,0,.76-1.93l-.27.11m-30.31,6.5c2.82-.23,6.3-5.63,4.55-6.7a.83.83,0,0,0-.44-.12c-1.56,0-4.22,3.65-4.11,6.82m-10.33-5.34a1.71,1.71,0,1,0,3.41,0,1.71,1.71,0,1,0-3.41,0m7.13-1.78c-2.25,0-2.25,3.56,0,3.56s2.24-3.56,0-3.56h0M77.2,68.24a1.09,1.09,0,0,0,0-2.18,1.09,1.09,0,0,0,0,2.18M90,67c1.59,3,8.82,3.39,8.83.45,0-1.37-1.79-2.14-3.88-2.14A7.61,7.61,0,0,0,90,67m35.5-.06c0,2.91,7.14,2.56,8.82-.43a7.67,7.67,0,0,0-5-1.71c-2.1,0-3.86.8-3.86,2.14M148,66.64a1.09,1.09,0,0,0,0-2.17,1.09,1.09,0,0,0,0,2.17m2.78,1.07c1.71-1.36,1.71-3.32-.29-4.54a3.53,3.53,0,0,1,.29,4.54M113.55,64.6a1.71,1.71,0,1,0,3.41,0,1.71,1.71,0,1,0-3.41,0m-3.71,1.78c2.24,0,2.24-3.56,0-3.56s-2.25,3.56,0,3.56m38.85-4.23h.05l-.11-.52a4.43,4.43,0,0,1,.06.51m-.06-.51c0-.2-.07-.41-.12-.61Zm-51.74.5c.55.27,2.33-.1,1.64-1.43a2,2,0,0,0-1.31-1c-.59.58-1,2.09-.33,2.42m21.6-2.62c-1.41,1,1.17,5.65,4.46,6.76.66-2.51-2.18-6.93-3.93-6.93a.86.86,0,0,0-.53.17m5.91,1.11c.23.57,1.8,1.52,2.13.06a2.19,2.19,0,0,0-.39-1.67c-.79,0-2,.9-1.74,1.61m-31.54-.84c0,.63,1.09,2.18,1.93,1a2.17,2.17,0,0,0,.27-1.71,1.85,1.85,0,0,0-.65-.1c-.71,0-1.52.29-1.55.84m35.54-1c-.55,1.32.22,3.27,1.51,1.94s-.24-2-1.22-2l-.29,0m-26.08,7c1.5.73,4.32-3.7,3.87-7.14-2.81.53-5.69,6.26-3.87,7.14m-2.8-8.92A1.88,1.88,0,0,0,98.29,58c.39.67,1.64,1.39,2.11.91s.51-2.11-.55-2.11a1.1,1.1,0,0,0-.33.05m-22.36-.32a4.61,4.61,0,0,0-2.66,1.81,6.59,6.59,0,0,0-.86,1.49v.36c-3.38,1.2-5.26,3.41-5.26,7.1,0,3.37,2,5.68,5.12,6.78a5.12,5.12,0,0,0,5.13,3.87c6.37,0,6.86-7.45,4-9.07a2,2,0,0,0-1.23-.44,2.11,2.11,0,0,0,0,4.21l1-.1-.27,1,1,0L81.37,75h-.09a3.58,3.58,0,0,1-2.7.92,4.37,4.37,0,0,1-4.5-3.61,5.4,5.4,0,0,1,0-10.31,4.6,4.6,0,0,1,6.61-3.13c1.27.63,1.46,1.75,1.77,2.94a3.46,3.46,0,0,0-1.69,0c-2,.57-1.76,4.09.66,4.09a2,2,0,0,0,1.23-.44A3.88,3.88,0,0,0,84.32,62l-.14-1.38c-.4-2.74-2.89-4.27-5.55-4.27a7.33,7.33,0,0,0-1.47.15M123.29,56c-.48.42-.69,2.41.73,2.13a2,2,0,0,0,1.31-1,2.26,2.26,0,0,0-1.67-1.23.57.57,0,0,0-.37.12M109,57.27c0,1.78,5.21,2.23,7.92.17-.88-1.15-2.93-1.72-4.73-1.72s-3.21.52-3.19,1.55M93.57,55.08c-.59.21-1.52,2-.09,2.26a2,2,0,0,0,1.58-.41c0-.77-.75-1.87-1.34-1.87l-.15,0m35.86.11a2,2,0,0,0-.72,1.57c.61.46,2,.63,2.29,0,.19-.48-.2-1.78-1-1.78a1,1,0,0,0-.6.24m13.12,8.66a2,2,0,0,0,1.23.44,2.12,2.12,0,0,0,.61-4.11,3.9,3.9,0,0,0-1.63,0l.28-1-1,.06,1.84-1.5a4.65,4.65,0,0,1,7.28,2.71,5.42,5.42,0,0,1,3.79,5.17c-.07,2.6-1.42,4.17-3.79,5.12-.86,4.3-6.56,4.65-7.92,1.78l-.54-1.56,1.15.12a2.06,2.06,0,0,0,2-2.1,2,2,0,0,0-3.21-1.69c-1.74,1.14-1.84,3-1.56,4.81.48,3.25,3.87,4.8,7,4.13a5.41,5.41,0,0,0,3.67-3.72c3.31-1.17,5.12-3.49,5.12-7,0-3.37-2-5.68-5.12-6.78a5.13,5.13,0,0,0-5.14-3.87c-6.37,0-6.85,7.46-4,9.07M96.47,54.66A2,2,0,0,0,97,56.29c.77-.11,2-1,1.6-1.74a1.69,1.69,0,0,0-1.3-.73c-.38,0-.73.22-.82.84m29.32-.24a2.09,2.09,0,0,0,1,1.3c.7-.42,1.44-1.79.86-2.27a1.44,1.44,0,0,0-.88-.25c-.62,0-1.25.3-1,1.22m-16.46-2.25c.24.57,1.81,1.51,2.13,0a2.12,2.12,0,0,0-.39-1.66c-.78,0-2,.9-1.74,1.61m4-1.85c-.32.76-.11,2.29.57,2.35s2.14-1,1-2a1.9,1.9,0,0,0-1.21-.41,1.55,1.55,0,0,0-.37,0m-38.18.22,1.46,3.71,2-.23a7.67,7.67,0,0,1,6.93,3.78,28.35,28.35,0,0,1,1.62-4.19c-4,1.52-8.35-1.22-9.81-4.52Zm71.22-1.8c-1.85,2.91-5.31,4.92-8.77,3.95a29.11,29.11,0,0,1,1.74,4.11c1.78-3.94,6.67-5.2,10-3.92.23-.89.42-1.8.59-2.69l-3.54-1.54ZM118.19,54.9c2,1.26,5.66-3.37,5.28-7.18h-.23c-3.32,0-7.36,5.67-5,7.18m-17.87-7.18c-.43,3.68,3.28,8.47,5.27,7.18,2.31-1.51-1.74-7.18-5-7.18h-.22m7.9-.23c-.48.41-.7,2.4.73,2.13a2,2,0,0,0,1.31-1,2.31,2.31,0,0,0-1.68-1.21.52.52,0,0,0-.36.13m6.14-.76a2,2,0,0,0-.71,1.56c.62.48,2,.63,2.28,0,.19-.47-.2-1.79-1-1.79a1,1,0,0,0-.6.25M70.62,49.09a26.93,26.93,0,0,0,2.6,7.16,7.59,7.59,0,0,1,1.26-1.07,25.47,25.47,0,0,1-2.19-5.79,26,26,0,0,1,4.45-2.89,7.82,7.82,0,0,1,0-1.37,19.27,19.27,0,0,0-6.16,4m76.62-2.61A24.31,24.31,0,0,1,152.76,49a27.63,27.63,0,0,1-1.16,5.3,7.48,7.48,0,0,1,.89,1,20.63,20.63,0,0,0,1.64-7.31,25.08,25.08,0,0,0-6.73-3.16,8.19,8.19,0,0,1-.16,1.71M110.72,46a1.93,1.93,0,0,0,1.08,1.28c.68-.42,1.41-1.78.83-2.26a1.51,1.51,0,0,0-.88-.24c-.62,0-1.25.3-1,1.22M83.56,44l.23-.37c-.08.12-.16.24-.23.37m50.88,1.12-.12.92c-.11,2,2.46,4.57,5,4.57s5.72-2.5,5.73-5.63a7.5,7.5,0,0,0-.19-1.53l-1.44,1.44c-.53,2.07-2.76,4.3-5,3.49L137,47.63c.76-.6,1.47-1,1.47-2.18a2,2,0,0,0-2-2.09,1.93,1.93,0,0,0-2,1.73M83.79,43.6c.13-.2.27-.38.41-.56l0,0ZM140,41.92a4.92,4.92,0,0,1,.88,1.58,3,3,0,0,0-.75-1.86c0,.09-.08.19-.13.28M86,41.1a1,1,0,1,0,2.06,0A1,1,0,0,0,87,40a1,1,0,0,0-1,1.07m1.87,25.25c0-13.75,10.81-25.49,24.74-25.48s24.74,11.73,24.74,25.48a25.73,25.73,0,0,1-7.25,18,24.2,24.2,0,0,1-17.49,7.48c-14,0-24.74-11.75-24.74-25.49m-1.28,0c0,14.46,11.33,26.86,26,26.86s26-12.39,26-26.86-11.35-26.85-26-26.85-26,12.4-26,26.85M136.06,40a1,1,0,1,0,2.07,0,1,1,0,1,0-2.07,0m-52.43.93a3.4,3.4,0,0,1,3-3.34,3.85,3.85,0,0,0-.66-.06c-1.8,0-2.83,1.34-2.35,3.4m5-3,.29.13a4.78,4.78,0,0,1,1.64-.93h0a2.78,2.78,0,0,0-1.91.8m46.6-.88.06,0-.59-.37a5.7,5.7,0,0,1,.53.41m-.53-.41c-.16-.11-.32-.22-.49-.32Zm2.47-.17a3.4,3.4,0,0,1,3.37,2.93c.21-1.83-.67-3.09-2.29-3.09a4,4,0,0,0-1.08.16M80.78,34.63v0A7.23,7.23,0,0,0,79.54,43l.14.29a5.63,5.63,0,0,0,0,5.32c1.67,2.64,4.89,4.2,7.79,2.2a4.71,4.71,0,0,0,2.28-3.66c-.18-3.16-2.57-3-3.52-2.05a2.16,2.16,0,0,0,0,3l.78.69-.9.52.36.34-1.94.09-.78-.18a4.8,4.8,0,0,1-2.5-7,5.54,5.54,0,0,1,.85-6.41c1.79-1.84,4-1.89,6.23-.88,3.53-2.4,7.84,1.43,6.81,4.49l-.7,1.55c-.57-.74-1-1.54-2.13-1.54-2.49,0-2.73,3.79-.35,4.16l.88.12c2,.13,4.41-2.6,4.42-5.2s-2.36-5.93-5.44-5.93a6.27,6.27,0,0,0-2.32.46l-.27.27a7.49,7.49,0,0,0-3.69-1,6.76,6.76,0,0,0-4.79,2.1m54.52-2.4-.3.15a5.18,5.18,0,0,0-5.14,0c-2.64,1.78-4,5.13-2.13,8.09a4.55,4.55,0,0,0,3.53,2.34,2.92,2.92,0,0,0,2-.69c1.84-1.9-.86-5-2.85-3l-.66.84-.52-1-.35.41-.08-2,.17-.81c.86-2.54,4-4.46,6.82-2.59,2.21-1,4.48-.91,6.24.9s1.81,4.15.85,6.4a4.42,4.42,0,0,1,.75,2.6c.86-1.8,1.8-3.41,1.8-5.47a6.84,6.84,0,0,0-.65-2.92h-.55l.42-.1h.08a6.91,6.91,0,0,0-6.15-4,7.18,7.18,0,0,0-3.24.81m-28-2.83,1.21-.23a.29.29,0,0,1,0-.09Zm7.95-.31a4.61,4.61,0,0,1,1.76.52,2.76,2.76,0,0,0-1.88-.84c0,.11.09.22.12.32m-3.4,1.85a1.09,1.09,0,0,0,0-2.18,1.09,1.09,0,0,0,0,2.18m-16.4.59a9.34,9.34,0,0,1,4,5.78,7.25,7.25,0,0,1-.12,3.31,27.43,27.43,0,0,1,4-1.81c-3.53-1.66-4.85-5.81-4.1-9.49a6.22,6.22,0,0,1,.25-.87L97,27.84Zm28.92-2.33a9.57,9.57,0,0,1-1.12,7,6.92,6.92,0,0,1-2.36,2.27A27.69,27.69,0,0,1,125,40.14c-1.46-4.06,1-8.5,4.39-10.11-.45-.79-.94-1.57-1.43-2.33Zm-14.84-1.9a3.31,3.31,0,0,1,4.39-.31,2.39,2.39,0,0,0-4.39.31M91.68,30.51l1.63.14A25.49,25.49,0,0,1,95.73,25a25.68,25.68,0,0,1,5.14,1.2,7.82,7.82,0,0,1,1-.94,18.9,18.9,0,0,0-7.08-1.71,27.07,27.07,0,0,0-3.08,7m30.72-4.77a7.07,7.07,0,0,1,1.06,1.31,23.77,23.77,0,0,1,5.61-2.25,26.72,26.72,0,0,1,2.82,4.6l1.29,0A20.13,20.13,0,0,0,129.34,23a25.16,25.16,0,0,0-6.94,2.7M105.16,26a5.38,5.38,0,0,0-3.6,3.76l-.16,1.58c0,2.69,1.31,5.13,4.13,5.73,1.84.29,3.55.16,4.64-1.6,1.81-2.94-2.63-4.77-3.52-1.94a4.58,4.58,0,0,0,0,1.73l-1-.3v.41l-1.43-1.25v0c-1.51-1.71-1.35-6.57,2.61-7.43.83-2.29,2.51-3.92,5-3.92s4.19,1.63,5,3.92c4.12.89,4.52,6.69,1.71,8.11l-1.56.58a4.23,4.23,0,0,0,0-1.84,2,2,0,0,0-3.93.7c0,1.5,1.78,3.09,3.72,3,4.41-.22,5.92-3.49,5.3-7.45-.26-1.73-1.93-3.14-3.6-3.76-.91-2.75-2.52-4.52-5.05-5.08l-.42.71-.37.38.65-1.12a8.83,8.83,0,0,0-1.59-.16h-.11c-3.26,0-5.45,2.24-6.46,5.27"/></clipPath></defs><g id="Capa_2" data-name="Capa 2"><g id="Layer_1" data-name="Layer 1"><path class="cls-2" d="M228.85,222V217.7h1.92a2.82,2.82,0,0,1,.88.11,1,1,0,0,1,.48.42,1.2,1.2,0,0,1,.18.65,1.12,1.12,0,0,1-.3.78,1.54,1.54,0,0,1-.92.39,1.54,1.54,0,0,1,.34.22,3.15,3.15,0,0,1,.48.58l.75,1.17h-.72l-.57-.9c-.17-.26-.3-.45-.41-.59a1.3,1.3,0,0,0-.29-.29.72.72,0,0,0-.27-.12l-.31,0h-.67V222Zm.57-2.41h1.23a1.73,1.73,0,0,0,.62-.09.65.65,0,0,0,.33-.25.69.69,0,0,0,.12-.39.67.67,0,0,0-.22-.51,1.08,1.08,0,0,0-.71-.19h-1.37Z" transform="translate(0 -20.04)"/><path class="cls-3" d="M233.9,219.4a3.14,3.14,0,1,1-3.13-2.91A3,3,0,0,1,233.9,219.4Z" transform="translate(0 -20.04)"/><path class="cls-2" d="M70.62,136.77h2.16v3.28a1.65,1.65,0,0,1-.22.67,1.48,1.48,0,0,1-.37.41,1.19,1.19,0,0,1-.47.22,1.42,1.42,0,0,1,.36.16,1.74,1.74,0,0,1,.32.26,1.18,1.18,0,0,1,.27.44l.11-1.07V147a1.91,1.91,0,0,1-.37.85,2,2,0,0,1-.53.47,1.43,1.43,0,0,1-.66.24h5.7a1.55,1.55,0,0,1-.68-.24,1.82,1.82,0,0,1-.51-.47,2,2,0,0,1-.37-.85v-4.3a1.48,1.48,0,0,1,.22-.69,1.36,1.36,0,0,1,.37-.41,1.16,1.16,0,0,1,.48-.22,1.44,1.44,0,0,1-.37-.15,1.71,1.71,0,0,1-.31-.26,1.18,1.18,0,0,1-.27-.44l-.12,1.07v-4.8h2.17a2,2,0,0,1,.85.36,2,2,0,0,1,.47.51,1.8,1.8,0,0,1,.23.66v-4.14h-10v4.14a1.65,1.65,0,0,1,.24-.66,1.82,1.82,0,0,1,.47-.51,1.9,1.9,0,0,1,.85-.36" transform="translate(0 -20.04)"/><path class="cls-2" d="M82.11,141.14V147a2.17,2.17,0,0,1-.39.85,1.82,1.82,0,0,1-.51.47,1.51,1.51,0,0,1-.66.24H91.2v-4.12a2,2,0,0,1-.24.64,2,2,0,0,1-1.29.9h-5v-3.3h2.58a2.1,2.1,0,0,1,.83.14,1.73,1.73,0,0,1,.48.32.87.87,0,0,1,.25.43v-4.39a1.14,1.14,0,0,1-.27.46,1.43,1.43,0,0,1-.47.32,2.09,2.09,0,0,1-.83.13H84.69v-3.29h5a1.87,1.87,0,0,1,1.3.87,2,2,0,0,1,.24.66v-4.14H80.55a1.65,1.65,0,0,1,.66.24,2.1,2.1,0,0,1,.51.49,2.24,2.24,0,0,1,.39.85v4.31a1.65,1.65,0,0,1-.23.67,2.15,2.15,0,0,1-.36.41,1.26,1.26,0,0,1-.47.22,1.42,1.42,0,0,1,.36.16,1.71,1.71,0,0,1,.31.26,1.33,1.33,0,0,1,.28.44Z" transform="translate(0 -20.04)"/><path class="cls-2" d="M99.52,136.77a3.79,3.79,0,0,1,1.38.25,4.37,4.37,0,0,1,1.19.71,4.26,4.26,0,0,1,.92,1.06,4.73,4.73,0,0,1,.55,1.35h0s0,0,0,.07a.74.74,0,0,0,0,.2c0,.12,0,.28.07.47a4.09,4.09,0,0,1,0,.63.05.05,0,0,1,0,0,.08.08,0,0,0,0,0,.15.15,0,0,1,0-.07c0-.07,0-.17,0-.29s-.07-.25-.11-.38a.92.92,0,0,1-.42.51l-.3.15.14,0a.91.91,0,0,1,.25.14,1.64,1.64,0,0,1,.24.27,1.36,1.36,0,0,1,.18.47,4.79,4.79,0,0,1-.52,1.46,4.35,4.35,0,0,1-.93,1.15,4.14,4.14,0,0,1-1.23.76,3.66,3.66,0,0,1-1.44.28,3.76,3.76,0,0,1-1.41-.27,4.11,4.11,0,0,1-1.2-.73,4.64,4.64,0,0,1-.91-1.1,4.39,4.39,0,0,1-.55-1.38.24.24,0,0,1,0-.08.51.51,0,0,0,0-.09c0-.13,0-.29-.07-.48a4.09,4.09,0,0,1,0-.63v0a.51.51,0,0,0,0,.13c0,.07,0,.17.06.28a3.06,3.06,0,0,0,.1.38.9.9,0,0,1,.42-.5l.32-.12-.15,0a1.14,1.14,0,0,1-.24-.15,1.87,1.87,0,0,1-.25-.29,1.37,1.37,0,0,1-.17-.45,4.89,4.89,0,0,1,.52-1.46,4.7,4.7,0,0,1,.92-1.15,4.09,4.09,0,0,1,1.23-.76,3.84,3.84,0,0,1,1.44-.27m-6.75,5.33a7.18,7.18,0,0,0,.72,2.52,7.32,7.32,0,0,0,1.48,2A6.78,6.78,0,0,0,97,148a6.32,6.32,0,0,0,2.49.49,6.49,6.49,0,0,0,2-.29,3.75,3.75,0,0,0,2.71,1.56l.36,0a4.19,4.19,0,0,0,1.21-.19,4,4,0,0,0,1.47-.82,1.75,1.75,0,0,1-.79.2l-.16,0a2.7,2.7,0,0,1-1-.3,3.22,3.22,0,0,1-.82-.67,4.23,4.23,0,0,1-.63-.93l-.41.22a3.18,3.18,0,0,1-.45.2,1.66,1.66,0,0,1-.31.12l-.32.08a5.5,5.5,0,0,0,.69-.3,3.34,3.34,0,0,0,.58-.36.2.2,0,0,1,.07-.06l.07,0a7,7,0,0,0,1.68-2.12,7.39,7.39,0,0,0,.8-2.68v-.41a3.25,3.25,0,0,0,0-.33c0-.1,0-.2,0-.29a.64.64,0,0,1,0,.17.53.53,0,0,0,0,.16,1.23,1.23,0,0,1,0,.25.66.66,0,0,0,0,.21,1.94,1.94,0,0,1,.23-.26,1.24,1.24,0,0,1,.24-.16.72.72,0,0,1,.24-.09,1.2,1.2,0,0,1-.31-.13c-.09-.06-.17-.14-.27-.22a1.18,1.18,0,0,1-.24-.37,7.36,7.36,0,0,0-2.19-4.59,6.9,6.9,0,0,0-2.08-1.37,6.2,6.2,0,0,0-2.49-.51,6.27,6.27,0,0,0-2.45.49A6.78,6.78,0,0,0,95,136a7.11,7.11,0,0,0-1.49,2,7.39,7.39,0,0,0-.75,2.47.17.17,0,0,1,0,.07s0,0,0,.08a2.11,2.11,0,0,0,0,.25.36.36,0,0,0,0,.11,2.54,2.54,0,0,0,0,.31,2.36,2.36,0,0,0,0,.28.64.64,0,0,1-.06-.18,1.36,1.36,0,0,0,0-.17,1.77,1.77,0,0,1,0-.2l0-.18a1,1,0,0,1-.24.28,1.38,1.38,0,0,1-.23.16l-.26.09a1.1,1.1,0,0,1,.31.12,2.91,2.91,0,0,1,.27.24,1.26,1.26,0,0,1,.26.39" transform="translate(0 -20.04)"/><path class="cls-2" d="M113.75,148.51h1.47a4.19,4.19,0,0,0,1.65-.33,4.13,4.13,0,0,0,1.34-.91,4.07,4.07,0,0,0,.91-1.35,4.2,4.2,0,0,0,.33-1.66v-1.59a1.61,1.61,0,0,1,.21-.69,1.38,1.38,0,0,1,.38-.41,1.07,1.07,0,0,1,.47-.22,1.38,1.38,0,0,1-.36-.15,1.74,1.74,0,0,1-.32-.26,1.32,1.32,0,0,1-.27-.44l-.11,1.07V135.7a2,2,0,0,1,.33-.77,2.16,2.16,0,0,1,.46-.45,1.56,1.56,0,0,1,.44-.23.89.89,0,0,1,.29-.07h-5.62a1,1,0,0,1,.28.07,1.6,1.6,0,0,1,.45.23,2,2,0,0,1,.46.46,2.35,2.35,0,0,1,.33.78v4.33a1.65,1.65,0,0,1-.22.67,1.48,1.48,0,0,1-.37.41,1.3,1.3,0,0,1-.48.22,1.34,1.34,0,0,1,.37.16,1.71,1.71,0,0,1,.31.26,1.33,1.33,0,0,1,.28.44l.11-1.06v3.11a1.64,1.64,0,0,1-1.65,1.65h-1.47a1.64,1.64,0,0,1-1.65-1.65v-3.11l.11,1.06a1,1,0,0,1,.27-.44,2.15,2.15,0,0,1,.32-.26,1.34,1.34,0,0,1,.37-.16,1.3,1.3,0,0,1-.48-.22,1.9,1.9,0,0,1-.38-.41,1.51,1.51,0,0,1-.21-.67v-4.33a2,2,0,0,1,.37-.84,2.25,2.25,0,0,1,.51-.48,2,2,0,0,1,.66-.24H108a2,2,0,0,1,.66.24,2.25,2.25,0,0,1,.51.48,1.92,1.92,0,0,1,.37.84v4.33a1.65,1.65,0,0,1-.22.67,1.63,1.63,0,0,1-.36.41,1.3,1.3,0,0,1-.48.22,1.66,1.66,0,0,1,.37.16,2.13,2.13,0,0,1,.31.26,1.18,1.18,0,0,1,.27.44l.11-1.06v3.11a4.2,4.2,0,0,0,.33,1.66,4.26,4.26,0,0,0,2.26,2.26,4.24,4.24,0,0,0,1.66.33" transform="translate(0 -20.04)"/><path class="cls-2" d="M124,141.14V147a2,2,0,0,1-.38.85,1.82,1.82,0,0,1-.51.47,1.51,1.51,0,0,1-.66.24h5.7a1.5,1.5,0,0,1-.68-.24,2,2,0,0,1-.52-.47,1.9,1.9,0,0,1-.36-.85v-4.3a1.37,1.37,0,0,1,.21-.69,1.5,1.5,0,0,1,.37-.41,1.16,1.16,0,0,1,.48-.22,1.6,1.6,0,0,1-.37-.15,2.82,2.82,0,0,1-.32-.26,1.05,1.05,0,0,1-.26-.44l-.11,1.07v-5.83a2,2,0,0,1,.36-.85,2.32,2.32,0,0,1,.52-.49,1.63,1.63,0,0,1,.68-.24h-5.7a1.65,1.65,0,0,1,.66.24,2.14,2.14,0,0,1,.89,1.34v4.31a1.51,1.51,0,0,1-.22.67,2.15,2.15,0,0,1-.36.41,1.3,1.3,0,0,1-.48.22,1.48,1.48,0,0,1,.37.16,1.71,1.71,0,0,1,.31.26,1.18,1.18,0,0,1,.27.44Z" transform="translate(0 -20.04)"/><path class="cls-2" d="M131.16,141.14V147a2,2,0,0,1-.39.85,1.82,1.82,0,0,1-.51.47,1.51,1.51,0,0,1-.66.24h10.65v-4.12a2,2,0,0,1-.24.64,2,2,0,0,1-1.28.9h-5v-3.28A1.61,1.61,0,0,1,134,142a1.38,1.38,0,0,1,.38-.41,1.12,1.12,0,0,1,.47-.22,1.38,1.38,0,0,1-.36-.15,2.15,2.15,0,0,1-.32-.26,1,1,0,0,1-.27-.44l-.11,1.07v-5.9a1.89,1.89,0,0,1,.37-.82,2.06,2.06,0,0,1,.51-.45,2,2,0,0,1,.66-.24H129.6a1.65,1.65,0,0,1,.66.24,2.2,2.2,0,0,1,.9,1.34v4.31a1.51,1.51,0,0,1-.23.67,1.63,1.63,0,0,1-.36.41,1.19,1.19,0,0,1-.47.22,1.42,1.42,0,0,1,.36.16,1.71,1.71,0,0,1,.31.26,1.19,1.19,0,0,1,.28.44Z" transform="translate(0 -20.04)"/><path class="cls-2" d="M150.14,143.31h-2.27l1.14-2.62Zm4.44,3.73-2-4.47-.22-.53-.22-.49.22.35a.54.54,0,0,1,.1-.23.93.93,0,0,1,.16-.18l.2-.14a1.64,1.64,0,0,1-.38-.1,1.3,1.3,0,0,1-.32-.15.81.81,0,0,1-.29-.29L149,134.16l-2.75,6.36-.11.24-.15.31-.2.48,0,0,.11-.51a1.75,1.75,0,0,1-.28.17,1.3,1.3,0,0,1-.25.1.74.74,0,0,1-.28.06,1.06,1.06,0,0,1,.26.2,1,1,0,0,1,.16.22.45.45,0,0,1,0,.2.43.43,0,0,1,0,.11L143.44,147a3.81,3.81,0,0,1-.47.77,3.34,3.34,0,0,1-.48.46,1.48,1.48,0,0,1-.4.22l-.23.07h5.72l-.34-.09a1.66,1.66,0,0,1-.52-.25,1.68,1.68,0,0,1-.43-.45.67.67,0,0,1-.11-.37,1.16,1.16,0,0,1,.06-.33l.49-1.15h4.53l.46,1.08a1.08,1.08,0,0,1,.09.4.58.58,0,0,1-.09.33,1.33,1.33,0,0,1-.43.48,2,2,0,0,1-.53.26l-.34.09h5.73a1.74,1.74,0,0,1-.55-.24,2.41,2.41,0,0,1-.51-.44,3,3,0,0,1-.51-.81" transform="translate(0 -20.04)"/><g class="cls-4"><path class="cls-5" d="M124.21,96.86A6.44,6.44,0,0,0,120,94l-.51-.08a26.78,26.78,0,0,0,7.83-3.48,6.81,6.81,0,0,0-.87,4.82,8.58,8.58,0,0,0,3.63,5.29l.56.32a49.37,49.37,0,0,1-2,4.75s-2.17-.4-3.89-.92a5.77,5.77,0,0,0,.51-1.45,8.82,8.82,0,0,0-1.05-6.39m-10.83,7.76a1.77,1.77,0,1,1,1.71-1.76,1.74,1.74,0,0,1-1.71,1.76m2.72-1.75s2.66,0,3.4-1.51a2.67,2.67,0,0,1-2.62,2.94s-.87,3.36-3.35,3.41-3.54-3-3.54-3l-.36-.07v-.06l-.32,0a3.24,3.24,0,0,1-2.43-3.53,4.31,4.31,0,0,0,3.63,2s.57,2.73,2.6,2.78a2.88,2.88,0,0,0,3-2.86m-14.61.38.19.64A47.75,47.75,0,0,1,97,105.81s-1.25-1.86-2.11-3.48a5.64,5.64,0,0,0,1.35-.66,8.64,8.64,0,0,0,3.64-5.28,6.81,6.81,0,0,0-1-5.12l-.31-.44a27.2,27.2,0,0,0,7.9,3.27,6.39,6.39,0,0,0-3.89,2.76,8.82,8.82,0,0,0-1.06,6.39m-20.1-3.59a7.93,7.93,0,0,1-1.33-1.8l.32-.08h-.2l-.14,0a7.65,7.65,0,0,1-.9-3.6A8.49,8.49,0,0,1,80,90.56a7.44,7.44,0,0,1-.57-2.81,5.42,5.42,0,0,1,.8-2.87,7,7,0,0,1,5.61-3.44,5.56,5.56,0,0,1,3.15,1,5.29,5.29,0,0,1,2.57,4.27l-.12,1a2.8,2.8,0,0,1-.75,1.53,2.65,2.65,0,0,1-3.82,0,2.83,2.83,0,0,1-.79-2A2.79,2.79,0,0,1,86.38,86l.34-.53.16-.18.09-.08a2.41,2.41,0,0,0-1.2-.36L85.1,85a4.42,4.42,0,0,0-2.8,3.92,4,4,0,0,0,.86,2.38,7.17,7.17,0,0,0-.75,3l0,.46a5,5,0,0,0,1.28,2.55,4.68,4.68,0,0,0,2.47,1.31l.44,0a6.59,6.59,0,0,0,2.9-.77,3.65,3.65,0,0,0,2.31.88,4.32,4.32,0,0,0,3.8-2.88l.12-.69V95l-.1.11-.05,0,.14-.12a2.59,2.59,0,0,0-.33-1l-.08.09a2.62,2.62,0,0,1-1.9.82A2.68,2.68,0,0,1,91.51,94a2.85,2.85,0,0,1,0-3.94A2.63,2.63,0,0,1,93,89.29l.92-.13a5.1,5.1,0,0,1,4.15,2.66,5.88,5.88,0,0,1,1,3.23,7.31,7.31,0,0,1-3.33,5.8,5,5,0,0,1-2.8.82,6.89,6.89,0,0,1-2.71-.58,7.86,7.86,0,0,1-3.56.89,7.27,7.27,0,0,1-5.27-2.32m4.18-67.81a7.75,7.75,0,0,1,3.56.9,6.81,6.81,0,0,1,2.72-.59,4.93,4.93,0,0,1,2.79.82A7.31,7.31,0,0,1,98,38.78,5.91,5.91,0,0,1,97,42a5.07,5.07,0,0,1-4.14,2.66l-.93-.13a2.66,2.66,0,0,1-1.48-.77,2.85,2.85,0,0,1,0-3.94A2.66,2.66,0,0,1,92.34,39a2.61,2.61,0,0,1,1.21.3l.52.35.17.16.08.1.2-.45.13-.59v-.2L94.55,38a4.35,4.35,0,0,0-3.8-2.89,3.63,3.63,0,0,0-2.31.89,6.71,6.71,0,0,0-2.91-.77l-.43,0a4.77,4.77,0,0,0-2.48,1.32,5,5,0,0,0-1.28,2.55l0,.46a7.17,7.17,0,0,0,.75,3,3.89,3.89,0,0,0-.86,2.37A4.47,4.47,0,0,0,84,48.86l.67.11h.15l-.1-.09,0-.06.11.14a2.52,2.52,0,0,0,1-.34l-.09-.08a2.79,2.79,0,0,1-.79-2,2.83,2.83,0,0,1,.79-2,2.64,2.64,0,0,1,1.91-.82,2.67,2.67,0,0,1,1.91.81,2.78,2.78,0,0,1,.75,1.52l.12,1a5.29,5.29,0,0,1-2.57,4.27,5.56,5.56,0,0,1-3.15,1A7.06,7.06,0,0,1,79.15,49a5.37,5.37,0,0,1-.79-2.88,7.24,7.24,0,0,1,.56-2.8,8.53,8.53,0,0,1-.87-3.67,8.16,8.16,0,0,1,3-6.11l.22.87v-.94l0-.09a7.17,7.17,0,0,1,4.35-1.49m15.43,4a6.49,6.49,0,0,0,4.24,2.87l.58.06a27,27,0,0,0-7.9,3.5,6.78,6.78,0,0,0,.88-4.83,8.64,8.64,0,0,0-3.63-5.28l-.57-.32c.57-1.53,1.45-3.79,2-4.76,0,0,2.17.41,3.89.93a5.77,5.77,0,0,0-.51,1.45,8.79,8.79,0,0,0,1,6.38m-15.74,3a3,3,0,0,0-.17,4.2S83.18,45,83.73,46.62a2.71,2.71,0,0,1-.16-4s-1.69-3,0-4.86,4.58-.43,4.58-.43a2.13,2.13,0,0,1,.31-.22l0,0,.23-.18a3.11,3.11,0,0,1,4.16.71A4.24,4.24,0,0,0,89,38.93s-2.28-1.5-3.74-.06m3.48,2.23a1.74,1.74,0,0,1-.5,1.25,1.68,1.68,0,0,1-2.43,0,1.79,1.79,0,0,1-.5-1.25,1.82,1.82,0,0,1,.5-1.25,1.68,1.68,0,0,1,2.43,0,1.78,1.78,0,0,1,.5,1.25M78.35,49.49a8.08,8.08,0,0,0,6.41,3.88,6.47,6.47,0,0,0,3.68-1.19l.45-.36A28.49,28.49,0,0,0,85.7,60a6.91,6.91,0,0,0-7.07-5.3,9,9,0,0,0-1.81.19l-.62.19a51.39,51.39,0,0,1-1.86-4.8s1.81-1.3,3.38-2.18a6.11,6.11,0,0,0,.63,1.39M85.79,74l.07-.57a28.74,28.74,0,0,0,3.38,8.1,6.37,6.37,0,0,0-3.39-1,8.06,8.06,0,0,0-6.41,3.89l-.3.59a49.07,49.07,0,0,1-4.62-2s.39-2.24.9-4a5.41,5.41,0,0,0,1.4.52,8.43,8.43,0,0,0,1.81.19c2.93,0,6.36-1.48,7.16-5.64M84.27,91.23l0,0-.19-.25a3.35,3.35,0,0,1,.7-4.28,4.58,4.58,0,0,0,1.21,4s-1.46,2.36-.06,3.86a2.78,2.78,0,0,0,4.08.17s1.85,2,3.44,1.41a2.54,2.54,0,0,1-3.86.17s-2.93,1.74-4.71,0-.43-4.72-.43-4.72-.08-.11-.2-.31m2.13,1.5a1.77,1.77,0,0,1,.51-1.25A1.65,1.65,0,0,1,88.12,91a1.68,1.68,0,0,1,1.21.52,1.81,1.81,0,0,1,0,2.5,1.68,1.68,0,0,1-2.43,0,1.82,1.82,0,0,1-.5-1.25m-.5-26.38c0-15.18,12-27.53,26.71-27.53s26.7,12.35,26.7,27.53-12,27.54-26.7,27.54S85.9,81.54,85.9,66.35m25.94-38.27a1.77,1.77,0,1,1-1.72,1.77,1.74,1.74,0,0,1,1.72-1.77m-2.72,1.75s-2.67,0-3.4,1.52a2.66,2.66,0,0,1,2.62-2.94s.87-3.36,3.35-3.41,3.54,3,3.54,3l.36.07v0l.3,0a3.27,3.27,0,0,1,2.45,3.54,4.33,4.33,0,0,0-3.63-2s-.58-2.73-2.6-2.77a2.88,2.88,0,0,0-3,2.85m14.6-.37-.18-.64a45.31,45.31,0,0,1,4.66-1.92s1.25,1.85,2.11,3.48A5.29,5.29,0,0,0,129,31a8.56,8.56,0,0,0-3.63,5.28,6.82,6.82,0,0,0,1,5.12l.31.44a26.55,26.55,0,0,0-7.9-3.27,6.42,6.42,0,0,0,3.9-2.77,8.79,8.79,0,0,0,1-6.38m22.92,14.37c5.66,1.62,8.17,3.76,8.17,3.76a22.62,22.62,0,0,1-2.19,9.07,7.93,7.93,0,0,0-1.83-2.19A28.67,28.67,0,0,0,152,49.3a30.43,30.43,0,0,0-5.61-2.38,7.12,7.12,0,0,0,.22-3.09m4.05,6s-.38,2.24-.89,4a6.06,6.06,0,0,0-1.41-.53,9,9,0,0,0-1.81-.19c-2.93,0-6.35,1.48-7.16,5.65l-.07.56A28.78,28.78,0,0,0,136,51.23a6.41,6.41,0,0,0,3.38,1,8,8,0,0,0,6.41-3.88l.31-.59a48.77,48.77,0,0,1,4.61,2M139.52,72.71a6.9,6.9,0,0,0,7.07,5.3,8.94,8.94,0,0,0,1.8-.19l.62-.2a48.81,48.81,0,0,1,1.86,4.81s-1.8,1.3-3.38,2.18a6,6,0,0,0-.63-1.4,8.08,8.08,0,0,0-6.41-3.88,6.41,6.41,0,0,0-3.68,1.2l-.44.36a28.78,28.78,0,0,0,3.19-8.18m8.23,13.08A26.2,26.2,0,0,0,152.17,83a32.52,32.52,0,0,0-2.32-5.77,6.85,6.85,0,0,0,2.27-2c2.89,5.28,3.19,8.62,3.19,8.62a21.38,21.38,0,0,1-7.76,4.82,7.89,7.89,0,0,0,.2-2.89M152.25,73s-1.12,3.22-4.06,3.85a7.62,7.62,0,0,1-1.6.17c-2.65,0-5.55-1.33-6.24-4.86l-.14-1.44a4.49,4.49,0,0,1,2-4,2.63,2.63,0,0,1,1.57-.53,2.79,2.79,0,0,1,0,5.57h-.11l.16.48.31.5a2,2,0,0,0,.69.55,4.11,4.11,0,0,0,1.8.39,3.71,3.71,0,0,0,3.89-3.43,6.43,6.43,0,0,0,2.87-1.9,4.84,4.84,0,0,0,0-5.48,6.42,6.42,0,0,0-2.86-1.9,3.73,3.73,0,0,0-3.9-3.44,4.11,4.11,0,0,0-1.8.4l-.65.5h.09l0,.08-.15,0a2.62,2.62,0,0,0-.47,1h.11l.77.11.08,0a2.78,2.78,0,0,1,1.85,2.64,2.75,2.75,0,0,1-2.7,2.79,2.63,2.63,0,0,1-1.57-.53,4.5,4.5,0,0,1-2-4l.15-1.44c.68-3.52,3.58-4.85,6.22-4.85a7.64,7.64,0,0,1,1.61.17c2.95.63,4.06,3.84,4.06,3.84a7.62,7.62,0,0,1,5.27,7.32v.26a8.08,8.08,0,0,1-.14,1.45l0,0,0,0A7.56,7.56,0,0,1,152.25,73M148,62.75s0-2.74-1.47-3.5a2.61,2.61,0,0,1,2.85,2.7s3.26.9,3.3,3.46-2.94,3.65-2.94,3.65a2.66,2.66,0,0,1-.06.36l-.05,0,0,.33a3.18,3.18,0,0,1-3.42,2.5,4.46,4.46,0,0,0,1.91-3.74s2.65-.6,2.7-2.68a2.91,2.91,0,0,0-2.77-3.1m0,1a1.77,1.77,0,1,1-1.71,1.77A1.74,1.74,0,0,1,148,63.79m-4.19-30.74a7.87,7.87,0,0,1,1.48,2.08h-.23l-.42.11h.7a7.43,7.43,0,0,1,.72,3.25,8.49,8.49,0,0,1-.87,3.66,7.42,7.42,0,0,1,.57,2.8,5.26,5.26,0,0,1-.8,2.88,7,7,0,0,1-5.61,3.43,5.48,5.48,0,0,1-3.15-1A5.29,5.29,0,0,1,133.64,46l.13-1a2.66,2.66,0,0,1,4.56-1.52,2.83,2.83,0,0,1,.79,2,2.86,2.86,0,0,1-.78,2l-.1.07.44.21.57.14h.19l.67-.12a4.42,4.42,0,0,0,2.8-3.93,3.92,3.92,0,0,0-.85-2.37,7.13,7.13,0,0,0,.74-3l0-.46a4.92,4.92,0,0,0-1.28-2.55A4.71,4.71,0,0,0,139,34.12l-.44,0a6.65,6.65,0,0,0-2.9.76,3.69,3.69,0,0,0-2.31-.88,4.32,4.32,0,0,0-3.8,2.89l-.12.68v.14l.05-.06.06,0-.11.09a2.71,2.71,0,0,0,.34,1l.07-.1.62-.47.07,0a2.73,2.73,0,0,1,1.21-.29,2.64,2.64,0,0,1,1.92.82,2.85,2.85,0,0,1,0,3.94,2.73,2.73,0,0,1-1.47.77l-.93.13a5.1,5.1,0,0,1-4.15-2.66,5.91,5.91,0,0,1-1-3.23,7.3,7.3,0,0,1,3.33-5.8,5,5,0,0,1,2.8-.82,6.89,6.89,0,0,1,2.71.58,7.88,7.88,0,0,1,3.56-.9,7.26,7.26,0,0,1,5.27,2.33m-2.88,8.43,0,0,.19.26a3.34,3.34,0,0,1-.7,4.28A4.57,4.57,0,0,0,139.2,42s1.46-2.35.07-3.86a2.8,2.8,0,0,0-4.09-.17s-1.85-2-3.44-1.4a2.55,2.55,0,0,1,3.87-.17s2.92-1.74,4.71,0,.42,4.73.42,4.73a2.23,2.23,0,0,1,.2.31M138.81,40a1.82,1.82,0,0,1-.5,1.25,1.7,1.7,0,0,1-2.43,0,1.81,1.81,0,0,1,0-2.5,1.69,1.69,0,0,1,1.22-.52,1.67,1.67,0,0,1,1.21.52,1.8,1.8,0,0,1,.5,1.25m-8.24,59.74a7.32,7.32,0,0,1-3.33-5.8,5.93,5.93,0,0,1,1-3.23A5.07,5.07,0,0,1,132.38,88l.94.13a2.61,2.61,0,0,1,1.47.77,2.79,2.79,0,0,1,.79,2,2.83,2.83,0,0,1-.79,2,2.66,2.66,0,0,1-3.82,0l-.07-.09a2.51,2.51,0,0,0-.35,1.24l.12.68a4.32,4.32,0,0,0,3.8,2.89,3.71,3.71,0,0,0,2.31-.88,6.65,6.65,0,0,0,2.9.76h.44a4.71,4.71,0,0,0,2.47-1.32,5,5,0,0,0,1.28-2.56l0-.45a7.15,7.15,0,0,0-.74-3,3.92,3.92,0,0,0,.85-2.37,4.42,4.42,0,0,0-2.8-3.93l-.67-.12h-.15l.11.09,0,.06-.11-.15a2.59,2.59,0,0,0-1,.35l.09.07.47.65,0,.07a2.88,2.88,0,0,1-.51,3.22,2.68,2.68,0,0,1-1.91.82,2.64,2.64,0,0,1-1.91-.82,2.69,2.69,0,0,1-.74-1.52l-.13-1a5.3,5.3,0,0,1,2.57-4.27,5.48,5.48,0,0,1,3.15-1,7,7,0,0,1,5.61,3.44,5.22,5.22,0,0,1,.8,2.87,7.35,7.35,0,0,1-.57,2.8,8.53,8.53,0,0,1,.87,3.67,7.71,7.71,0,0,1-2.25,5.44,7.53,7.53,0,0,1-.94.83l-.19-.72v.86a7.17,7.17,0,0,1-4.15,1.35,7.88,7.88,0,0,1-3.56-.9,6.81,6.81,0,0,1-2.72.59,4.86,4.86,0,0,1-2.79-.83M140,93.84a3,3,0,0,0,.16-4.21s1.92-1.91,1.37-3.55a2.73,2.73,0,0,1,.16,4s1.69,3,0,4.86-4.59.43-4.59.43a3.31,3.31,0,0,1-.3.21l0,0-.25.2a3.12,3.12,0,0,1-4.15-.73,4.24,4.24,0,0,0,3.92-1.25s2.29,1.51,3.75.07m-3.49-2.24a1.82,1.82,0,0,1,.5-1.25,1.68,1.68,0,0,1,2.43,0,1.83,1.83,0,0,1,0,2.51,1.71,1.71,0,0,1-1.21.51,1.69,1.69,0,0,1-1.22-.52,1.79,1.79,0,0,1-.5-1.25m-6.89-69.28a22.22,22.22,0,0,1,4.68,8,7.43,7.43,0,0,0-2-.28l-.82.06a27.42,27.42,0,0,0-2.68-4.55,30.25,30.25,0,0,0-5.59,2.4,6.73,6.73,0,0,0-2-2.34c5.11-3,8.35-3.3,8.35-3.3M111.72,20H112a7.33,7.33,0,0,1,2,.28v0l-.79,1.34.37-.38.56-.94a7.54,7.54,0,0,1,5,5.11,6.24,6.24,0,0,1,3.73,4.19L123,31.3c0,2.74-1.29,5.74-4.71,6.44l-1.39.15a4.31,4.31,0,0,1-3.93-2.06,2.83,2.83,0,0,1-.51-1.62,2.69,2.69,0,0,1,5.27-.88l.12.63v.37l.46-.18.49-.31a2,2,0,0,0,.54-.71,4.46,4.46,0,0,0,.38-1.85,3.76,3.76,0,0,0-3.33-4,6.88,6.88,0,0,0-1.85-3,4.45,4.45,0,0,0-5.31,0,6.88,6.88,0,0,0-1.85,3,3.76,3.76,0,0,0-3.33,4,4.46,4.46,0,0,0,.38,1.85,2.16,2.16,0,0,0,.52.69v-.18H105l0,.21a2.54,2.54,0,0,0,1,.49v-.12l.11-.8,0-.08a2.69,2.69,0,0,1,5.27.88,2.83,2.83,0,0,1-.51,1.62,4.29,4.29,0,0,1-3.92,2.06l-1.4-.15c-3.42-.7-4.72-3.7-4.71-6.44l.16-1.64a6.27,6.27,0,0,1,3.73-4.19A7.43,7.43,0,0,1,111.72,20m-17.31,2.8a20.76,20.76,0,0,1,8.8,2.26A7.45,7.45,0,0,0,101.08,27a26.49,26.49,0,0,0-5-1.27,32.57,32.57,0,0,0-2.31,5.77,6,6,0,0,0-1.91-.3l-1.09.09c1.57-5.85,3.65-8.43,3.65-8.43M77.67,44a8.09,8.09,0,0,0-.21,2.89A26.43,26.43,0,0,0,73,49.67a32.3,32.3,0,0,0,2.32,5.78,6.73,6.73,0,0,0-2.27,2c-2.89-5.28-3.19-8.62-3.19-8.62A21.27,21.27,0,0,1,77.67,44m-10,23.24V67A7.61,7.61,0,0,1,73,59.7s1.12-3.21,4.06-3.85a7.65,7.65,0,0,1,1.61-.16c2.64,0,5.54,1.33,6.23,4.85L85,62a4.48,4.48,0,0,1-2,4,2.55,2.55,0,0,1-1.57.54,2.75,2.75,0,0,1-2.7-2.79,2.8,2.8,0,0,1,1.85-2.65L81.2,61h.23l.11,0a2.21,2.21,0,0,0-1.15-1.53,4.16,4.16,0,0,0-1.81-.4,3.72,3.72,0,0,0-3.89,3.43,6.49,6.49,0,0,0-2.87,1.91A5,5,0,0,0,71,67.15a5,5,0,0,0,.85,2.73,6.49,6.49,0,0,0,2.87,1.91,3.71,3.71,0,0,0,3.89,3.43,4.15,4.15,0,0,0,1.81-.39l.66-.53h-.18v-.06l.21,0a2.62,2.62,0,0,0,.47-1h-.11a2.79,2.79,0,0,1,0-5.57,2.6,2.6,0,0,1,1.57.53,4.48,4.48,0,0,1,2,4l-.14,1.44a6,6,0,0,1-6.23,4.86A7.64,7.64,0,0,1,77,78.44C74.08,77.81,73,74.59,73,74.59a7.59,7.59,0,0,1-5.26-7.32M77.19,70s0,2.75,1.47,3.51a2.61,2.61,0,0,1-2.85-2.7s-3.26-.9-3.31-3.46,2.94-3.65,2.94-3.65,0-.14.07-.37h0l0-.31A3.19,3.19,0,0,1,79,60.43a4.51,4.51,0,0,0-1.92,3.74s-2.65.6-2.69,2.69A2.88,2.88,0,0,0,77.19,70m0-1a1.77,1.77,0,1,1,1.72-1.77,1.75,1.75,0,0,1-1.72,1.77M70.4,85.11A22.62,22.62,0,0,1,72.59,76a7.81,7.81,0,0,0,1.83,2.2,28.09,28.09,0,0,0-1.23,5.17,30.32,30.32,0,0,0,5.6,2.38,7.1,7.1,0,0,0-.21,3.09c-5.67-1.63-8.18-3.77-8.18-3.77m25.23,25.28a22,22,0,0,1-4.67-8,7.74,7.74,0,0,0,2,.27l.83-.05a26.93,26.93,0,0,0,2.67,4.55,30.73,30.73,0,0,0,5.6-2.4,6.82,6.82,0,0,0,2,2.34c-5.12,3-8.36,3.3-8.36,3.3m17.86,2.27h-.23a7.22,7.22,0,0,1-2.21-.35l.7-.7.15-.26-.93.94a7.58,7.58,0,0,1-4.82-5.06,6.24,6.24,0,0,1-3.73-4.18l-.16-1.65c0-2.73,1.29-5.73,4.71-6.44a7,7,0,0,1,1.39-.15,4.31,4.31,0,0,1,3.93,2.07,2.82,2.82,0,0,1,.52,1.62,2.71,2.71,0,1,1-5.41,0v-.12a2.22,2.22,0,0,0-1.48,1.19,4.67,4.67,0,0,0-.39,1.86,3.78,3.78,0,0,0,3.34,4,6.81,6.81,0,0,0,1.84,3,4.49,4.49,0,0,0,5.31,0,6.77,6.77,0,0,0,1.85-3,3.78,3.78,0,0,0,3.33-4,4.5,4.5,0,0,0-.38-1.86l-.49-.66V99l-.06,0v-.15a2.4,2.4,0,0,0-1-.49l0,.12a2.75,2.75,0,0,1-2.71,2.78h0A2.75,2.75,0,0,1,114,98.5a2.82,2.82,0,0,1,.52-1.62,4.29,4.29,0,0,1,3.92-2.07l1.39.15c3.43.71,4.72,3.71,4.71,6.44l-.16,1.65a6.22,6.22,0,0,1-3.73,4.18,7.43,7.43,0,0,1-7.11,5.43m17.31-2.79a20.8,20.8,0,0,1-8.8-2.26,7.5,7.5,0,0,0,2.13-1.89,26,26,0,0,0,5,1.28,33.35,33.35,0,0,0,2.31-5.77,6.25,6.25,0,0,0,1.9.3l1.09-.09c-1.57,5.84-3.65,8.43-3.65,8.43M113.08,87a2.73,2.73,0,0,1,2.33,1,1.55,1.55,0,0,1-.54,2.49c-.79.52-2.41.7-2.53-1.22a3,3,0,0,1,.74-2.25m-1.51,2.48c-.87,1.15-1.8.71-2.47,0s-1.22-2.26.57-2.83a2.71,2.71,0,0,1,2.28.22,3,3,0,0,1-.38,2.57M108.25,84c.29-.92,1.43-2.13,2.71-.73a2.92,2.92,0,0,1,.82,2.22,2.75,2.75,0,0,1-2.39.78c-1.39-.3-1.42-1.35-1.14-2.27m-.91-7s1.8-2.14,5.93-2.06c3.65.07,4.46,2.48,2.55,3.76s-7.26.84-8.48-1.7m-6.91,10s-.83-3.18,2-6.8c2.52-3.19,5.35-2.1,5.29.55s-4.07,7.08-7.31,6.25M99.24,78.4a2.88,2.88,0,0,1-1.33-1.93A2.76,2.76,0,0,1,100,75.09c1.42-.07,1.71.93,1.66,1.9s-.86,2.43-2.45,1.41m-1.67,2.87c-.92.18-2.49-.29-1.9-2.12a2.87,2.87,0,0,1,1.51-1.79A2.83,2.83,0,0,1,99,79.18c.4,1.4-.49,1.92-1.41,2.09m-4.89-2.54c-.56-.77-.85-2.43,1-2.69a2.77,2.77,0,0,1,2.23.6,2.93,2.93,0,0,1-.78,2.47c-1,1-1.89.4-2.45-.38m3.6-3.37a2.72,2.72,0,0,1-2.5.25c-1.3-.6-1.11-1.63-.65-2.47S95,71.36,95.93,73a3,3,0,0,1,.35,2.34m-7.07-8.48s2.06-2.53,6.57-2.2c4,.3,4.74,3.32,2.59,4.79s-8,.62-9.16-2.59m3-11.15c.29-.92,1.43-2.12,2.71-.71a2.94,2.94,0,0,1,.81,2.22,2.72,2.72,0,0,1-2.4.77c-1.39-.31-1.41-1.36-1.12-2.28m3.15,5.42c-.83,1.19-1.78.79-2.48.15s-1.32-2.2.45-2.85a2.72,2.72,0,0,1,2.29.12,3,3,0,0,1-.26,2.58m.44-6.6C96,53.11,97,53,97.93,53.27s2.15,1.35.86,2.74a2.78,2.78,0,0,1-2.1,1,2.9,2.9,0,0,1-.89-2.43m2.38,8.2c-.87.36-2.5.24-2.29-1.68A2.92,2.92,0,0,1,97,59a2.74,2.74,0,0,1,2.13,1.39,1.55,1.55,0,0,1-1,2.35m1.33,12.06a2.72,2.72,0,0,1-2.24.5,2.92,2.92,0,0,1-.39-2.56c.5-1.37,1.51-1.24,2.35-.81s1.82,1.78.28,2.87m1.83-17.13c.15,1-.34,2.56-2.1,1.9a2.87,2.87,0,0,1-1.7-1.6,2.85,2.85,0,0,1,1.81-1.81c1.37-.37,1.85.56,2,1.51M99.72,47.13c3.2-.81,7.16,3.58,7.22,6.18s-2.74,3.69-5.22.54c-2.82-3.57-2-6.72-2-6.72m9.71-.24A2.9,2.9,0,0,1,111,48.62a2.79,2.79,0,0,1-1.92,1.67c-1.39.27-1.81-.69-1.89-1.66s.52-2.52,2.24-1.74m2.11-2.81c.93-.14,2.48.38,1.82,2.19A2.87,2.87,0,0,1,111.79,48a2.8,2.8,0,0,1-1.73-1.88c-.35-1.42.55-1.91,1.48-2m2.4,2.11c1.13-.89,1.92-.23,2.41.6s.64,2.5-1.23,2.59a2.76,2.76,0,0,1-2.16-.8,2.9,2.9,0,0,1,1-2.39m10.12.94s.82,3.15-2,6.72c-2.48,3.15-5.28,2.08-5.23-.54s4-7,7.23-6.18m2,9.95a2.82,2.82,0,0,1-1.92,1.67c-1.4.27-1.81-.69-1.89-1.65s.52-2.53,2.23-1.74a2.86,2.86,0,0,1,1.58,1.72m.54-4.54c.93-.14,2.48.39,1.82,2.19a2.83,2.83,0,0,1-1.57,1.73,2.8,2.8,0,0,1-1.73-1.88c-.35-1.42.55-1.9,1.48-2m2.4,2.12c1.12-.89,1.92-.23,2.41.59s.64,2.5-1.23,2.59A2.77,2.77,0,0,1,128,57a2.91,2.91,0,0,1,1-2.38m-1.09,3.54a2.71,2.71,0,0,1,2.48.43c1.1.93.66,1.87,0,2.56s-2.22,1.22-2.73-.64a2.93,2.93,0,0,1,.25-2.35m7.25,8.17c-1.2,3.22-7,4-9.16,2.59s-1.37-4.49,2.6-4.78c4.51-.34,6.56,2.19,6.56,2.19m-4.69,9.95a2.74,2.74,0,0,1-2.19-.71,2.89,2.89,0,0,1,.88-2.42c1.09-1,1.91-.32,2.43.48s.75,2.47-1.12,2.65m.86,3c-.51.82-1.9,1.69-2.8,0a3,3,0,0,1-.25-2.35,2.69,2.69,0,0,1,2.51-.13c1.27.65,1,1.68.54,2.49m-3.4.53c-.32,1.43-1.34,1.44-2.23,1.12s-2-1.52-.64-2.81a2.73,2.73,0,0,1,2.17-.79,2.88,2.88,0,0,1,.7,2.48m-3.61,7.08c-3.25.83-7.26-3.61-7.32-6.25s2.78-3.74,5.3-.55c2.85,3.61,2,6.8,2,6.8m-9.07-19.19a2.46,2.46,0,1,1-2.39,2.46,2.42,2.42,0,0,1,2.39-2.46m2.39-3.13a2.39,2.39,0,1,1-2.39-2.46,2.42,2.42,0,0,1,2.39,2.46m5.71,2.48s-2.72-.32-5-3.89c-2-3.14-.53-5.19,1.58-4.29s4.77,5.71,3.41,8.18m1-7.92a2.77,2.77,0,0,1,2.16-.81,2.9,2.9,0,0,1,.72,2.48c-.31,1.43-1.33,1.45-2.22,1.14s-2-1.51-.66-2.81m.8,14.94a1.55,1.55,0,0,1,.61-2.47c.81-.49,2.44-.63,2.5,1.3a3,3,0,0,1-.81,2.22,2.72,2.72,0,0,1-2.3-1.05m-7.26,2.08s-.64-2.75,1.85-6.17c2.18-3,4.55-2.27,4.44.08s-3.58,6.57-6.29,6.09m7-1.75a2.85,2.85,0,0,1,1.65,1.65,2.82,2.82,0,0,1-1.85,1.75c-1.38.33-1.84-.6-2-1.56s.42-2.55,2.16-1.84m-12-24.69a2.68,2.68,0,0,1,2.48.43,1.56,1.56,0,0,1,0,2.55c-.67.69-2.21,1.23-2.73-.63a2.93,2.93,0,0,1,.25-2.35m-3.61,1a2.73,2.73,0,0,1,2.16-.81,2.88,2.88,0,0,1,.72,2.48c-.31,1.43-1.33,1.44-2.22,1.13s-2-1.5-.66-2.8m2.53,8.77c-3.65-.17-4.39-2.6-2.45-3.83s7.28-.65,8.42,1.94c0,0-1.84,2.08-6,1.89m-1.93,7.59a2.46,2.46,0,1,1,2.39-2.46,2.42,2.42,0,0,1-2.39,2.46m-2.39,3.13a2.39,2.39,0,1,1,2.39,2.46,2.42,2.42,0,0,1-2.39-2.46m-6.38-5.57c-.13-2.32,2.91-6.9,5.66-6.72,0,0,.9,2.67-1.23,6.33-1.88,3.22-4.31,2.74-4.43.39m.33,3.56s2.74.12,5.25,3.52c2.2,3,.87,5.14-1.29,4.39s-5.15-5.35-4-7.91M113,85a2.81,2.81,0,0,1-1.65-2c-.28-1.44.64-1.88,1.57-2s2.46.5,1.72,2.28A2.8,2.8,0,0,1,113,85m2.32,2.4a2.87,2.87,0,0,1-1.71-1.6A2.8,2.8,0,0,1,115.41,84c1.38-.38,1.86.54,2,1.5s-.33,2.56-2.09,1.91m14.28-3.54a25,25,0,0,0,7-17.53c0-13.68-10.79-24.8-24-24.8S88.55,52.68,88.55,66.35s10.79,24.81,24.06,24.81a23.51,23.51,0,0,0,17-7.28" transform="translate(0 -20.04)"/></g><g class="cls-6"><path class="cls-7" d="M127.3,90.28l0,0-.16.29c0-.09.09-.18.14-.27m-3.06,6.4A6.44,6.44,0,0,0,120,93.82l-.51-.08.68-.19a6.46,6.46,0,0,1,4.21,2.86,8.84,8.84,0,0,1,1.05,6.38,6,6,0,0,1-.51,1.45c1.72.53,3.89.93,3.89.93l0-.07c-.06.13-.12.24-.17.34s-2.17-.4-3.89-.92a5.77,5.77,0,0,0,.51-1.45,8.82,8.82,0,0,0-1.05-6.39m-10.83,7.76a1.74,1.74,0,0,1-1.72-1.76,1.79,1.79,0,0,1,.27-1,1.82,1.82,0,0,0-.13.67,1.74,1.74,0,0,0,1.71,1.77,1.71,1.71,0,0,0,1.45-.81,1.71,1.71,0,0,1-1.58,1.08m3.09.74a3.59,3.59,0,0,1-3,2.35c-2.48,0-3.54-3-3.54-3a2.42,2.42,0,0,1-.35-.06l0-.06-.31,0a3.26,3.26,0,0,1-2.44-3.53l.13.19a3.25,3.25,0,0,0,2.45,3.07l.31,0v.05l.36.07s1.06,3.08,3.54,3a3.41,3.41,0,0,0,2.81-2.07m2.78-2.58a2.56,2.56,0,0,1-2.32,1.51l.09-.27a2.63,2.63,0,0,0,2.23-1.24m-3.15.09h.12a3,3,0,0,1-.38,1.15,2.86,2.86,0,0,0,.26-1.15M106,93.82l.43.1a6.4,6.4,0,0,0-3.9,2.76,5.5,5.5,0,0,0-.28.48q.19-.39.42-.75A6.35,6.35,0,0,1,106,93.82M99.3,98a8.15,8.15,0,0,0,.62-1.82,6.81,6.81,0,0,0-1-5.12l-.31-.44.56.33a6.81,6.81,0,0,1,.92,5A7.76,7.76,0,0,1,99.3,98m2.35,5.49,0,.19A46.68,46.68,0,0,1,97,105.63s-1.25-1.86-2.11-3.48l.24-.09c.85,1.58,2,3.3,2,3.3a45.28,45.28,0,0,0,4.47-1.84M95.53,96a2.37,2.37,0,0,0,.13-.34l.12-.69v-.16l-.1.11-.05,0,.14-.11a2.59,2.59,0,0,0-.33-1l-.08.09a2.62,2.62,0,0,1-1.91.82,2.72,2.72,0,0,1-1.91-.82,2.86,2.86,0,0,1-.41-3.4,2.9,2.9,0,0,0-.24,1.16,2.83,2.83,0,0,0,.79,2,2.66,2.66,0,0,0,3.82,0l.07-.09a2.46,2.46,0,0,1,.34,1l-.14.11,0,0,.09-.11v.16l-.12.69a4.06,4.06,0,0,1-.27.61M86.91,85a2.24,2.24,0,0,0-1.11-.32l-.67.12a4.55,4.55,0,0,0-2.29,2,4.56,4.56,0,0,1,2.43-2.31l.66-.12a2.41,2.41,0,0,1,1.21.36l-.1.08Zm4.36,3.26a2.82,2.82,0,0,1-.54.8,2.67,2.67,0,0,1-1.91.81A2.64,2.64,0,0,1,86.91,89a2.85,2.85,0,0,1-.5-3.22l0-.09a3.07,3.07,0,0,0-.2,1.07,2.81,2.81,0,0,0,.79,2,2.64,2.64,0,0,0,1.91.82,2.67,2.67,0,0,0,1.91-.81,3,3,0,0,0,.4-.53M81.42,99.48A7.71,7.71,0,0,1,79.17,94,8.46,8.46,0,0,1,80,90.38a7.5,7.5,0,0,1-.57-2.81,5.34,5.34,0,0,1,.64-2.6,5.45,5.45,0,0,0-.5,2.33,7.42,7.42,0,0,0,.57,2.8,8.53,8.53,0,0,0-.87,3.67,7.67,7.67,0,0,0,2.25,5.43,7.26,7.26,0,0,0,5.27,2.33,7.88,7.88,0,0,0,3.56-.9,6.89,6.89,0,0,0,2.71.58,4.9,4.9,0,0,0,2.8-.82,8.17,8.17,0,0,0,2.56-2.83,8.13,8.13,0,0,1-2.7,3.11,5,5,0,0,1-2.8.82,6.89,6.89,0,0,1-2.71-.58,7.86,7.86,0,0,1-3.56.89,7.27,7.27,0,0,1-5.27-2.32m8.66-50.72a6,6,0,0,1-2.14,2.41,5.5,5.5,0,0,1-3.15,1,7,7,0,0,1-5.61-3.44,5.32,5.32,0,0,1-.79-2.87A7.24,7.24,0,0,1,79,43.1a8.53,8.53,0,0,1-.87-3.67,7.57,7.57,0,0,1,.9-3.61,7.56,7.56,0,0,0-.76,3.34,8.49,8.49,0,0,0,.87,3.66,7.42,7.42,0,0,0-.57,2.8,5.34,5.34,0,0,0,.8,2.88,7,7,0,0,0,5.61,3.43,5.48,5.48,0,0,0,3.15-1,6.33,6.33,0,0,0,2-2.14m-4.31-.45A2.81,2.81,0,0,1,85,46.39,2.88,2.88,0,0,1,85.41,45a2.89,2.89,0,0,0-.24,1.15,2.83,2.83,0,0,0,.79,2l.08.07a2.34,2.34,0,0,1-.27.15m-3.7-6,0,0a3.67,3.67,0,0,0-.37.57,4.09,4.09,0,0,1,.34-.61m12.4-2.88.08-.16.13-.59v-.21l-.11-.68a4.35,4.35,0,0,0-3.8-2.89,3.65,3.65,0,0,0-2.32.89,6.59,6.59,0,0,0-2.9-.77l-.44,0a4.71,4.71,0,0,0-2.47,1.32,5.38,5.38,0,0,0-.76,1.06,5.72,5.72,0,0,1,.9-1.34,4.68,4.68,0,0,1,2.47-1.31l.44,0a6.65,6.65,0,0,1,2.9.76,3.69,3.69,0,0,1,2.31-.88,4.34,4.34,0,0,1,3.8,2.89l.12.68v.21l-.14.59-.2.44Zm3,1.62a8.2,8.2,0,0,1-.43.76,5.09,5.09,0,0,1-4.15,2.66l-.92-.13a2.6,2.6,0,0,1-1.48-.77A2.85,2.85,0,0,1,90,40.2a2.84,2.84,0,0,0,.55,3.11,2.61,2.61,0,0,0,1.47.77l.93.13a5.09,5.09,0,0,0,4.15-2.65c.1-.16.2-.32.29-.49m.82.45a6.71,6.71,0,0,0,.58-4.26A8.61,8.61,0,0,0,95.19,32l-.56-.32C95.19,30.17,96,28,96.57,27c-.53,1.09-1.29,3.05-1.8,4.41l.56.33A8.56,8.56,0,0,1,99,37a6.72,6.72,0,0,1-.71,4.53m7-3h0l.58.06a27,27,0,0,0-7.9,3.5l.16-.29a26.93,26.93,0,0,1,7.14-3.28M83.56,42.4c-.19-.38-1.28-2.61-.31-4.29-.79,1.8.48,4.08.48,4.08l-.17.21m.1,3.53a1.71,1.71,0,0,0,.1.51,2.68,2.68,0,0,1-.58-3.38,2.59,2.59,0,0,0,.48,2.87m1.4-3.1s0,.05.06.06a7,7,0,0,0-1,1.36,6.53,6.53,0,0,1,.94-1.42m.22-4.14a3.34,3.34,0,0,0-.56.72,3.32,3.32,0,0,1,.7-1c1.46-1.44,3.75.07,3.75.07a4.2,4.2,0,0,1,3.46-1.32c.11.11.22.22.32.34A4.24,4.24,0,0,0,89,38.75s-2.28-1.5-3.75-.06m3.36,2.91a1.75,1.75,0,0,1-.37.57,1.68,1.68,0,0,1-2.43,0,1.79,1.79,0,0,1-.5-1.25,1.86,1.86,0,0,1,.27-1,2.06,2.06,0,0,0-.13.69A1.82,1.82,0,0,0,86,41.9a1.71,1.71,0,0,0,1.21.52,1.73,1.73,0,0,0,1.22-.52,1.7,1.7,0,0,0,.23-.3M85.82,59.39c0,.15-.06.29-.1.43a6.89,6.89,0,0,0-7.07-5.3,8.86,8.86,0,0,0-1.8.19l-.62.19a51.39,51.39,0,0,1-1.86-4.8l.18-.13c.33,1.11,1.21,3.23,1.82,4.66l.62-.19a8.21,8.21,0,0,1,1.8-.19,6.9,6.9,0,0,1,7,5.14m3.06-7.73,0,0c-.25.42-.48.84-.7,1.27.21-.42.43-.84.66-1.25m.06,29.1.33.54a6.37,6.37,0,0,0-3.39-1,8.06,8.06,0,0,0-6.41,3.89l-.31.58a45.08,45.08,0,0,1-4.61-2s.39-2.23.9-4l0,0c-.47,1.72-.81,3.71-.81,3.71a46.33,46.33,0,0,0,4.61,2l.31-.59A8.08,8.08,0,0,1,86,80a6.11,6.11,0,0,1,2.92.76m-3.12-7,.07-.57c0,.1,0,.19.07.28h0a7.16,7.16,0,0,1-.74,2.12,7.5,7.5,0,0,0,.6-1.84M86,90.5h0l-.07.12L86,90.5m-1.74.55,0,0-.19-.25a3.48,3.48,0,0,1-.08-3.34,3.56,3.56,0,0,0,.22,3.06l.19.26,0,0a3.44,3.44,0,0,0,.2.31s-1.36,2.94.42,4.72,4.71,0,4.71,0a2.48,2.48,0,0,0,3.54.16l.19,0a2.54,2.54,0,0,1-3.86.17s-2.93,1.74-4.71,0-.43-4.72-.43-4.72a2.23,2.23,0,0,1-.2-.31m2.13,1.5a1.84,1.84,0,0,1,.27-1,1.82,1.82,0,0,0,.37,1.93,1.67,1.67,0,0,0,1.21.52,1.69,1.69,0,0,0,1.22-.52,2.09,2.09,0,0,0,.23-.29,2.06,2.06,0,0,1-.37.57,1.68,1.68,0,0,1-2.43,0,1.82,1.82,0,0,1-.5-1.25m-.5-26.38a28.07,28.07,0,0,1,3-12.75,28.14,28.14,0,0,0-2.9,12.48c0,15.18,12,27.53,26.71,27.53a26.62,26.62,0,0,0,23.65-14.78,26.64,26.64,0,0,1-23.79,15.06c-14.73,0-26.71-12.36-26.71-27.54m27.52-35.82a1.72,1.72,0,0,1-1.59,1.09,1.74,1.74,0,0,1-1.71-1.77,1.79,1.79,0,0,1,.27-1,1.72,1.72,0,0,0-.13.68A1.74,1.74,0,0,0,112,31.16a1.71,1.71,0,0,0,1.45-.81m4.94.73c0,.15,0,.3,0,.47a4.33,4.33,0,0,0-3.63-2s-.58-2.74-2.6-2.79a2.82,2.82,0,0,0-2.61,1.44,2.83,2.83,0,0,1,2.74-1.71c2,.05,2.61,2.78,2.61,2.78a4.29,4.29,0,0,1,3.5,1.78M108.45,28a6.65,6.65,0,0,1,.46-1.07A6,6,0,0,0,108.5,28Zm.7,1.69s-2.67,0-3.4,1.52a3.13,3.13,0,0,1,.38-1.7,3.11,3.11,0,0,0-.25,1.42c.64-1.36,2.75-1.5,3.28-1.51a2.44,2.44,0,0,0,0,.27m17.13,11.44.11.17.31.44a27,27,0,0,0-7.9-3.28,5.15,5.15,0,0,0,.56-.16,26.73,26.73,0,0,1,6.92,2.83m4-11.08.1.19a5.29,5.29,0,0,0-1.35.66A8.93,8.93,0,0,0,126.11,34a9,9,0,0,1,3-3.46,6.22,6.22,0,0,1,1.12-.57m-6.49-.73-.18-.64.19-.09.13.45a9,9,0,0,1-.77,5.91,9,9,0,0,0,.63-5.63m22.92,14.37.18.05a7.08,7.08,0,0,1-.26,2.76,30.33,30.33,0,0,1,5.6,2.39A28.28,28.28,0,0,1,151,54a7.85,7.85,0,0,1,1.82,2.17c-.05.1-.09.2-.13.29a7.93,7.93,0,0,0-1.83-2.19,28.28,28.28,0,0,0,1.23-5.17,30.33,30.33,0,0,0-5.6-2.39,7.22,7.22,0,0,0,.22-3.08m-7.22,14.94-.07.55A28.78,28.78,0,0,0,136,51.05c.15.09.3.18.46.26a29.11,29.11,0,0,1,3,7.28m10.46-5.24c0,.1-.06.2-.08.3a6.06,6.06,0,0,0-1.41-.53,9.11,9.11,0,0,0-1.81-.19,7.07,7.07,0,0,0-6.42,3.53,7,7,0,0,1,6.56-3.8,8.43,8.43,0,0,1,1.81.19,5.54,5.54,0,0,1,1.35.5m1,28.76a.74.74,0,0,1,0,.14s-1.8,1.3-3.38,2.18a6,6,0,0,0-.63-1.4,8.08,8.08,0,0,0-6.41-3.88,6.41,6.41,0,0,0-3.68,1.2l-.44.36.16-.3.42-.33a6.38,6.38,0,0,1,3.68-1.2A8.08,8.08,0,0,1,147,82.76a6,6,0,0,1,.63,1.4c1.28-.72,2.71-1.71,3.2-2m-11.31-9.58a.83.83,0,0,0,0,.15,29.24,29.24,0,0,1-2.4,6.48,28.88,28.88,0,0,0,2.36-6.63m12.62,10.18a34.16,34.16,0,0,0-2.29-5.63l.21-.12a32.58,32.58,0,0,1,2.25,5.62l-.17.13m-4.39,2.9.16-.07a7.83,7.83,0,0,1-.23,2.68,21.43,21.43,0,0,0,7.62-4.65.87.87,0,0,1,0,.11,21.38,21.38,0,0,1-7.76,4.82,8.11,8.11,0,0,0,.2-2.89m9-16.69a7.58,7.58,0,0,1-4.45,3.89,2.55,2.55,0,0,0,.1-.26,7.65,7.65,0,0,0,4.35-3.63m-10.5-5.76a2.71,2.71,0,0,1-2.46,1.63,2.63,2.63,0,0,1-1.57-.53,4.5,4.5,0,0,1-2-4.05l.14-1.44a6.48,6.48,0,0,1,.65-1.83,6.8,6.8,0,0,0-.51,1.56l-.14,1.44a4.48,4.48,0,0,0,2,4,2.6,2.6,0,0,0,1.57.53,2.68,2.68,0,0,0,2.32-1.35m7.53,4.3a5.36,5.36,0,0,0,.47-2.08,5,5,0,0,0-.85-2.74,6.43,6.43,0,0,0-2.87-1.9,3.72,3.72,0,0,0-3.89-3.44,4.08,4.08,0,0,0-1.8.4l-.65.5h.09l0,.08-.15,0a1.51,1.51,0,0,0-.18.26,2.48,2.48,0,0,1,.32-.54l.15,0,0-.07h-.09l.65-.51a4.08,4.08,0,0,1,1.8-.39,3.71,3.71,0,0,1,3.89,3.43,6.49,6.49,0,0,1,2.87,1.91,5,5,0,0,1,.85,2.74,5.16,5.16,0,0,1-.61,2.35m-3.61,3.88a4.55,4.55,0,0,0,.36-1.32l.1,0a3.84,3.84,0,0,1-.46,1.35m-3.92-1.44a2.71,2.71,0,0,1-2.34,1.64l-.09-.28H144a2.68,2.68,0,0,0,2.32-1.37m5.8,3.42a6,6,0,0,1-3.85,3.35,7.64,7.64,0,0,1-1.61.17A6,6,0,0,1,140.38,72l-.14-1.44a5.37,5.37,0,0,1,.61-2.58,5.52,5.52,0,0,0-.47,2.31l.14,1.44c.68,3.52,3.59,4.86,6.23,4.86a7.64,7.64,0,0,0,1.61-.17,5.82,5.82,0,0,0,3.71-3.08m-4.34-3a4.49,4.49,0,0,0,.4-1.94l.14,0a4.36,4.36,0,0,1-.54,2m1.68-.08a3.05,3.05,0,0,1-3.19,1.88,2.22,2.22,0,0,0,.34-.26,3,3,0,0,0,2.85-1.62m3.06-3.66a5,5,0,0,1-2.57,2.29c0-.15,0-.24,0-.24a5.37,5.37,0,0,0,2.53-2m-4.41-4s0-2.74-1.47-3.5a2.13,2.13,0,0,1,.55,0c1.09,1,1.05,3.21,1.05,3.21A2.9,2.9,0,0,1,151,65.4a2.22,2.22,0,0,1-.32,1.11,2.46,2.46,0,0,0,.18-.84,2.91,2.91,0,0,0-2.77-3.1m1.56,3.49A1.69,1.69,0,0,1,148,67.14a1.74,1.74,0,0,1-1.72-1.76,1.79,1.79,0,0,1,.27-.95,1.91,1.91,0,0,0-.13.68,1.74,1.74,0,0,0,1.71,1.76,1.7,1.7,0,0,0,1.45-.81M134.28,41.65a2.59,2.59,0,0,1-.55.81,2.64,2.64,0,0,1-1.47.77l-.93.13a5.07,5.07,0,0,1-4.15-2.65,5.93,5.93,0,0,1-1-3.23,6.31,6.31,0,0,1,.77-3,6,6,0,0,0-.63,2.69,5.94,5.94,0,0,0,1,3.24,5.08,5.08,0,0,0,4.15,2.65l.92-.13a2.69,2.69,0,0,0,1.89-1.31m8.29,3.59a3.85,3.85,0,0,0,.37-1.62,3.92,3.92,0,0,0-.85-2.37,7.15,7.15,0,0,0,.74-3l0-.45a4.92,4.92,0,0,0-1.28-2.55,4.71,4.71,0,0,0-2.47-1.32l-.44,0a6.65,6.65,0,0,0-2.9.76,3.69,3.69,0,0,0-2.31-.88,4.27,4.27,0,0,0-3.53,2.27,4.31,4.31,0,0,1,3.66-2.54,3.66,3.66,0,0,1,2.32.88,6.59,6.59,0,0,1,2.9-.77l.43,0A4.63,4.63,0,0,1,141.67,35,4.93,4.93,0,0,1,143,37.53l0,.46a7.17,7.17,0,0,1-.75,3,4,4,0,0,1,.86,2.38,3.85,3.85,0,0,1-.51,1.89m-3.66,1.19a2.63,2.63,0,0,1-.41.65l-.09,0,.09-.07a3,3,0,0,0,.41-.54m6.39.68a3.64,3.64,0,0,1-.3.54,7,7,0,0,1-5.61,3.43,5.48,5.48,0,0,1-3.15-1,5.26,5.26,0,0,1-2.57-4.26l.13-1a2.6,2.6,0,0,1,.35-1,2.68,2.68,0,0,0-.22.73l-.12,1a5.29,5.29,0,0,0,2.57,4.26,5.48,5.48,0,0,0,3.15,1,7.06,7.06,0,0,0,5.61-3.43c.06-.09.11-.18.16-.27m-5.86-5.67c.34-.74.9-2.34-.15-3.47a2.79,2.79,0,0,0-4.08-.17s-1.85-2-3.44-1.4a2.76,2.76,0,0,1,.33-.33c1.54-.36,3.25,1.46,3.25,1.46a2.78,2.78,0,0,1,4.08.17c1.21,1.3.28,3.24,0,3.74m1.92,3.22a3.66,3.66,0,0,1-.92,1.22,4.57,4.57,0,0,0-1.21-4.05,2.21,2.21,0,0,0,.14-.26,4.56,4.56,0,0,1,1.21,4,3.67,3.67,0,0,0,.78-.94m-2.65-4.19a1.79,1.79,0,0,1-.37.58,1.72,1.72,0,0,1-1.22.51,1.7,1.7,0,0,1-1.21-.51,1.82,1.82,0,0,1-.5-1.25,1.8,1.8,0,0,1,.27-.95,1.75,1.75,0,0,0-.13.68,1.82,1.82,0,0,0,.5,1.25,1.68,1.68,0,0,0,1.21.51,1.65,1.65,0,0,0,1.21-.52,1.38,1.38,0,0,0,.24-.3M140,87.1a2.75,2.75,0,0,1-.55.82,2.68,2.68,0,0,1-1.92.82,2.6,2.6,0,0,1-1.9-.82,2.78,2.78,0,0,1-.75-1.52l-.12-1a4.43,4.43,0,0,1,.57-2.13,4.36,4.36,0,0,0-.43,1.85l.12,1a2.78,2.78,0,0,0,.75,1.52,2.63,2.63,0,0,0,1.9.81,2.69,2.69,0,0,0,1.92-.81,3,3,0,0,0,.41-.55m3.68,2A3.66,3.66,0,0,0,144,87.6a4.42,4.42,0,0,0-2.8-3.93l-.67-.12h-.15l.11.09,0,.06-.11-.15a2.33,2.33,0,0,0-.74.21l0-.06-.09-.07a2.44,2.44,0,0,1,1-.35l.11.15,0-.06-.1-.1h.15l.67.12a4.44,4.44,0,0,1,2.8,3.93,3.85,3.85,0,0,1-.49,1.81m-.16,5.49a4.38,4.38,0,0,0,.38-1.22l0-.45a7.15,7.15,0,0,0-.74-3l.16-.22a7.24,7.24,0,0,1,.71,2.94v.45a4.75,4.75,0,0,1-.52,1.49m-8.15-2.75a3.1,3.1,0,0,1-.55.82,2.66,2.66,0,0,1-3.82,0l-.07-.09c0-.09.09-.19.14-.28l.07.1a2.63,2.63,0,0,0,1.9.81,2.66,2.66,0,0,0,1.92-.82,3.07,3.07,0,0,0,.41-.54m-4.77,7.66a7.3,7.3,0,0,1-3.33-5.8A5.7,5.7,0,0,1,128,91a5.67,5.67,0,0,0-.58,2.47,7.31,7.31,0,0,0,3.33,5.8,4.93,4.93,0,0,0,2.79.82,6.91,6.91,0,0,0,2.72-.58,7.88,7.88,0,0,0,3.56.9,7.26,7.26,0,0,0,5.26-2.33,7.72,7.72,0,0,0,1.36-1.83,8.07,8.07,0,0,1-1.49,2.11,7.33,7.33,0,0,1-5.27,2.32,7.88,7.88,0,0,1-3.56-.9,6.91,6.91,0,0,1-2.72.58,4.85,4.85,0,0,1-2.79-.82M142.16,94a2.86,2.86,0,0,1-.51.77c-1.73,1.85-4.59.44-4.59.44a3.31,3.31,0,0,1-.3.21l0,0-.25.2a3.12,3.12,0,0,1-4.15-.73,2.37,2.37,0,0,0,.46.07,3.1,3.1,0,0,0,3.82.39l.26-.21,0,0a3.31,3.31,0,0,0,.3-.21s2.86,1.4,4.58-.44a2.87,2.87,0,0,0,.38-.5m.07-5a3.42,3.42,0,0,1-.38.65l0,0a4.6,4.6,0,0,0,.41-.6m-.94-1.2a2.57,2.57,0,0,0,.22-1.92s.1.09.24.24a3.19,3.19,0,0,1-.46,1.68m-.6,4.84a3,3,0,0,0-.54-3.21l.2-.21a3,3,0,0,1,.34,3.42m-4.19-1.24a1.8,1.8,0,0,1,.27-1,1.79,1.79,0,0,0-.13.68,1.8,1.8,0,0,0,.5,1.25,1.67,1.67,0,0,0,1.21.52,1.69,1.69,0,0,0,1.22-.52,3.25,3.25,0,0,0,.23-.29,2.06,2.06,0,0,1-.37.57,1.72,1.72,0,0,1-1.22.51,1.67,1.67,0,0,1-1.21-.52,1.79,1.79,0,0,1-.5-1.25m-2.34-61.61c0,.11.09.23.12.34a7.29,7.29,0,0,0-2-.28l-.83.06a26.93,26.93,0,0,0-2.67-4.55,31.25,31.25,0,0,0-5.6,2.39,6.67,6.67,0,0,0-2-2.33l.28-.17a6.77,6.77,0,0,1,1.82,2.23,31,31,0,0,1,5.6-2.4,28.16,28.16,0,0,1,2.67,4.55l.83,0a7.2,7.2,0,0,1,1.71.21M104.73,25a9.12,9.12,0,0,1,.52-1.18,10.38,10.38,0,0,0-.47,1.16Zm6.33,10.11a4,4,0,0,1-.28.5,4.31,4.31,0,0,1-3.93,2.06l-1.39-.15c-3.42-.71-4.72-3.7-4.71-6.44l.16-1.64a4.91,4.91,0,0,1,.52-1.41,4.42,4.42,0,0,0-.38,1.13l-.16,1.65c0,2.73,1.28,5.73,4.71,6.44l1.39.15a4.32,4.32,0,0,0,3.93-2.07l.14-.22m-5.15-1.32.09-.6,0-.08a3.28,3.28,0,0,1,.24-.54l-.1.27,0,.08-.11.79v.12l-.13,0m1.54-7-.09.27a3.56,3.56,0,0,0-2.79,1.8,3.55,3.55,0,0,1,2.88-2.07m11.9,6.06a4.47,4.47,0,0,0,.35-1.77,3.76,3.76,0,0,0-3.33-4,6.88,6.88,0,0,0-1.85-3,4.45,4.45,0,0,0-5.31,0,5.68,5.68,0,0,0-1.32,1.7,6.08,6.08,0,0,1,1.46-2,4.49,4.49,0,0,1,5.31,0,6.81,6.81,0,0,1,1.84,3,3.78,3.78,0,0,1,3.34,4,4.5,4.5,0,0,1-.39,1.86,1.74,1.74,0,0,1-.1.19m2.92,1.58a5.48,5.48,0,0,1-4,3.11l-1.4.15A4.29,4.29,0,0,1,113,35.65a2.84,2.84,0,0,1-.51-1.63,2.8,2.8,0,0,1,.37-1.41,2.87,2.87,0,0,0-.24,1.14,2.82,2.82,0,0,0,.52,1.62A4.29,4.29,0,0,0,117,37.44l1.4-.15a5.47,5.47,0,0,0,3.86-2.84M93.88,31l-.09.29a6,6,0,0,0-1.92-.3l-1.08.09a31.23,31.23,0,0,1,2.38-6.33,31.92,31.92,0,0,0-2.24,6L92,30.72a6,6,0,0,1,1.87.29m9.19-6.17.17.07a7.66,7.66,0,0,0-2.13,1.89,26.49,26.49,0,0,0-5-1.27,3.72,3.72,0,0,0-.28.49,6.48,6.48,0,0,1,.42-.76,25.68,25.68,0,0,1,5,1.27,7.41,7.41,0,0,1,1.82-1.69M75.32,55.11l.07.16a6.73,6.73,0,0,0-2.27,2c-2.89-5.28-3.19-8.62-3.19-8.62l.15-.16A26,26,0,0,0,73.26,57a6.82,6.82,0,0,1,2.06-1.91m2.15-8.57c0,.06,0,.13,0,.2a25.56,25.56,0,0,0-4.24,2.62l0-.14a26.73,26.73,0,0,1,4.26-2.68m4,27a3.26,3.26,0,0,0,.15-.44h-.11a2.75,2.75,0,0,1-2.7-2.79,2.84,2.84,0,0,1,.38-1.42,2.81,2.81,0,0,0,2.46,3.94h.11a2.72,2.72,0,0,1-.29.71m-.52.54v0h0Zm-6.15-12,0,.23a6.49,6.49,0,0,0-2.87,1.91l-.24.38A3.7,3.7,0,0,1,72,64a6.36,6.36,0,0,1,2.76-1.87m6.74-1.55a2.18,2.18,0,0,0-1.07-1.25,4,4,0,0,0-1.81-.4,3.77,3.77,0,0,0-3.39,1.84,3.73,3.73,0,0,1,3.53-2.11,4.11,4.11,0,0,1,1.8.39,2.27,2.27,0,0,1,1.16,1.53h-.22Zm3.06,3.58A3.76,3.76,0,0,1,83,65.84a2.57,2.57,0,0,1-1.57.54,2.75,2.75,0,0,1-2.7-2.79,2.81,2.81,0,0,1,.38-1.42A2.8,2.8,0,0,0,81.6,66.1a2.65,2.65,0,0,0,1.57-.53,3.73,3.73,0,0,0,1.38-1.45M73.09,59.26c.06-.13.14-.31.25-.51a3.49,3.49,0,0,0-.21.5Zm-5.37,7.83v-.25a8,8,0,0,1,.92-3.69,7.92,7.92,0,0,0-.78,3.42v.25a7.63,7.63,0,0,0,5.27,7.32s1.11,3.21,4.05,3.85a7.74,7.74,0,0,0,1.62.16,6.14,6.14,0,0,0,5.58-3,6.1,6.1,0,0,1-5.72,3.3,7.64,7.64,0,0,1-1.61-.17c-3-.63-4.06-3.85-4.06-3.85a7.62,7.62,0,0,1-5.27-7.32m9.42-3.33V64a4.14,4.14,0,0,0-2.38,1.58,3.72,3.72,0,0,1,2.38-1.81m1.71-3.52h.2a4.61,4.61,0,0,0-1.37,1.53,4.7,4.7,0,0,1,1.17-1.54m-3.34,3,0-.14,0,0,0-.3a5.08,5.08,0,0,1,.38-.91,5.67,5.67,0,0,0-.24.63l0,.31,0,0a2.09,2.09,0,0,0-.07.37l-.1,0M78.27,73a1.84,1.84,0,0,0,.42.29,2.61,2.61,0,0,1-2.85-2.7s-3.26-.9-3.31-3.46a3,3,0,0,1,.41-1.59,2.94,2.94,0,0,0-.27,1.32c0,2.56,3.31,3.46,3.31,3.46A2.57,2.57,0,0,0,78.27,73m-1-4.25A1.74,1.74,0,0,1,75.52,67a1.7,1.7,0,0,1,.27-1,1.64,1.64,0,0,0-.14.67,1.75,1.75,0,0,0,1.72,1.77,1.68,1.68,0,0,0,1.44-.81,1.72,1.72,0,0,1-1.58,1.09m-6.8,16.19a22.62,22.62,0,0,1,2.19-9.07v0a22.3,22.3,0,0,0-2.06,8.78s2.45,2.1,8,3.71c0,.11,0,.22,0,.33-5.66-1.63-8.17-3.77-8.17-3.77m25.23,25.28a22,22,0,0,1-4.67-8l.26.06a21.54,21.54,0,0,0,4.55,7.67s3.12-.29,8.08-3.13l.14.11c-5.12,3-8.36,3.3-8.36,3.3M124,104a6.59,6.59,0,0,1-3.3,3l.09-.25A6.68,6.68,0,0,0,124,104m-4.83-4.54a2.71,2.71,0,0,1-2.47,1.64h0a2.75,2.75,0,0,1-2.7-2.78,2.84,2.84,0,0,1,.37-1.4,2.78,2.78,0,0,0-.23,1.13,2.73,2.73,0,0,0,2.7,2.77h0a2.69,2.69,0,0,0,2.33-1.36m1.69,3.73a4.69,4.69,0,0,0,.4-1.94,4.5,4.5,0,0,0-.38-1.86l-.5-.66v.09l-.06,0v-.15a2.45,2.45,0,0,0-.8-.45v-.31a2.4,2.4,0,0,1,.95.49l0,.15.07,0v-.1l.49.67a4.35,4.35,0,0,1,.39,1.86,4.69,4.69,0,0,1-.54,2.21m-3.32,3.06a6.83,6.83,0,0,0,.39-1h0a7.71,7.71,0,0,1-.44,1m-4.93-6.79a2.68,2.68,0,0,1-2.46,1.64,2.75,2.75,0,0,1-2.7-2.78V98.2a2.27,2.27,0,0,0-1.38,1l0-.08a2.24,2.24,0,0,1,1.49-1.19v.12a2.74,2.74,0,0,0,2.7,2.77,2.67,2.67,0,0,0,2.32-1.36m.93,13h-.23a7.43,7.43,0,0,1-7.11-5.43,6.24,6.24,0,0,1-3.73-4.18l-.16-1.65a7.69,7.69,0,0,1,.85-3.6,7.59,7.59,0,0,0-.71,3.33l.16,1.64a6.24,6.24,0,0,0,3.73,4.19,7.43,7.43,0,0,0,7.11,5.43h.23a7.28,7.28,0,0,0,6.5-4,7.31,7.31,0,0,1-6.64,4.27m16.07-6.43a40.16,40.16,0,0,0,1.89-5h.05a36.44,36.44,0,0,1-1.94,5m1.24,3.64a20.76,20.76,0,0,1-8.8-2.26l.31-.19a20.77,20.77,0,0,0,8.63,2.18,14.3,14.3,0,0,0,1.27-2.1,14.59,14.59,0,0,1-1.41,2.37m-15-20.35a2.2,2.2,0,0,1-.89,1c-.79.52-2.41.7-2.53-1.22a3.05,3.05,0,0,1,.39-1.78,3.21,3.21,0,0,0-.26,1.5c.13,1.93,1.75,1.75,2.54,1.23a2.83,2.83,0,0,0,.75-.71m-4.19,0c-.87,1.15-1.8.71-2.47,0a1.82,1.82,0,0,1-.43-2.17,2,2,0,0,0,.57,1.89c.67.67,1.59,1.11,2.47,0l.17-.24a2.85,2.85,0,0,1-.31.52m-3.32-5.54a2.05,2.05,0,0,1,.22-.48,1.8,1.8,0,0,0-.08.21c-.29.92-.25,2,1.13,2.27a2.66,2.66,0,0,0,2.27-.67.85.85,0,0,1,0,.15,2.71,2.71,0,0,1-2.39.79c-1.39-.3-1.42-1.35-1.14-2.27m-.91-7a1.56,1.56,0,0,1,.18-.19c1.3,2.47,6.56,2.88,8.43,1.62a2.55,2.55,0,0,0,.75-.75,2.38,2.38,0,0,1-.88,1c-1.9,1.27-7.26.84-8.48-1.7m-6.91,10a7.63,7.63,0,0,1,.92-5.11,7.56,7.56,0,0,0-.78,4.84c2.48.63,5.41-1.83,6.68-4.2-1.18,2.45-4.25,5.13-6.82,4.47m-1.19-8.52a2.92,2.92,0,0,1-1.34-1.93,2,2,0,0,1,.15-.22A2.94,2.94,0,0,0,99.41,78a1.36,1.36,0,0,0,2.12-.36,1.39,1.39,0,0,1-2.26.63M97.6,81.09c-.93.18-2.5-.29-1.9-2.12a4,4,0,0,1,.27-.62c0,.11-.09.22-.13.35-.6,1.83,1,2.29,1.9,2.12a2,2,0,0,0,1.29-.7,1.7,1.7,0,0,1-1.43,1m-4.89-2.54a1.88,1.88,0,0,1-.2-2,2,2,0,0,0,.34,1.78c.56.78,1.4,1.36,2.45.37a2.37,2.37,0,0,0,.43-.54,2.59,2.59,0,0,1-.57.82c-1,1-1.89.4-2.45-.38m3.6-3.37a3,3,0,0,1-1.34.45,3,3,0,0,0-.82-.07l-.34-.13c-1.3-.6-1.12-1.63-.65-2.47h0a1.48,1.48,0,0,0,.78,2.2A2.66,2.66,0,0,0,96.36,75a1.15,1.15,0,0,1,0,.22M89.24,66.7l.18-.19c1.27,3.14,7,3.95,9.12,2.5a2.79,2.79,0,0,0,.86-.89,2.75,2.75,0,0,1-1,1.17c-2.12,1.46-8,.62-9.16-2.59m3-11.15a1.88,1.88,0,0,1,.21-.46,1.54,1.54,0,0,0-.08.19c-.29.92-.26,2,1.13,2.28a2.66,2.66,0,0,0,2.27-.66.85.85,0,0,1,0,.15,3,3,0,0,1-1.31.76,3.15,3.15,0,0,0-.58.07,1.84,1.84,0,0,1-.51-.05C92,57.52,92,56.47,92.24,55.55M95.38,61c-.82,1.19-1.77.79-2.47.15a1.78,1.78,0,0,1-.49-2.18,1.92,1.92,0,0,0,.63,1.91c.7.64,1.64,1,2.47-.16a.86.86,0,0,0,.1-.16,2.39,2.39,0,0,1-.24.44m.45-6.59a2,2,0,0,1,.27-.82,3,3,0,0,0-.14.54,2.93,2.93,0,0,0,.89,2.43,2.77,2.77,0,0,0,2.1-1,2.86,2.86,0,0,0,.32-.41,2.21,2.21,0,0,1-.46.68,2.77,2.77,0,0,1-2.1,1,2.9,2.9,0,0,1-.88-2.42m2.37,8.19c-.87.36-2.49.24-2.28-1.68a3.29,3.29,0,0,1,.4-1.24,3.19,3.19,0,0,0-.26,1c-.22,1.92,1.41,2,2.28,1.68a2.26,2.26,0,0,0,1-.75,1.92,1.92,0,0,1-1.15,1m1.34,12.06a2.74,2.74,0,0,1-2.25.5,2.94,2.94,0,0,1-.38-2.56,2.14,2.14,0,0,1,.2-.43l-.06.16a2.94,2.94,0,0,0,.38,2.56,2.74,2.74,0,0,0,2.25-.5,2.19,2.19,0,0,0,.59-.59,2,2,0,0,1-.73.86m1.7-15.94a1.36,1.36,0,0,1-2,.71,2.87,2.87,0,0,1-1.7-1.6,2.7,2.7,0,0,1,.24-.52,2.05,2.05,0,0,0-.1.25,2.87,2.87,0,0,0,1.7,1.6,1.37,1.37,0,0,0,1.83-.44M99.75,47l.09,0a8.5,8.5,0,0,0,2,6.47c1.93,2.44,4.05,2.34,4.87,1-.7,1.64-3,1.91-5-.68-2.81-3.57-2-6.72-2-6.72M111,48.49a2.78,2.78,0,0,1-1.9,1.62c-1.4.27-1.81-.69-1.89-1.66a2.38,2.38,0,0,1,.3-1.33,2.37,2.37,0,0,0-.16,1.06c.07,1,.49,1.92,1.89,1.65A2.66,2.66,0,0,0,111,48.49m2.29-2.17a2.79,2.79,0,0,1-1.48,1.5,2.8,2.8,0,0,1-1.73-1.88,1.62,1.62,0,0,1,.14-1.35,1.94,1.94,0,0,0,0,1.08A2.86,2.86,0,0,0,112,47.55a2.78,2.78,0,0,0,1.34-1.23m3.31,2a1.47,1.47,0,0,1-1.46.89,2.8,2.8,0,0,1-2.17-.8,3.19,3.19,0,0,1,.39-1.7,3.33,3.33,0,0,0-.25,1.43,2.77,2.77,0,0,0,2.17.8,1.59,1.59,0,0,0,1.32-.62m6.7,3.43a10.56,10.56,0,0,1-1.22,1.93c-2.48,3.15-5.29,2.08-5.23-.54a4.91,4.91,0,0,1,.63-2,4.56,4.56,0,0,0-.49,1.76c-.06,2.63,2.74,3.69,5.23.55a11.1,11.1,0,0,0,1.08-1.66M126.08,57a2.78,2.78,0,0,1-1.9,1.62c-1.4.27-1.82-.69-1.89-1.65a2.35,2.35,0,0,1,.3-1.34,2.39,2.39,0,0,0-.16,1.07c.07,1,.49,1.92,1.89,1.65A2.7,2.7,0,0,0,126.08,57m2.28-2.16a2.76,2.76,0,0,1-1.47,1.49,2.83,2.83,0,0,1-1.74-1.88,1.66,1.66,0,0,1,.15-1.35,1.94,1.94,0,0,0,0,1.08A2.83,2.83,0,0,0,127,56a2.72,2.72,0,0,0,1.34-1.22m3.32,2a1.46,1.46,0,0,1-1.46.88,2.77,2.77,0,0,1-2.17-.8,3.2,3.2,0,0,1,.39-1.7,3.16,3.16,0,0,0-.25,1.43,2.76,2.76,0,0,0,2.16.8,1.62,1.62,0,0,0,1.33-.61M131,60.2a2.72,2.72,0,0,1-.57.81c-.66.68-2.21,1.22-2.73-.64a3,3,0,0,1,.25-2.34,3.1,3.1,0,0,0-.11,2.07c.52,1.86,2.07,1.32,2.73.63a3.12,3.12,0,0,0,.43-.53m4.12,6.21c-1.37,3-7,3.8-9.07,2.37a2.26,2.26,0,0,1-.86-3.09,2.29,2.29,0,0,0,1,2.82c2,1.38,7.35.7,8.93-2.1m-4.6,9.73h-.16a2,2,0,0,0-.64,0,2.66,2.66,0,0,1-1.39-.68,3.14,3.14,0,0,1,.37-1.81,3.14,3.14,0,0,0-.23,1.54,2.72,2.72,0,0,0,2.19.7,1.6,1.6,0,0,0,1.26-.62,1.48,1.48,0,0,1-1.4.9m.86,3c-.51.82-1.9,1.69-2.8,0a3,3,0,0,1-.25-2.35l.07,0a3.19,3.19,0,0,0,.31,2.13c.9,1.7,2.3.82,2.8,0l.08-.13a3,3,0,0,1-.21.4m-3.53,1c-.41,1-1.31,1-2.1.7a1.62,1.62,0,0,1-1.06-2.32c-.38,1,.49,1.79,1.2,2a1.51,1.51,0,0,0,2-.42m-3.49,6.66c-3.24.83-7.25-3.61-7.31-6.25A2.9,2.9,0,0,1,117.4,79a3.07,3.07,0,0,0-.22,1.25c.06,2.61,4,7,7.22,6.27a1.43,1.43,0,0,1-.05.25M117.47,71a2.39,2.39,0,0,1-2.18,1.46A2.42,2.42,0,0,1,112.9,70a2.46,2.46,0,0,1,.34-1.27,2.52,2.52,0,0,0-.21,1,2.42,2.42,0,0,0,2.39,2.46,2.39,2.39,0,0,0,2-1.19m0-5.59a2.37,2.37,0,0,1-2.18,1.46,2.42,2.42,0,0,1-2.39-2.46,2.46,2.46,0,0,1,.34-1.27,2.52,2.52,0,0,0-.21,1,2.42,2.42,0,0,0,2.39,2.46,2.39,2.39,0,0,0,2-1.19m5.92,1.48s-2.72-.32-5-3.89c-1.08-1.68-1.15-3-.67-3.82-.31.8-.15,2.05.8,3.55,2.2,3.45,4.82,3.86,5,3.88a2.39,2.39,0,0,1-.13.28m3.7-5.82c-.41,1-1.3,1-2.09.7a1.6,1.6,0,0,1-1.07-2.32c-.39,1,.5,1.8,1.21,2a1.51,1.51,0,0,0,2-.43m-2,12.84a1.43,1.43,0,0,1-.18-1.75,1.55,1.55,0,0,0,.32,1.48,2.73,2.73,0,0,0,2.29,1,2.11,2.11,0,0,0,.41-.54,2.55,2.55,0,0,1-.54.81,2.91,2.91,0,0,1-1.4-.29,3,3,0,0,0-.74-.55l-.16-.21M117.88,76a7.43,7.43,0,0,1,1-4.76,7.3,7.3,0,0,0-.83,4.49c2,.35,4.5-2,5.65-4.1-1.07,2.23-3.67,4.74-5.79,4.37m8.55.07a2.74,2.74,0,0,1-1.78,1.58c-1.38.33-1.84-.6-2-1.56a2.3,2.3,0,0,1,.29-1.41,2.38,2.38,0,0,0-.15,1.13c.12,1,.57,1.9,2,1.57a2.6,2.6,0,0,0,1.64-1.31M115.92,51.73a2.62,2.62,0,0,1-.56.81c-.67.69-2.21,1.23-2.73-.63a3,3,0,0,1,.24-2.34,3.1,3.1,0,0,0-.11,2.07c.52,1.85,2.07,1.31,2.73.63a2.84,2.84,0,0,0,.43-.54m-3.9.89c-.41,1-1.3,1-2.09.7A1.62,1.62,0,0,1,108.86,51c-.38,1,.5,1.8,1.21,2a1.51,1.51,0,0,0,2-.43m-.23,6.67c-3-.14-4-1.79-3.23-3.06-.49,1.22.6,2.66,3.37,2.79a8,8,0,0,0,5.8-1.72l0,.09s-1.84,2.09-6,1.9m-1.93,7.59a2.42,2.42,0,0,1-2.38-2.46,2.52,2.52,0,0,1,.34-1.28,2.61,2.61,0,0,0-.21,1A2.42,2.42,0,0,0,110,66.61a2.39,2.39,0,0,0,2-1.19,2.37,2.37,0,0,1-2.19,1.46M107.48,70a2.52,2.52,0,0,1,.34-1.28,2.61,2.61,0,0,0-.21,1A2.42,2.42,0,0,0,110,72.2a2.39,2.39,0,0,0,2-1.19,2.39,2.39,0,0,1-2.19,1.46A2.42,2.42,0,0,1,107.48,70m-6.38-5.57a5.8,5.8,0,0,1,.81-2.83,5.64,5.64,0,0,0-.68,2.56c.13,2.35,2.56,2.83,4.44-.4.09-.16.18-.32.26-.48-.12.25-.25.5-.4.76-1.88,3.22-4.31,2.74-4.43.39m.33,3.56h0c-.87,2.6,2,6.92,4.06,7.63a1.72,1.72,0,0,0,2.15-.52,1.66,1.66,0,0,1-2.28.8c-2.15-.74-5.15-5.35-4-7.91M113,84.84a3,3,0,0,1-1.28-1,3.39,3.39,0,0,0-.27-.54,1.89,1.89,0,0,1-.1-.36,1.68,1.68,0,0,1,.17-1.31,1.87,1.87,0,0,0,0,1,2.81,2.81,0,0,0,1.65,1.95,2.77,2.77,0,0,0,1.46-1.28,2.82,2.82,0,0,1-1.6,1.55m2.31,2.39-.13,0a2.55,2.55,0,0,0-.72-.42,2.74,2.74,0,0,1-.85-1.12,2.82,2.82,0,0,1,.24-.54,2.18,2.18,0,0,0-.1.27,2.84,2.84,0,0,0,1.7,1.59,1.37,1.37,0,0,0,1.83-.44,1.37,1.37,0,0,1-2,.71m18.7-9.75a25.21,25.21,0,0,0,2.64-11.31c0-13.67-10.79-24.8-24-24.8A24,24,0,0,0,91.33,54.66a24,24,0,0,1,21.45-13.57c13.26,0,24.05,11.13,24.05,24.81a25.17,25.17,0,0,1-2.78,11.58" transform="translate(0 -20.04)"/></g><g class="cls-8"><path class="cls-9" d="M125.67,104.37l0,.12h0Zm.13-12.05a27.9,27.9,0,0,1-4,1.81l.29.14a27.12,27.12,0,0,0,3.64-1.66,7.34,7.34,0,0,0-.11,3.3,9.37,9.37,0,0,0,4,5.77l.11-.28a9.34,9.34,0,0,1-4-5.78,7.35,7.35,0,0,1,.11-3.3M114.23,103.6a1.09,1.09,0,0,0-.91-1.6,1,1,0,0,0-1,.85,1,1,0,0,1,.91-.56,1,1,0,0,1,1,1.31m-4.21.55a2.83,2.83,0,0,1-.11-.31,4.71,4.71,0,0,1-1.76-.52,2.66,2.66,0,0,0,1.87.83m5.57,1.53a3.27,3.27,0,0,1-4.36.24,2.43,2.43,0,0,0,4,.24,3.62,3.62,0,0,0,.31-.48m1.07-1.92v.09l1.22-.31a5.71,5.71,0,0,1-1.21.22m-16.46-6a8.81,8.81,0,0,1-4.39,5.1l.12.18a8.87,8.87,0,0,0,4.27-5.28m3.74-3.14.34-.21a27.25,27.25,0,0,1-4.08-1.66c0,.13.09.27.13.4a27.58,27.58,0,0,0,3.61,1.47m-3.29,9.14.15-.06A9.21,9.21,0,0,1,101,98.8a9.5,9.5,0,0,0-.34,5m-4.5-7.32c-.94,2.43-4,4.23-6.75,2.39a5.18,5.18,0,0,1-6.24-.9A5.27,5.27,0,0,1,82,92.55a5.34,5.34,0,0,0,1.12,5.71,5.18,5.18,0,0,0,6.24.9c2.8,1.88,6-.07,6.83-2.59Zm1.86.6a5.2,5.2,0,0,0-.58-4.66,4.56,4.56,0,0,0-3.53-2.35c-1.6.1-2.31.83-2.5,1.65a2.49,2.49,0,0,1,2.41-1.36,4.57,4.57,0,0,1,3.53,2.34A5.24,5.24,0,0,1,98,97.08M80.53,91.15a9.19,9.19,0,0,0-.42,1.13,7.69,7.69,0,0,1,.37-.92.54.54,0,0,0,0-.21m10-2.79a2,2,0,0,0,.13-.52l.12-.91c.12-2-2.46-4.58-5-4.58a6.25,6.25,0,0,0-5.54,4.33,6.26,6.26,0,0,1,5.45-4c2.58,0,5.16,2.54,5,4.57l-.12.92a1.57,1.57,0,0,1,0,.23m-2.73-2.81A2.54,2.54,0,0,0,86.77,87,3.62,3.62,0,0,1,88,85.64Zm-5.54,6a4.52,4.52,0,0,1-.53-3.71,4.53,4.53,0,0,0,.42,4c0-.09.07-.18.11-.26M81.1,42.93l.12-.21a6.29,6.29,0,0,1-.44-4.21,6.05,6.05,0,0,0,.32,4.42m5,6.9-1.56.08-.78-.18A4.91,4.91,0,0,1,80.65,44a4.87,4.87,0,0,0,3,6l.78.18,1.94-.09Zm.67-.73-.65.38.16.14.66-.38Zm2.8-.58a3.68,3.68,0,0,0,.22-1.16c-.19-3.16-2.58-3-3.52-2a2.05,2.05,0,0,0-.53,1,1.89,1.89,0,0,1,.44-.69c.94-1,3.33-1.12,3.52,2a3.59,3.59,0,0,1-.13.87m-10-4.77a5.88,5.88,0,0,0-.26.74,5.38,5.38,0,0,1,.28-.7ZM97,40.6A5.18,5.18,0,0,0,97.24,39c0-2.61-2.36-5.94-5.45-5.94a6.23,6.23,0,0,0-2.31.47l-.27.27a7.56,7.56,0,0,0-3.7-1.05A7,7,0,0,0,79,37.84,7,7,0,0,1,85.42,33a7.66,7.66,0,0,1,3.7,1.05l.27-.27a6.42,6.42,0,0,1,2.31-.46c3.08,0,5.45,3.33,5.44,5.93A4.88,4.88,0,0,1,97,40.6M95.09,40l-.68,1.5c-.57-.74-1-1.55-2.13-1.55a1.92,1.92,0,0,0-1.93,1.55,1.89,1.89,0,0,1,1.84-1.26c1.13,0,1.56.8,2.13,1.55L95,40.2a1.55,1.55,0,0,0,.07-.23m4.28-11,.1-.28-2.58-.61-1.5,3.69h0l1.39-3.41Zm3.57,10.22.39-.14c-3.53-1.66-4.85-5.81-4.11-9.49,0-.16.07-.31.12-.47a5.26,5.26,0,0,0-.21.75c-.72,3.58.5,7.6,3.81,9.35m-14.38-1,.18.08a2.81,2.81,0,0,1,.84-.47,5.06,5.06,0,0,1,.92-.41,2.78,2.78,0,0,0-1.94.8m-3-.15a2.88,2.88,0,0,1,1-.24c-1.59-.25-2.72.4-3,1.65a2.23,2.23,0,0,1,2-1.41m-2,3.11a3.26,3.26,0,0,1,.13-.82,3.68,3.68,0,0,0-.17.63c0,.06,0,.12,0,.19m-.06,3a5.4,5.4,0,0,1,.64-.92.21.21,0,0,1,0-.06ZM88,41.33a1,1,0,0,0-2-.23,1,1,0,0,1,2,.52.86.86,0,0,1,0,.23,1.21,1.21,0,0,0,.11-.52M85.5,58h0l.09-.31c0,.1-.06.2-.1.3m-8.19-8.7-2.24,1.45.07.18,2.08-1.34c1.46,3.28,5.76,6,9.76,4.53,0-.1.09-.2.14-.3-4,1.52-8.35-1.23-9.81-4.52M87.58,80.25a29.28,29.28,0,0,1-1.75-4.12c-1.78,4-6.68,5.2-10,3.93,0,.09,0,.19-.08.29,3.34,1.26,8.24,0,10-3.93a31.67,31.67,0,0,0,1.56,3.76l.28.07M85,91.27a2.72,2.72,0,0,1,.11-.25,5.21,5.21,0,0,1-.87-1.58,2.65,2.65,0,0,0,.22,1,4.84,4.84,0,0,0,.54.82M88,96.45a3.4,3.4,0,0,1-3.32-2.93,3.58,3.58,0,0,0,0,.65A3.39,3.39,0,0,0,87,96.6a4.58,4.58,0,0,0,1-.15m3,.15a8,8,0,0,1-1-.75l-.07.05Zm-2-3.13a1.14,1.14,0,0,0,.11-.52,1,1,0,0,0-2-.23,1,1,0,0,1,2,.52,1.64,1.64,0,0,1,0,.23m24.37-5.54a2.09,2.09,0,0,0-.3.69,1.88,1.88,0,0,1,.21-.4,2,2,0,0,1,1.46.72,1,1,0,0,1,.25.74.9.9,0,0,0-.16-1,2,2,0,0,0-1.46-.72m-2-.3c-.73-.31-2.16-.09-2.23.62v0a2.06,2.06,0,0,1,2.14-.37,2.37,2.37,0,0,1,0,1,2.34,2.34,0,0,0,.11-1.28m-.26-2.27c0-.8-.88-2-1.51-1.82a1.74,1.74,0,0,0-.8,1.14,1.56,1.56,0,0,1,.71-.85c.57-.21,1.33.83,1.48,1.62l.12-.09m-2.9-8.1a.69.69,0,0,0,.11.13c2.69-2,7.64-1.62,7.72.11a1.34,1.34,0,0,1,0,.2,1,1,0,0,0,.1-.49c-.09-1.78-5.29-2.08-7.92.05m-1.37,4.57c.38-1.07.31-2-.47-2.55-1.54-1-4.16,1.63-5.07,4.66,1-2.91,3.49-5.34,5-4.37a1.88,1.88,0,0,1,.56,2.26m-8.21-5a.56.56,0,0,0,0,.12,1.94,1.94,0,0,1,1.3-.66c.93-.05,1.07.73.91,1.39.27-.69.25-1.74-.82-1.68a2,2,0,0,0-1.43.83m-1.41,1.5a2.65,2.65,0,0,0-1,1.45,2.57,2.57,0,0,1,.87-1.16,2.12,2.12,0,0,1,1.1,1.25,1.37,1.37,0,0,1,0,.51,1.08,1.08,0,0,0,0-.79,2.13,2.13,0,0,0-1.1-1.26m-2-1.1c-.67-.44-2.11-.45-2.3.22a.59.59,0,0,0,0,.14c.35-.52,1.61-.48,2.22-.08a2.39,2.39,0,0,1-.06.65,2.53,2.53,0,0,0,.16-.93m.42-2.08c.12-.81-.45-2.23-1.11-2.13a1.72,1.72,0,0,0-1.09,1.22,1.65,1.65,0,0,1,1-.93c.59-.09,1.12,1,1.13,1.87l.07,0M90,67.25a.64.64,0,0,1,.08.14C93,65,98.72,65.53,98.71,68a2,2,0,0,1,0,.35,1.61,1.61,0,0,0,.12-.63c0-2.5-6-3-8.83-.45m5-10.09c0-.84-.87-2.07-1.49-1.85a1.75,1.75,0,0,0-.81,1.14,1.53,1.53,0,0,1,.72-.85c.57-.2,1.33.83,1.47,1.64l.11-.08m0,2.12c-.71-.27-2.16,0-2.2.74h0a2.07,2.07,0,0,1,2.11-.46,2.28,2.28,0,0,1,0,1.07A2.18,2.18,0,0,0,95,59.28m3.5-3.88a.66.66,0,0,0,0-.62c-.28-.55-1.83-1.33-2.11,0,.43-.93,1.76-.23,2,.28a.54.54,0,0,1,0,.33M97.16,60a2.51,2.51,0,0,0-.58,1.1,2.35,2.35,0,0,1,.49-.82,2,2,0,0,1,1.31,1,1.13,1.13,0,0,1,.15.65.93.93,0,0,0-.06-.93,2,2,0,0,0-1.31-1m2.33,14.1a.62.62,0,0,0,.07-.46c-.14-.61-1.59-1.77-2.1-.38,0,.08,0,.16-.06.23.52-1.3,1.93-.16,2.07.44a.52.52,0,0,1,0,.17M98.23,58.21a.21.21,0,0,1,0,.06,1.74,1.74,0,0,1,1.11-.92c1.07-.29,1.27.81,1.11,1.55.29-.68.21-2.17-1-1.84a1.94,1.94,0,0,0-1.24,1.15m2-10.26a2.64,2.64,0,0,0,0,.28c2.84-.15,6.32,4.06,5.83,6.25.91-2.1-2.82-6.77-5.81-6.53m9.95.85c-.35-.72-1.55-1.52-2-1.09a1.24,1.24,0,0,0-.3.62.94.94,0,0,1,.21-.33c.48-.42,1.62.31,2,1l.13-.21m2.45-2.5c.17-.43.19-.86-.09-1.09s-1.82-.45-1.94.49c.34-.62,1.49-.5,1.85-.2a.76.76,0,0,1,.18.8m3.16,2.3a.31.31,0,0,0,.05-.1c.23-.59-.41-2.45-1.57-1.54a1.79,1.79,0,0,0-.64,1,1.88,1.88,0,0,1,.55-.73c1.05-.82,1.68.64,1.61,1.36m7.59-.65c-2.36-.19-5.2,2.69-5.83,4.95.78-2.21,3.47-4.85,5.74-4.66a6.87,6.87,0,0,1-.28,2.57,7.06,7.06,0,0,0,.37-2.86m1.86,9.34c-.4-.84-1.57-1.53-2-1.11a1.16,1.16,0,0,0-.3.61,1,1,0,0,1,.21-.33c.46-.4,1.57.24,2,1a1.2,1.2,0,0,0,.13-.21m2.45-2.53c.18-.43.2-.86-.08-1.09s-1.82-.45-1.94.5c.34-.63,1.49-.51,1.85-.21a.77.77,0,0,1,.17.8m3.18,2.3a1,1,0,0,0,0-.1c.23-.59-.42-2.45-1.57-1.54a1.84,1.84,0,0,0-.64,1,1.75,1.75,0,0,1,.55-.73c1.05-.83,1.68.63,1.62,1.35M128.35,59a1.35,1.35,0,0,0-.11.34v-.05c.75-.14,2.08.3,2,1.16.5-1.05-1-1.6-1.86-1.45m5.94,7.76c-2.9-2.54-8.34-2.05-8.79.13.84-1.92,5.86-2.26,8.65.11,0-.08.1-.16.14-.24m-3.16,8.76a.34.34,0,0,0,.06-.12c.2-.61-.52-2.43-1.63-1.47a1.9,1.9,0,0,0-.59,1,1.77,1.77,0,0,1,.5-.71c1-.89,1.72.59,1.66,1.3m-2.32,2.12a1.09,1.09,0,0,0,0,.26,1.92,1.92,0,0,1,1.56,0,.86.86,0,0,1,.55,1,.87.87,0,0,0-.46-1.24,2,2,0,0,0-1.62,0m-2,.61c-.67,0-1.73.68-1.8,1.32a2.41,2.41,0,0,1,1.71-1,2.2,2.2,0,0,1,.37,1.66,1.07,1.07,0,0,0,.09-.27,2.18,2.18,0,0,0-.37-1.67m-3.17,8.31c.39-3.86-3.37-8.56-5.35-7.28a1.47,1.47,0,0,0-.65.94,1.43,1.43,0,0,1,.55-.65c1.94-1.26,5.57,3.19,5.38,7h.07M115.2,68.64a1.61,1.61,0,0,0-1.63,1.3,1.59,1.59,0,0,1,1.54-1,1.73,1.73,0,0,1,1.63,2.26,1.77,1.77,0,0,0-1.54-2.54m1.71-3.81a1.71,1.71,0,0,0-3.36-.47,1.71,1.71,0,0,1,3.27.75,2.44,2.44,0,0,1,0,.48,2,2,0,0,0,.14-.76m6,1.68c.73-2.79-2.83-7.91-4.46-6.77a1,1,0,0,0-.37.62,1,1,0,0,1,.28-.33c1.57-1.11,5,3.63,4.52,6.47Zm3.2-7.26c-.69,0-1.72.69-1.79,1.32a2.39,2.39,0,0,1,1.7-1,2.18,2.18,0,0,1,.38,1.67,1.15,1.15,0,0,0,.09-.28,2.17,2.17,0,0,0-.38-1.67m1.21,15c.28-.74.28-1.78-.26-2s-1.59.2-1.67.94a1.6,1.6,0,0,1,1.57-.66c.48.16.54,1,.36,1.68m-4.09-3.1c.33-.93.31-1.73-.26-2.08-1.13-.69-3.42,1.75-4.24,4.54.89-2.67,3.06-4.92,4.15-4.25.51.31.57,1,.35,1.79m2.47,5.18c-.37-.73-1.62-1.46-2.09-1a1.17,1.17,0,0,0-.27.56.71.71,0,0,1,.18-.27c.46-.44,1.64.24,2,.94a2.53,2.53,0,0,0,.13-.22M113.26,50.54a1.4,1.4,0,0,0-.09.29,1.92,1.92,0,0,1,1.57.38.92.92,0,0,1,.4.84.87.87,0,0,0-.31-1.13,2,2,0,0,0-1.57-.38m-2.24.24c-.68,0-1.72.7-1.78,1.33a2.36,2.36,0,0,1,1.69-1,2.16,2.16,0,0,1,.38,1.66,1,1,0,0,0,.09-.28,2.18,2.18,0,0,0-.38-1.67m5.8,6.89c-1.66-2.2-7.61-2.28-7.91-.35.8-1.59,6-1.46,7.71.5l.2-.15m-5.5,7.92a1.77,1.77,0,0,0-1.54-2.54,1.61,1.61,0,0,0-1.63,1.3,1.59,1.59,0,0,1,1.54-1,1.74,1.74,0,0,1,1.63,2.26m0,5.59a2,2,0,0,0,.15-.76,1.71,1.71,0,0,0-3.36-.47,1.71,1.71,0,0,1,3.27.75,1.86,1.86,0,0,1-.06.48m-5.21-12.34c-1.82.35-3.68,2.9-4.26,4.88.67-1.93,2.43-4.26,4.17-4.59a7.42,7.42,0,0,1-.32,3.08,7.68,7.68,0,0,0,.41-3.37m-4.32,10.33c0,.1,0,.2,0,.3a6,6,0,0,1,.89.33c2.84,1.3,4.49,4.25,4.25,5.59.58-1.16-1.09-4.47-4.16-5.88a6.29,6.29,0,0,0-.94-.34M114,83.29a.9.9,0,0,0-.07-1c-.4-.36-1.84-.53-2,.44.35-.64,1.52-.47,1.88-.15a.74.74,0,0,1,.16.73M114.3,86l0,0a2,2,0,0,1,1.12-.89c1.08-.3,1.28.81,1.12,1.55.29-.68.2-2.18-1-1.84A2.09,2.09,0,0,0,114.3,86M130,84.59a24.24,24.24,0,0,1-17.49,7.48c-14,0-24.74-11.75-24.74-25.49A25.92,25.92,0,0,1,89,58.77a26,26,0,0,0-1.29,8.1c0,13.73,10.79,25.48,24.74,25.48A24.2,24.2,0,0,0,130,84.87,25.57,25.57,0,0,0,136,74.64a25.69,25.69,0,0,1-6,10m7.17-9.48a27.45,27.45,0,0,0,1.36-8.53c0-14.46-11.35-26.85-26-26.85A26.11,26.11,0,0,0,87.8,58.34,26.08,26.08,0,0,1,112.46,40c14.67,0,26,12.38,26,26.85a27.2,27.2,0,0,1-1.27,8.24M111.78,29a1,1,0,0,0-1,.85,1,1,0,0,1,.91-.56,1,1,0,0,1,1,1.32,1.09,1.09,0,0,0-.91-1.61m3.29,0,.12.32h0a4.57,4.57,0,0,1,1.73.52,2.69,2.69,0,0,0-1.87-.84m-5.61-1.48.23-.2a2.2,2.2,0,0,1,3.32-.61,2.84,2.84,0,0,1,.85.5c-1.34-1.81-3.21-1.75-4.4.31m-1,1.88s0-.06,0-.09l-1.23.32Zm16.24,10.86.22.11a7.51,7.51,0,0,1-.09-4.73,7.65,7.65,0,0,0-.13,4.62M124,34.64a8.51,8.51,0,0,1-.83,1.8,6.94,6.94,0,0,1-2.37,2.27l.25.08a7,7,0,0,0,2-2.07,8.4,8.4,0,0,0,.92-2.08m3.84-6.71-3.56,1.49.06.23,3.41-1.43c.46.69.91,1.41,1.32,2.14l.2-.1c-.45-.79-.93-1.58-1.43-2.33m23.8,26.21-.12.35h0l.12-.36M147.34,45v.31A25.39,25.39,0,0,1,154,48.44a18,18,0,0,1-.89,5.2,18.65,18.65,0,0,0,1-5.49A25.57,25.57,0,0,0,147.34,45m2.54,5.41-3.54-1.53-.05.08c-1.85,2.92-5.31,4.92-8.77,3.95.07.12.13.24.19.36,3.36.79,6.69-1.18,8.49-4l.05-.09,3.54,1.54c-.15.8-.32,1.61-.52,2.4h0c.23-.89.43-1.8.59-2.7M139.41,75.73A28.55,28.55,0,0,1,138,79.32l.06,0a30.2,30.2,0,0,0,1.37-3.57M150,82.39l-1.46-3.7-2,.23a7.69,7.69,0,0,1-6.93-3.78l-.09.29a7.68,7.68,0,0,0,6.93,3.77l2-.23,1.39,3.53Zm2.71,1.25a25.8,25.8,0,0,1-4.32,2.8c0,.08,0,.16,0,.24a26.53,26.53,0,0,0,4.35-2.85Zm-2.06-5.89.08.17a8.15,8.15,0,0,0,1.09-1,27.64,27.64,0,0,1,2.57,7l.12-.12a26.93,26.93,0,0,0-2.6-7.16,7.08,7.08,0,0,1-1.26,1.06m5.69-9.41a8.33,8.33,0,0,0,.41-2.68c0-3.37-2-5.68-5.12-6.78A5.13,5.13,0,0,0,146.52,55a5.26,5.26,0,0,0-5.43,3.83,5.27,5.27,0,0,1,5.34-3.55,5.14,5.14,0,0,1,5.14,3.87c3.13,1.11,5.12,3.42,5.12,6.79a8.53,8.53,0,0,1-.32,2.39M145.59,70a2.13,2.13,0,0,0,.15-.79,2,2,0,0,0-3.21-1.69,3.48,3.48,0,0,0-1.51,2,3.45,3.45,0,0,1,1.42-1.76,2,2,0,0,1,3.21,1.68,2.1,2.1,0,0,1-.06.51m5.31,1.63c-1.29,3.66-6.46,3.83-7.74,1.12l-.44-1.26-.2,0,.55,1.56c1.31,2.79,6.72,2.54,7.83-1.4m3.65-3.93a5.57,5.57,0,0,1-3.47,3.27c0,.09,0,.18-.07.28a5.49,5.49,0,0,0,3.54-3.55M144.33,60.4a3.75,3.75,0,0,0-1.63,0l.28-1.06-.74,0-.37.31,1-.07-.28,1.05a3.9,3.9,0,0,1,1.63,0,2.08,2.08,0,0,1,1.33,2.55,2.11,2.11,0,0,0-1.24-2.84m4.12,10.14c-.07.18-.14.36-.23.54l.07-.08c.06-.15.11-.3.16-.46m.53-1.39-.27.1a2.45,2.45,0,0,1,0,.27l.2-.08a5.76,5.76,0,0,1-.14.8,4.28,4.28,0,0,0,.23-1.09m2.25-2.07a2.77,2.77,0,0,1-.5.86l.25-.21a3.23,3.23,0,0,0,.25-.65m-.79-3.68a3.67,3.67,0,0,1,.54.75,2.37,2.37,0,0,1,.84,2.39c.43-1.11,0-2.3-1.38-3.14m-1.81-1h.05l-.23-1.13a5.67,5.67,0,0,1,.18,1.12M148,64.7a1,1,0,0,0-1,.85,1,1,0,0,1,.9-.56,1,1,0,0,1,1,1.32A1.09,1.09,0,0,0,148,64.7m-9.71-18.2a2.19,2.19,0,0,0,.14-.82,2,2,0,0,0-3.95-.6,2,2,0,0,1,3.86.88,2.92,2.92,0,0,1,0,.54m5-1c-.68,1.94-2.78,3.86-4.89,3.1l-1.31-.64-.26.2,1.48.72c2.21.8,4.41-1.34,5-3.38m.12-.39a2.76,2.76,0,0,1-.08.27l1.44-1.43a7.45,7.45,0,0,1,.18,1.54,4.75,4.75,0,0,1-.19,1.3,4.75,4.75,0,0,0,.28-1.59,7.52,7.52,0,0,0-.18-1.54Zm1.53-4a7.26,7.26,0,0,0,.41-2.36c0-4.61-4.87-8.91-10.1-6.25l-.3.15a5.14,5.14,0,0,0-5.13,0A6.86,6.86,0,0,0,127,36.37a6.94,6.94,0,0,1,2.72-3.43,5.14,5.14,0,0,1,5.13,0l.3-.16c5.23-2.65,10.1,1.64,10.1,6.26a7.66,7.66,0,0,1-.32,2.07M143,40.9a5.6,5.6,0,0,1-.26.68l0,0c.09-.24.17-.47.24-.71m-9.41.78c.74-1.83-1.57-4-3.32-2.26l-.66.84-.52-.95-.35.41-.08-2,.16-.72c0,.06-.05.13-.08.19l-.17.81.08,2,.35-.4.52.94.66-.84c1.66-1.64,3.82.22,3.41,2m6.47.18-.12.29,0,0v0a3.86,3.86,0,0,1,.53.86,3.82,3.82,0,0,1,.31.72,3,3,0,0,0-.75-1.87m-4.87-4.6-1.09-.69a6.37,6.37,0,0,1,1,.73l.06,0m5.24,2.39c.26-2.2-1.07-3.58-3.37-2.93a3,3,0,0,1,.9.13,2.25,2.25,0,0,1,2.41,2.43,2.2,2.2,0,0,1,.06.37m-2.4.56a1,1,0,0,0-2-.23,1,1,0,0,1,1.95.51.86.86,0,0,1,0,.23,1.13,1.13,0,0,0,.11-.51M145.76,89a5.38,5.38,0,0,0-.33-4.62c-1.68-2.65-4.89-4.21-7.8-2.21a5.24,5.24,0,0,0-2.15,2.78,5.38,5.38,0,0,1,2.06-2.49c2.91-2,6.12-.44,7.8,2.21a5.28,5.28,0,0,1,.42,4.33m.29,6.58a6.51,6.51,0,0,0,.37-2.22,8,8,0,0,0-.92-3.63,2.72,2.72,0,0,1-.11.25,8,8,0,0,1,.94,3.66,6.37,6.37,0,0,1-.28,1.94M134.66,92a2.08,2.08,0,0,0-1.49-2.92l-.89-.12c-1.67-.1-3.61,1.77-4.22,3.9.7-2,2.54-3.71,4.13-3.61l.89.12A2,2,0,0,1,134.66,92m9.57,3A5.22,5.22,0,0,1,143,96.85c-1.8,1.87-4,1.87-6.22.89-3.43,2.32-7-1.12-7-3.48a2.94,2.94,0,0,1,.1-.74,2.9,2.9,0,0,0-.19,1c0,2.35,3.56,5.8,7,3.47,2.22,1,4.42,1,6.22-.88a5.14,5.14,0,0,0,1.3-2.2m.13-5.47a5.46,5.46,0,0,1-.48,1l0,.08a4.75,4.75,0,0,0,.45-1m-5.6-5.64.25-.14-.08-.08-.38,0Zm.58,3.26a2.06,2.06,0,0,0-.47-2.23l-.61-.5-.25.15.77.64a2.06,2.06,0,0,1,.56,1.94M141,90l.61-1a7.65,7.65,0,0,1-.64.93l0,0m.48,4.07a3.38,3.38,0,0,0,.06-2,2.61,2.61,0,0,1-.05.48,3.47,3.47,0,0,1,0,1.51m-3,1.35a4.27,4.27,0,0,0,.93,0,3.52,3.52,0,0,0,1.89-2.3,3.23,3.23,0,0,1-2.82,2.25m-2.23-.54a4.46,4.46,0,0,1-1.68,1,2.57,2.57,0,0,0,.83-.11,5.06,5.06,0,0,0,.76-.55l.11,0a2.47,2.47,0,0,0,.27-.21l-.29-.13m2.78-2.48a1.17,1.17,0,0,0,.11-.52,1,1,0,0,0-2-.23,1,1,0,0,1,1.95.52,1.64,1.64,0,0,1,0,.23m-9.77-69.08A25.45,25.45,0,0,0,122.34,26l.15.16a24.52,24.52,0,0,1,6.7-2.56,19.58,19.58,0,0,1,3.73,6.09h.21a20.15,20.15,0,0,0-3.85-6.38M121.82,34a8.41,8.41,0,0,0,.24-4c-.27-1.73-1.94-3.15-3.6-3.76-1.11-3.33-3.23-5.22-6.79-5.28-3.32,0-5.55,2.21-6.57,5.28a5.47,5.47,0,0,0-3.53,3.48A5.58,5.58,0,0,1,105,26.52c1-3.07,3.24-5.33,6.57-5.28,3.56.05,5.68,2,6.79,5.28,1.66.61,3.33,2,3.6,3.75a8.68,8.68,0,0,1-.15,3.73m-1.77-.85A3.21,3.21,0,0,1,118.51,35l-1.55.59a4.39,4.39,0,0,0,0-1.84,2,2,0,0,0-3.86.12,2,2,0,0,1,3.77.16,4.44,4.44,0,0,1,0,1.85l1.55-.59a3.29,3.29,0,0,0,1.63-2.13m-14.58,2.36-1.33-1.16v0a4.92,4.92,0,0,1-.68-4.33,5,5,0,0,0,.59,4.61v0l1.44,1.25Zm1-.06-.91-.26v.32l.93.27q0-.15,0-.33m3.91-.29c1-2.61-2.95-4-3.79-1.4l0,.13c.91-2.34,4.42-1.11,3.82,1.27m-8.85-9.49.25-.22a19,19,0,0,0-7.08-1.7,26.19,26.19,0,0,0-2.94,6.54A25.92,25.92,0,0,1,94.61,24a18.88,18.88,0,0,1,6.92,1.64M74.25,55.53l.17-.12a27,27,0,0,1-2.15-5.6l-.13.1a25.43,25.43,0,0,0,2.11,5.62m2.47-10.18a19.38,19.38,0,0,0-6.16,4l0,.17a19.56,19.56,0,0,1,6-3.84,8.62,8.62,0,0,0,0,1.13l.1,0a9.09,9.09,0,0,1,0-1.38M82.23,62a3,3,0,0,0-1.52,0,1.83,1.83,0,0,0-1.26,1.39,1.76,1.76,0,0,1,1.17-1.1,3.34,3.34,0,0,1,1.69,0c0-.1,0-.21-.08-.31M74,62.23h0c0-.13.06-.26.1-.38a2.91,2.91,0,0,0-.12.39M82.73,74l-1.42,1.19h-.09a3.56,3.56,0,0,1-2.7.91,4.37,4.37,0,0,1-4.5-3.6,5.43,5.43,0,0,1-3.79-5.18,6.63,6.63,0,0,1,.23-1.54,6.14,6.14,0,0,0-.32,1.83,5.44,5.44,0,0,0,3.79,5.18,4.37,4.37,0,0,0,4.5,3.6,3.57,3.57,0,0,0,2.7-.91h.09L83,74Zm1.19.57c.75-2.16.18-4.66-1.31-5.52a2,2,0,0,0-1.24-.44,2,2,0,0,0-2,1.59,2,2,0,0,1,3.1-.86c1.43.82,2,3.14,1.4,5.23M73.49,60.44c-2.51.91-4.19,2.4-4.85,4.66a7.22,7.22,0,0,1,4.85-4.4Zm10.77,1.81-.13-1.38c-.49-3.25-3.88-4.8-7-4.12a4.64,4.64,0,0,0-2.66,1.8A7,7,0,0,0,73.59,60v.07a7.76,7.76,0,0,1,.76-1.27A4.59,4.59,0,0,1,77,57c3.15-.68,6.54.87,7,4.12l.13,1.37A5,5,0,0,1,84,63.9a5,5,0,0,0,.28-1.65M78.05,67.9a1.09,1.09,0,0,0-.9-1.61,1,1,0,0,0-1,.85,1,1,0,0,1,.91-.56,1,1,0,0,1,1,1.32m-.38,20.24.09,0a7.48,7.48,0,0,1,.16-1.7A24.34,24.34,0,0,1,72.4,84a29.63,29.63,0,0,1,.95-4.64,28,28,0,0,0-1,4.93,24.15,24.15,0,0,0,5.52,2.5,7.13,7.13,0,0,0-.16,1.39m-4.11-9.47a8.19,8.19,0,0,1-.89-1c-.27.68-.53,1.39-.75,2.11.2-.62.42-1.23.66-1.82a8.1,8.1,0,0,0,.89,1l.09-.28m29.2,28.53a7.8,7.8,0,0,1-1.06-1.31,24.1,24.1,0,0,1-5.62,2.25,26.67,26.67,0,0,1-2.81-4.6l-1.3,0,.12.29,1.08,0A27.85,27.85,0,0,0,96,108.43a24.14,24.14,0,0,0,5.62-2.26,6.85,6.85,0,0,0,.91,1.16l.24-.13m9.16-7.66a2.25,2.25,0,0,0-.27-2.07c-1-1.67-2.83-2-4.6-1.61a5,5,0,0,0-3.88,3.68,5,5,0,0,1,3.79-3.4c1.77-.36,3.57,0,4.6,1.61a2.37,2.37,0,0,1,.36,1.79m9.62,3.93a4.24,4.24,0,0,1-3.19,2.81c-.84,2.28-2.52,3.91-5,3.91s-4.19-1.62-5-3.91a4.71,4.71,0,0,1-3.31-6c-.83,2.37.12,5.66,3.21,6.33.84,2.29,2.51,3.92,5,3.92s4.19-1.63,5-3.92a4.25,4.25,0,0,0,3.28-3.09m-2.14-5.54.11,0-.05-.68-.12-.16Zm-.93,1.59a2.39,2.39,0,0,0,.15-.76l-.09-.76-.13,0,.13,1.09a3.55,3.55,0,0,1-.06.47m5,4.29a3.55,3.55,0,0,0,.17-.64c1.25-8.12-6.94-8.83-8.59-5.74a2.84,2.84,0,0,0-.39.85c.08-.19.19-.35.3-.56,1.65-3.09,9.84-2.38,8.59,5.74a3.59,3.59,0,0,1-.08.35m9.84-.72.2-.66-1.62-.15a25.76,25.76,0,0,1-2.42,5.68,25.33,25.33,0,0,1-5.14-1.19,9.55,9.55,0,0,1-1,.94l.16.07q.38-.34.72-.72a26,26,0,0,0,5.14,1.19,26,26,0,0,0,2.42-5.68l1.62.15c0,.12-.07.24-.11.37" transform="translate(0 -20.04)"/></g><path class="cls-10" d="M37,160.9H27.8l-9.33,26.9L9.29,160.9H0l1.3,4.9v42.88L.09,213.51H10.25L9,208.68V185.3l9.43,27.35L28,185.4v23.28l-1.25,4.83H36.9l-1.25-4.83V165.8Zm23.11,52.61H70.18l-1.93-4.87-6.68-42.8L62,160.9H48.31l.43,4.94-6.63,42.81-2,4.86H50.22l-.3-4.94L51.36,197,55,198.85l3.91-2,1.55,11.79Zm-2.19-25.06-2.82,1.48-2.61-1.25,2.13-16.5h1.22Zm35.86,25.06h8.78l-1.17-4.83V165.8l1.26-4.9H92.39l1.26,4.9v24.72L82.57,160.9H73.32l1.29,4.9v42.88l-1.21,4.83H83.53l-1.17-4.83-.12-26.09ZM105.6,160.9l1.3,4.9v42.88l-1.21,4.83h13.14c14.18,0,17.18-15.86,17.18-27.09,0-12-3.83-25.52-18.1-25.52Zm13.28,10.18c8.23,0,9.34,9.54,9.34,15.82a27.53,27.53,0,0,1-2,11c-1.39,3.12-3.65,5.54-7.28,5.54h-4.33V171.08Zm37,42.43H166L164,208.64l-6.67-42.8.47-4.94H144.11l.43,4.94-6.63,42.81-2,4.86H146l-.3-4.94L147.16,197l3.67,1.86,3.91-2,1.55,11.79Zm-2.19-25.06-2.83,1.48-2.6-1.25,2.13-16.5h1.22Zm38.52,25.06V202.86l-2.21,1.5H178.06V165.82l1-4.92h-10l1.3,4.9v42.88l-1.21,4.83Zm22.9,0h10.12l-1.93-4.87-6.68-42.8.47-4.94H203.34l.43,4.94-6.63,42.81-2,4.86h10.12l-.3-4.94L206.39,197l3.68,1.86,3.91-2,1.54,11.79Zm-2.19-25.06-2.82,1.48-2.61-1.25,2.13-16.5h1.22Z" transform="translate(0 -20.04)"/></g></g></svg>