<svg xmlns="http://www.w3.org/2000/svg" viewBox="0 0 124.22 89.05"><defs><style>.cls-1,.cls-12{fill:none;}.cls-1,.cls-12,.cls-3,.cls-4{stroke:#000;}.cls-1,.cls-3,.cls-4{stroke-linejoin:round;}.cls-1{stroke-width:0.32px;}.cls-2{fill:#4e242d;}.cls-3,.cls-4{fill:#d3592f;stroke-linecap:round;}.cls-3{stroke-width:0.31px;}.cls-4{stroke-width:0.25px;}.cls-5{fill:#bb0923;}.cls-6{fill:#1e120d;}.cls-10,.cls-7,.cls-8{fill:#fff;}.cls-7{opacity:0.1;}.cls-8{opacity:0.05;}.cls-9{opacity:0.2;}.cls-11{fill:#212951;}.cls-12{stroke-miterlimit:10;stroke-width:0.35px;}</style></defs><g id="Capa_2" data-name="Capa 2"><g id="Layer_1" data-name="Layer 1"><path class="cls-1" d="M62.39,20.25s1-7.32,2.21-9.6a13.52,13.52,0,0,1,6.58-6.37c3.14-1.22,3.72-.64,3.72-.64a21.6,21.6,0,0,0-2.44,4.67c-.37,1.6-.9,2.82.42,5.42a57.47,57.47,0,0,0-5,3.24,36.52,36.52,0,0,0-5.57,5.09Z"/><path class="cls-1" d="M63.5,20.73s5.39-5.06,7.73-6.1a13.51,13.51,0,0,1,9.13-.85c3.2,1,3.29,1.83,3.29,1.83a22.06,22.06,0,0,0-4.83,2.11c-1.28,1-2.46,1.63-3.06,4.49a57.11,57.11,0,0,0-6-.63,37.16,37.16,0,0,0-7.53.48Z"/><path class="cls-1" d="M64.06,21.8s7.37-.57,9.85.08a13.53,13.53,0,0,1,7.65,5.05c1.86,2.8,1.42,3.49,1.42,3.49a21.68,21.68,0,0,0-5.09-1.37c-1.63,0-2.94-.28-5.19,1.58a59.31,59.31,0,0,0-4.26-4.22,36.51,36.51,0,0,0-6.17-4.35Z"/><path class="cls-1" d="M63.83,23s6.1,4.18,7.63,6.24a13.49,13.49,0,0,1,2.8,8.72c-.3,3.35-1.08,3.61-1.08,3.61a21.42,21.42,0,0,0-3.11-4.26c-1.26-1-2.12-2-5-2a56.85,56.85,0,0,0-.67-6,36.44,36.44,0,0,0-2.09-7.26Z"/><path class="cls-1" d="M62.91,23.76s2.14,7.08,2,9.64A13.51,13.51,0,0,1,61.67,42c-2.32,2.43-3.1,2.14-3.1,2.14a21.72,21.72,0,0,0,.25-5.26c-.34-1.6-.37-2.93-2.67-4.73A56.18,56.18,0,0,0,59.36,29a36.94,36.94,0,0,0,2.91-7Z"/><path class="cls-1" d="M61.71,23.79s-2.76,6.86-4.44,8.8a13.58,13.58,0,0,1-7.92,4.61c-3.33.43-3.76-.27-3.76-.27a21.77,21.77,0,0,0,3.49-4c.74-1.46,1.55-2.52.88-5.36a57.57,57.57,0,0,0,5.67-1.94,36.19,36.19,0,0,0,6.64-3.62Z"/><path class="cls-1" d="M60.75,23.06s-6.45,3.62-9,4.08a13.53,13.53,0,0,1-9.06-1.36C39.85,24,40,23.21,40,23.21a21.22,21.22,0,0,0,5.19-.9c1.49-.67,2.78-1,4.05-3.62a57.53,57.53,0,0,0,5.63,2,36,36,0,0,0,7.44,1.33Z"/><path class="cls-1" d="M60.46,21.89s-7.3-1.21-9.55-2.44a13.48,13.48,0,0,1-6.21-6.73C43.55,9.56,44.15,9,44.15,9a21.72,21.72,0,0,0,4.61,2.55c1.59.41,2.79,1,5.43-.29a58.36,58.36,0,0,0,3.11,5.12,36,36,0,0,0,5,5.69Z"/><path class="cls-1" d="M61,20.8S56,15.28,55.05,12.92a13.43,13.43,0,0,1-.63-9.14C55.51.6,56.33.53,56.33.53a21.55,21.55,0,0,0,2,4.88,14,14,0,0,0,6.78,4.33,11.54,11.54,0,0,0-1.82,5.43c-.25,3.26-1.16,6.15-1,6.89Z"/><path class="cls-2" d="M65,17.27s.11-4.2,1-6,4.77-4.81,4.77-4.81a16.28,16.28,0,0,0-.9,7.49Z"/><path class="cls-2" d="M67.5,20.28s2.68-3.24,4.44-4.11,6.73-.83,6.73-.83a16.14,16.14,0,0,0-5.33,5.33Z"/><path class="cls-2" d="M67.7,23.86s4.11-.89,6-.49,5.81,3.5,5.81,3.5a16.22,16.22,0,0,0-7.49.9Z"/><path class="cls-2" d="M65.2,26.34s3.78,1.83,5,3.33S72.65,36,72.65,36a16.08,16.08,0,0,0-6.44-3.91Z"/><path class="cls-2" d="M62.53,27.61s1.36,4,1.18,5.94-2.81,6.16-2.81,6.16a16.12,16.12,0,0,0-1.76-7.33Z"/><path class="cls-2" d="M58.78,26s-1.06,4.06-2.29,5.6-5.74,3.6-5.74,3.6a16.09,16.09,0,0,0,2.57-7.09Z"/><path class="cls-2" d="M57,22.93s-3.45,2.39-5.38,2.76-6.7-1-6.7-1A16.23,16.23,0,0,0,51.47,21Z"/><path class="cls-2" d="M57.64,19.61s-4.19-.35-5.91-1.31-4.51-5.06-4.51-5.06a16.05,16.05,0,0,0,7.42,1.35Z"/><path class="cls-2" d="M61.23,17.58s-3-2.91-3.77-4.74-.32-6.76-.32-6.76a16.15,16.15,0,0,0,4.92,5.71Z"/><path class="cls-3" d="M56.33.53s7.76,1,7.44,8.78c0,0,7-7,11.13-5.67,0,0-2-2.6-9.7.2a10,10,0,0,0-2.07-2.39A8.45,8.45,0,0,0,56.33.53Z"/><path class="cls-4" d="M74.9,3.64s2.61,4.61-2.25,9.14c0,0,9.88-.83,11,2.83,0,0,.71-2.18-5.69-4.46,0,0-.12-2.83-.21-3.66A4.41,4.41,0,0,0,74.9,3.64Z"/><path class="cls-4" d="M83.65,15.61s-.85,5.27-7.48,5.74c0,0,8.24,5.52,6.81,9.07,0,0,1.91-1.21-1.65-7,0,0,1.68-2.28,2.14-3A4.51,4.51,0,0,0,83.65,15.61Z"/><path class="cls-4" d="M83,30.42s-4,3.61-9.45-.18c0,0,3,9.44-.35,11.31,0,0,2.21.28,3.08-6.46,0,0,2.73-.72,3.53-1A4.59,4.59,0,0,0,83,30.42Z"/><path class="cls-4" d="M73.18,41.55s-5.4.33-7.28-6c0,0-3.55,9.24-7.33,8.59,0,0,1.5,1.59,6.41-3.11,0,0,2.58,1.16,3.37,1.46A4.66,4.66,0,0,0,73.18,41.55Z"/><path class="cls-4" d="M58.57,44.09S54.11,41,56.66,34.81c0,0-8.53,5-11.07,2.12,0,0,.14,2.14,6.91,1.57,0,0,1.28,2.52,1.71,3.24A4.71,4.71,0,0,0,58.57,44.09Z"/><path class="cls-4" d="M45.59,36.93s-1.53-5.28,4.31-8.46c0,0-9.77-1.43-9.94-5.26,0,0-1.24,1.72,4.39,5.51,0,0-.59,2.77-.71,3.6A4.84,4.84,0,0,0,45.59,36.93Z"/><path class="cls-4" d="M40,23.21s2.12-5.11,8.66-3.92c0,0-6.74-7.21-4.47-10.3,0,0-2,.52,0,7,0,0-2.2,1.79-2.81,2.36A4.89,4.89,0,0,0,40,23.21Z"/><path class="cls-4" d="M44.19,8.82s4.85-2.51,9.2,2.52c0,0-.76-9.83,2.94-10.81,0,0-1.85-.88-4.37,5.43,0,0-2.83,0-3.67.07A4.7,4.7,0,0,0,44.19,8.82Z"/><circle class="cls-5" cx="74.42" cy="6.51" r="0.45"/><circle class="cls-5" cx="73.43" cy="7.65" r="0.45"/><circle class="cls-5" cx="73.3" cy="10.18" r="0.45"/><circle class="cls-5" cx="73.1" cy="8.95" r="0.45"/><circle class="cls-5" cx="74.77" cy="7.98" r="0.45"/><circle class="cls-5" cx="74.13" cy="9.14" r="0.45"/><circle class="cls-5" cx="81.48" cy="17.68" r="0.44"/><circle class="cls-5" cx="80.02" cy="17.94" r="0.44"/><circle class="cls-5" cx="78.35" cy="19.78" r="0.44"/><circle class="cls-5" cx="78.97" cy="18.72" r="0.44"/><circle class="cls-5" cx="80.83" cy="19.02" r="0.44"/><circle class="cls-5" cx="79.62" cy="19.51" r="0.44"/><circle class="cls-5" cx="80.07" cy="30.58" r="0.47"/><circle class="cls-5" cx="78.67" cy="29.85" r="0.47"/><circle class="cls-5" cx="76.05" cy="30.33" r="0.47"/><circle class="cls-5" cx="77.26" cy="29.83" r="0.47"/><circle class="cls-5" cx="78.65" cy="31.3" r="0.47"/><circle class="cls-5" cx="77.31" cy="30.92" r="0.47"/><circle class="cls-5" cx="70.73" cy="39.92" r="0.47"/><circle class="cls-5" cx="70.14" cy="38.44" r="0.47"/><circle class="cls-5" cx="67.84" cy="37.09" r="0.47"/><circle class="cls-5" cx="69.09" cy="37.51" r="0.47"/><circle class="cls-5" cx="69.18" cy="39.53" r="0.47"/><circle class="cls-5" cx="68.41" cy="38.37" r="0.47"/><circle class="cls-5" cx="57.67" cy="41.36" r="0.49"/><circle class="cls-5" cx="58.16" cy="39.78" r="0.49"/><circle class="cls-5" cx="57.19" cy="37.17" r="0.49"/><circle class="cls-5" cx="57.93" cy="38.33" r="0.49"/><circle class="cls-5" cx="56.67" cy="40.03" r="0.49"/><circle class="cls-5" cx="56.81" cy="38.58" r="0.49"/><circle class="cls-5" cx="46.55" cy="34.17" r="0.51"/><circle class="cls-5" cx="47.99" cy="33.22" r="0.51"/><circle class="cls-5" cx="48.92" cy="30.47" r="0.51"/><circle class="cls-5" cx="48.75" cy="31.89" r="0.51"/><circle class="cls-5" cx="46.61" cy="32.44" r="0.51"/><circle class="cls-5" cx="47.68" cy="31.36" r="0.51"/><circle class="cls-5" cx="42.68" cy="21.62" r="0.46"/><circle class="cls-5" cx="44.2" cy="21.77" r="0.46"/><circle class="cls-5" cx="46.38" cy="20.4" r="0.46"/><circle class="cls-5" cx="45.47" cy="21.28" r="0.46"/><circle class="cls-5" cx="43.69" cy="20.46" r="0.46"/><circle class="cls-5" cx="45.03" cy="20.32" r="0.46"/><circle class="cls-5" cx="46.93" cy="9.32" r="0.5"/><circle class="cls-5" cx="48.13" cy="10.5" r="0.5"/><circle class="cls-5" cx="50.93" cy="10.85" r="0.5"/><circle class="cls-5" cx="49.55" cy="10.97" r="0.5"/><circle class="cls-5" cx="48.6" cy="9.04" r="0.5"/><circle class="cls-5" cx="49.84" cy="9.84" r="0.5"/><circle class="cls-5" cx="58.73" cy="2.81" r="0.56"/><circle class="cls-5" cx="59.17" cy="4.64" r="0.56"/><circle class="cls-5" cx="61.62" cy="6.61" r="0.56"/><circle class="cls-5" cx="60.23" cy="5.91" r="0.56"/><circle class="cls-5" cx="60.47" cy="3.53" r="0.56"/><circle class="cls-5" cx="61.17" cy="5.02" r="0.56"/><circle class="cls-6" cx="62.27" cy="22.06" r="0.65"/><path class="cls-7" d="M57.14,6.08s-.42,5.45.43,7A19.55,19.55,0,0,0,60,16.33s-1.47-5.82-.65-7A12.22,12.22,0,0,1,57.14,6.08Z"/><path class="cls-7" d="M47.28,13.32s1.65,2.29,2.6,3.29a5.94,5.94,0,0,0,4.17,2.46s-2.63-2.6-2.94-4.69A12.39,12.39,0,0,1,47.28,13.32Z"/><path class="cls-7" d="M44.76,24.75s2.71.78,4.08,1a6,6,0,0,0,4.8-.65s-3.68-.42-5.21-1.87A12.21,12.21,0,0,1,44.76,24.75Z"/><path class="cls-7" d="M50.75,35.17a41.12,41.12,0,0,0,4.55-2.54A5.81,5.81,0,0,0,57.38,30s-3.72,2.26-5,1.77A19.53,19.53,0,0,1,50.75,35.17Z"/><path class="cls-7" d="M60.9,39.71a47.25,47.25,0,0,0,2.3-4.36,7.32,7.32,0,0,0,.53-2.14s-1.57,2.63-3.14,3.31A18.35,18.35,0,0,1,60.9,39.71Z"/><path class="cls-7" d="M68,32.8s1-3.27.53-4.58A5.68,5.68,0,0,1,71,31a35.34,35.34,0,0,1,1.62,5S71.56,34.65,68,32.8Z"/><path class="cls-8" d="M67.7,23.86s6.29.75,8.47,3a13.17,13.17,0,0,1,3.37,0s-3-2.16-4.52-3S71,23.2,67.7,23.86Z"/><path class="cls-7" d="M70.69,6.49a53.41,53.41,0,0,0-4.3,4.06c-.47.75,2.35,4.14,2.35,4.14L69.79,14A15.35,15.35,0,0,1,70.69,6.49Z"/><path class="cls-7" d="M70.4,17.27s3.08.15,4.3,1.45c0,0,2.74-2.95,4-3.38a27.91,27.91,0,0,0-5.58.45A4.66,4.66,0,0,0,70.4,17.27Z"/><g class="cls-9"><path class="cls-10" d="M61,1.23a2.4,2.4,0,0,1,1.16.34,5.67,5.67,0,0,1,1,.72,7.49,7.49,0,0,1,.79.9,5.35,5.35,0,0,1,.59,1c-.31-.26-.59-.53-.87-.8s-.54-.55-.83-.79A10.17,10.17,0,0,0,62,1.88,5,5,0,0,0,61,1.23Z"/></g><g class="cls-9"><path class="cls-10" d="M64.17,5.55A2.36,2.36,0,0,1,65,4.7a5.68,5.68,0,0,1,1.09-.51,8.14,8.14,0,0,1,1.17-.25,6,6,0,0,1,1.2,0c-.37.15-.75.26-1.12.38s-.74.21-1.1.35A9.64,9.64,0,0,0,65.21,5,5.37,5.37,0,0,0,64.17,5.55Z"/></g><g class="cls-9"><path class="cls-10" d="M46.55,7.19a2.4,2.4,0,0,1,1.1-.5,6.17,6.17,0,0,1,1.21-.09,7.93,7.93,0,0,1,1.19.17,5.17,5.17,0,0,1,1.12.4c-.4,0-.79,0-1.18,0s-.77-.06-1.15,0a8.68,8.68,0,0,0-1.14,0A5.07,5.07,0,0,0,46.55,7.19Z"/></g><g class="cls-9"><path class="cls-10" d="M52.34,8.63a2.44,2.44,0,0,1-.23-1.19,5.91,5.91,0,0,1,.19-1.19,7.24,7.24,0,0,1,.44-1.12,5.85,5.85,0,0,1,.64-1c-.08.39-.19.76-.3,1.14s-.24.73-.32,1.11a8.44,8.44,0,0,0-.28,1.1A5.4,5.4,0,0,0,52.34,8.63Z"/></g><g class="cls-9"><path class="cls-10" d="M40.91,20.3a2.44,2.44,0,0,1,.45-1.12,5.33,5.33,0,0,1,.8-.91,7.47,7.47,0,0,1,1-.7,5.69,5.69,0,0,1,1.09-.5c-.29.3-.59.54-.88.8s-.59.49-.86.76a8.91,8.91,0,0,0-.84.78A5.33,5.33,0,0,0,40.91,20.3Z"/></g><g class="cls-9"><path class="cls-10" d="M46.34,17.51a2.44,2.44,0,0,1-1-.69,5.66,5.66,0,0,1-.69-1,7.58,7.58,0,0,1-.47-1.1A6,6,0,0,1,44,13.55a11.76,11.76,0,0,1,.57,1c.19.34.34.69.55,1a8.71,8.71,0,0,0,.56,1A5.2,5.2,0,0,0,46.34,17.51Z"/></g><g class="cls-9"><path class="cls-10" d="M44.32,34A2.36,2.36,0,0,1,44,32.87a5.44,5.44,0,0,1,.08-1.21,7.6,7.6,0,0,1,.34-1.15A5.37,5.37,0,0,1,45,29.45c0,.4-.13.79-.21,1.17s-.17.75-.22,1.13a10.87,10.87,0,0,0-.18,1.12A5.58,5.58,0,0,0,44.32,34Z"/></g><g class="cls-9"><path class="cls-10" d="M46.92,28.5a2.26,2.26,0,0,1-1.21.05,5.34,5.34,0,0,1-1.16-.35,8.19,8.19,0,0,1-1-.59,6.14,6.14,0,0,1-.9-.79c.38.14.73.31,1.09.47s.69.34,1,.47a8.65,8.65,0,0,0,1,.44A5.13,5.13,0,0,0,46.92,28.5Z"/></g><g class="cls-9"><path class="cls-10" d="M55.91,42.66a2.42,2.42,0,0,1-.92-.79,5.19,5.19,0,0,1-.6-1A8.88,8.88,0,0,1,54,39.68a5.93,5.93,0,0,1-.12-1.19c.19.36.33.72.48,1.08s.27.72.44,1.07a9.57,9.57,0,0,0,.47,1A5.39,5.39,0,0,0,55.91,42.66Z"/></g><g class="cls-9"><path class="cls-10" d="M54.63,36.87a2.27,2.27,0,0,1-1,.71,5.34,5.34,0,0,1-1.16.35,8.06,8.06,0,0,1-1.2.08,4.72,4.72,0,0,1-1.18-.16c.39-.09.78-.15,1.16-.21s.76-.1,1.14-.18a10.55,10.55,0,0,0,1.12-.22A5,5,0,0,0,54.63,36.87Z"/></g><g class="cls-9"><path class="cls-10" d="M76.45,6a2.33,2.33,0,0,1,.64,1,6.15,6.15,0,0,1,.25,1.19,7.87,7.87,0,0,1,0,1.19,5.8,5.8,0,0,1-.25,1.17A11.6,11.6,0,0,1,77,9.39c0-.39,0-.77-.1-1.15a8.5,8.5,0,0,0-.13-1.13A5,5,0,0,0,76.45,6Z"/></g><g class="cls-9"><path class="cls-10" d="M75.93,11.3a2.43,2.43,0,0,1,1.2-.05,5.18,5.18,0,0,1,1.16.35,7.13,7.13,0,0,1,1,.59,5.21,5.21,0,0,1,.91.78c-.39-.14-.74-.31-1.09-.47s-.69-.33-1.05-.47A9.79,9.79,0,0,0,77,11.6,5.2,5.2,0,0,0,75.93,11.3Z"/></g><g class="cls-9"><path class="cls-10" d="M80.92,32.67a2.34,2.34,0,0,1-1,.73,5.15,5.15,0,0,1-1.15.37,7.86,7.86,0,0,1-1.19.11,5.94,5.94,0,0,1-1.19-.13c.39-.11.78-.17,1.16-.24s.76-.11,1.13-.21a10.62,10.62,0,0,0,1.12-.24A5.69,5.69,0,0,0,80.92,32.67Z"/></g><g class="cls-9"><path class="cls-10" d="M75.22,33.19a2.44,2.44,0,0,1,.45,1.12,5.46,5.46,0,0,1,.06,1.21,9.09,9.09,0,0,1-.21,1.18,5.58,5.58,0,0,1-.44,1.11,11.5,11.5,0,0,1,.08-1.18c0-.38.08-.76.09-1.14a10.88,10.88,0,0,0,.06-1.14A5.73,5.73,0,0,0,75.22,33.19Z"/></g><g class="cls-9"><path class="cls-10" d="M70.13,41.9a2.22,2.22,0,0,1-1.2.07,5.71,5.71,0,0,1-1.16-.33,9.69,9.69,0,0,1-1-.58,5.21,5.21,0,0,1-.91-.78c.38.13.73.3,1.09.45s.7.34,1.06.47a9.73,9.73,0,0,0,1.06.42A5,5,0,0,0,70.13,41.9Z"/></g><g class="cls-9"><path class="cls-10" d="M66.1,38.42a2.31,2.31,0,0,1-.38,1.14,5.41,5.41,0,0,1-.75.95,7.36,7.36,0,0,1-.93.76,5.64,5.64,0,0,1-1.06.56c.27-.31.55-.58.83-.85s.57-.52.82-.8a10.24,10.24,0,0,0,.79-.83A5.29,5.29,0,0,0,66.1,38.42Z"/></g><g class="cls-9"><path class="cls-10" d="M83.45,18.63a2.32,2.32,0,0,1-.21,1.19,5.67,5.67,0,0,1-.59,1.05,6.85,6.85,0,0,1-.81.89,5.54,5.54,0,0,1-1,.71c.21-.34.46-.65.69-1s.48-.6.69-.92a9.82,9.82,0,0,0,.66-.93A5.27,5.27,0,0,0,83.45,18.63Z"/></g><g class="cls-9"><path class="cls-10" d="M79,22.63a2.39,2.39,0,0,1,1.11.47,5.29,5.29,0,0,1,.89.81,7.92,7.92,0,0,1,.69,1,4.89,4.89,0,0,1,.48,1.1c-.28-.29-.53-.59-.78-.89s-.48-.6-.75-.87a8.85,8.85,0,0,0-.76-.85A5.8,5.8,0,0,0,79,22.63Z"/></g><path class="cls-11" d="M33,56.55c-.75-7.65,4-7.84,8.23-6.9,2.51.56,4.84,1.07,6.07-.44h1C46,52.15,44.21,52,41.73,51.45L39.2,63.66H36.55L39.22,51c-1.75-.19-3-.17-3.77.6-.65.59-.48,2.17.15,3.71Z"/><path class="cls-11" d="M50.78,60.35c-1.49,2.77-3.07,3.48-5.26,3.42-3.63-.11-3.69-4.71-1.9-7.55,1.46-2.27,4-2.75,5.05-1.83a2.74,2.74,0,0,1,.42,3.39A4.27,4.27,0,0,1,45,59.91a2.7,2.7,0,0,0,1.19,2.4c1.48.69,3-.46,3.94-2ZM45,59c3,.09,3.38-3.56,2.9-3.94s-1.23.07-1.92,1.17a7.26,7.26,0,0,0-1,2.56C45,58.87,45,59,45,59Z"/><path class="cls-11" d="M59.34,54.05,56.42,68.46H53.76l1.06-5.11c-1.71.81-4,.42-4.57-1.65a6.57,6.57,0,0,1,.17-3.6c.85-2.69,3.52-5.51,6.17-3.42l.13-.63Zm-3,1.52c-2.21-1.85-3.31,1.84-3.52,3.72a4.14,4.14,0,0,0,.21,2.31,1.31,1.31,0,0,0,2,.67Z"/><path class="cls-11" d="M70,60.33c-1.23,3.5-5.3,4.79-5.77,1.73-2,2.52-5.57,2.58-4.76-1.84l1.23-6.17h2.61c-.59,3.13-1.07,5.42-1.46,7.55s1.5.85,2.35-.75c0-.19.07-.4,1.28-6.8H68.1c-.58,3.13-1,5.32-1.4,7.55s2,.56,2.59-1.27Z"/><path class="cls-11" d="M75.11,60.26c-1.52,4.15-7.32,5.26-6.24-.12l1.27-6.09h2.65c-.62,3.25-1.06,5.23-1.5,7.49s2.42.6,3.07-1.28Zm-4.36-7.71a1.49,1.49,0,0,1-.4-1.08,1.57,1.57,0,0,1,.44-1.07A1.51,1.51,0,0,1,71.88,50a1.39,1.39,0,0,1,1.06.44,1.42,1.42,0,0,1,.46,1.07,1.4,1.4,0,0,1-.48,1.08,1.52,1.52,0,0,1-1.09.42A1.45,1.45,0,0,1,70.75,52.55Z"/><path class="cls-11" d="M79.92,60.43c-1.44,3.94-6.86,5-5.85-.14l2-10.08h2.6c-.66,3.26-1.91,9.24-2.35,11.45s2.25.56,2.85-1.23Z"/><path class="cls-11" d="M90.66,60.37c-1.33,3.54-5.94,4.79-6.19,1.48-2,3-6.42,2.48-6.07-1.5.27-3.09,1.79-6.19,5.23-6.3h4.86l-.16.73c-.59,2.94-1,4.65-1.44,6.86s2.38.54,3-1.27Zm-5.21-4.55c-1.17-2.14-3.44-.06-4.11,3-.73,3.48.54,5.29,3.19,1.71Z"/><path class="cls-11" d="M26.57,64.8l-4.84,24-4.44,0,3.32-14.72L12.23,88.8h-4L9.79,74.14,3,88.8H0L9.86,67.49c-2,.32-4.07.7-5.12,2-.84,1-.61,3.52.51,5.51L.9,77c-.42-4.16.44-7.3,2.3-9.06a11.61,11.61,0,0,1,5.86-2.72,30.62,30.62,0,0,1,6.34-.42l-2,15.72,9-15.65Z"/><path class="cls-11" d="M45.45,83.36c-2.21,5.89-9.89,8-10.31,2.47-3.39,5-10.69,4.13-10.11-2.5.44-5.15,3-10.31,8.7-10.5h8.1l-.25,1.22c-1,4.89-1.67,7.74-2.4,11.42s4,.9,5-2.11Zm-8.67-7.58c-2-3.56-5.73-.1-6.85,5.08-1.22,5.8.89,8.81,5.31,2.86Z"/><path class="cls-11" d="M63.15,83.23C60.33,90.6,51.66,91.4,53.07,83c.44-2.24.86-4.48,1.28-6.72.7-3.68-3.62-1.06-4.81,1.89l-2,10.63H43l3.24-16H50.6l-.48,2.4c3.46-3.9,9.54-3.78,8.19,3.43-.76,4-.57,2.81-1.28,6.72s3.84,1,4.87-2.15Z"/><path class="cls-11" d="M80.46,83.2c-2.21,6-9.89,8.16-10.31,2.5C66.73,90.82,59.47,89.92,60,83.2c.83-9.7,8.93-12,11.68-9.7.13.13.26.29.42.48l1.54-7.55H78c-1.15,5.86-3,15.17-3.75,18.92s3.88,1,4.93-2.15Zm-8.67-7.58c-2-3.53-5.76-.1-6.82,5.12-1.28,5.82.86,8.87,5.31,2.85a2.59,2.59,0,0,1,.07-.55Z"/><path class="cls-11" d="M97.9,83.36c-2.2,5.89-9.88,8-10.3,2.47-3.39,5-10.69,4.13-10.12-2.5.45-5.15,3-10.31,8.71-10.5h8.1L94,74.05c-1,4.89-1.66,7.74-2.4,11.42s4,.9,5-2.11Zm-8.67-7.58c-2-3.56-5.73-.1-6.85,5.08-1.22,5.8.9,8.81,5.31,2.86Z"/><path class="cls-11" d="M105.68,83.46c-2.4,6.56-11.43,8.32-9.73-.23l3.36-16.8h4.32c-1.08,5.44-3.17,15.4-3.9,19.08s3.74.92,4.73-2.05Z"/><path class="cls-11" d="M123.57,83.36c-2.21,5.89-9.89,8-10.3,2.47-3.4,5-10.69,4.13-10.12-2.5.45-5.15,3-10.31,8.71-10.5H120l-.26,1.22c-1,4.89-1.67,7.74-2.4,11.42s4,.9,5-2.11Zm-8.67-7.58c-2-3.56-5.73-.1-6.85,5.08-1.22,5.8.9,8.81,5.31,2.86Z"/><path d="M122,71.07V69.33h.77a1.11,1.11,0,0,1,.36,0,.39.39,0,0,1,.19.17.48.48,0,0,1,.07.26.43.43,0,0,1-.12.31.61.61,0,0,1-.37.17.37.37,0,0,1,.14.08,1.11,1.11,0,0,1,.19.23l.31.48h-.29L123,70.7l-.17-.23a.34.34,0,0,0-.12-.12l-.1,0h-.4v.78Zm.23-1h.5a.75.75,0,0,0,.24,0,.3.3,0,0,0,.14-.1.3.3,0,0,0,.05-.16.25.25,0,0,0-.09-.2.4.4,0,0,0-.29-.08h-.55Z"/><path class="cls-12" d="M124.05,70.2a1.4,1.4,0,1,1-1.4-1.3A1.35,1.35,0,0,1,124.05,70.2Z"/></g></g></svg>