<svg xmlns="http://www.w3.org/2000/svg" viewBox="0 0 444.82 280.37"><defs><style>.cls-1{fill:#3a3838;}</style></defs><g id="Capa_2" data-name="Capa 2"><g id="Capa_1-2" data-name="Capa 1"><path class="cls-1" d="M434.25,32,412.84,10.56A36.55,36.55,0,0,0,386.87,0a35,35,0,0,0-25.7,10.56L222.41,149.32,83.65,10.56A35,35,0,0,0,58,0,36.6,36.6,0,0,0,32,10.56L10.85,32A35.45,35.45,0,0,0,0,58a34,34,0,0,0,10.85,25.7L196.71,269.52a34,34,0,0,0,25.7,10.85,35.45,35.45,0,0,0,26-10.85L434.25,83.66A35,35,0,0,0,444.82,58,36.53,36.53,0,0,0,434.25,32Z"/></g></g></svg>