<svg xmlns="http://www.w3.org/2000/svg" viewBox="0 0 158.81 55.95"><defs><style>.cls-1,.cls-2{fill:#fff;}.cls-2{fill-rule:evenodd;}</style></defs><g id="Capa_2" data-name="Capa 2"><g id="Layer_1" data-name="Layer 1"><path class="cls-1" d="M49.8,1.83h1.52V4.15a1.18,1.18,0,0,1-.15.48,1.18,1.18,0,0,1-.26.28.79.79,0,0,1-.34.15,1.51,1.51,0,0,1,.26.12,1.09,1.09,0,0,1,.22.18.86.86,0,0,1,.19.31l.08-.75V9a1.38,1.38,0,0,1-.26.6,1.54,1.54,0,0,1-.37.33,1,1,0,0,1-.47.17h4a1.07,1.07,0,0,1-.48-.17,1.35,1.35,0,0,1-.36-.33,1.38,1.38,0,0,1-.26-.6V6a1.13,1.13,0,0,1,.15-.49,1.08,1.08,0,0,1,.27-.29.84.84,0,0,1,.33-.16.77.77,0,0,1-.26-.1,1.46,1.46,0,0,1-.22-.18,1,1,0,0,1-.19-.31l-.08.75V1.83h1.53a1.51,1.51,0,0,1,.6.26,1.35,1.35,0,0,1,.33.36,1.66,1.66,0,0,1,.17.47V0H48.7V2.92a1.07,1.07,0,0,1,.17-.47,1.2,1.2,0,0,1,.33-.36,1.51,1.51,0,0,1,.6-.26"/><path class="cls-1" d="M57.9,4.92V9a1.52,1.52,0,0,1-.27.6,1.35,1.35,0,0,1-.36.33,1.07,1.07,0,0,1-.47.17h7.51V7.22a1.44,1.44,0,0,1-.17.45,1.35,1.35,0,0,1-.32.37,1.41,1.41,0,0,1-.59.27H59.72V6h1.82a1.33,1.33,0,0,1,.58.11,1,1,0,0,1,.34.22.65.65,0,0,1,.18.31V3.51a.79.79,0,0,1-.19.33,1.05,1.05,0,0,1-.33.22,1.39,1.39,0,0,1-.59.1H59.72V1.83h3.5a1.51,1.51,0,0,1,.6.26,1.48,1.48,0,0,1,.32.36,1.66,1.66,0,0,1,.17.47V0H56.8a1.07,1.07,0,0,1,.47.17,1.61,1.61,0,0,1,.36.34,1.52,1.52,0,0,1,.27.6v3a1.23,1.23,0,0,1-.16.48,1.18,1.18,0,0,1-.26.28.84.84,0,0,1-.33.16,1.12,1.12,0,0,1,.26.11,1.09,1.09,0,0,1,.22.18,1,1,0,0,1,.19.31Z"/><path class="cls-1" d="M70.17,1.83a2.67,2.67,0,0,1,1,.19,3.24,3.24,0,0,1,.84.49,2.89,2.89,0,0,1,.64.75,3.48,3.48,0,0,1,.4,1h0a.11.11,0,0,0,0,0,.64.64,0,0,0,0,.15c0,.08,0,.19,0,.33a2.94,2.94,0,0,1,0,.44l0,0v0s0,0,0,0,0-.12,0-.21A1,1,0,0,0,73,4.6a.57.57,0,0,1-.29.36l-.21.11.1,0a.62.62,0,0,1,.17.1,1.11,1.11,0,0,1,.18.19,1,1,0,0,1,.12.33,3.34,3.34,0,0,1-.37,1,3.06,3.06,0,0,1-1.52,1.35,2.68,2.68,0,0,1-1,.19,2.6,2.6,0,0,1-1-.19,2.78,2.78,0,0,1-.84-.51,3.29,3.29,0,0,1-.65-.78,3.18,3.18,0,0,1-.39-1,.43.43,0,0,0,0,0,.2.2,0,0,0,0-.07,2.49,2.49,0,0,1,0-.34,3,3,0,0,1,0-.45V5a.28.28,0,0,0,0,.09.83.83,0,0,1,.05.2,1.45,1.45,0,0,0,.07.26.6.6,0,0,1,.3-.34.78.78,0,0,1,.22-.09l-.11,0a.66.66,0,0,1-.16-.11,1.2,1.2,0,0,1-.18-.2.8.8,0,0,1-.12-.31,3.25,3.25,0,0,1,.37-1,3.07,3.07,0,0,1,.64-.82A3.22,3.22,0,0,1,69.16,2a2.67,2.67,0,0,1,1-.2M65.42,5.59a5.07,5.07,0,0,0,.5,1.78A5.4,5.4,0,0,0,67,8.8a5.09,5.09,0,0,0,1.45,1,4.78,4.78,0,0,0,3.14.14,2.83,2.83,0,0,0,.85.77,2.91,2.91,0,0,0,1.06.33h.26a2.83,2.83,0,0,0,.85-.13,2.87,2.87,0,0,0,1-.58,1.21,1.21,0,0,1-.55.14h-.12a1.78,1.78,0,0,1-.66-.22,2,2,0,0,1-.59-.47,3.3,3.3,0,0,1-.44-.66L73,9.24a1.92,1.92,0,0,1-.32.14l-.21.09-.23,0,.49-.2a3.07,3.07,0,0,0,.4-.26l0,0,.06,0a5.09,5.09,0,0,0,1.18-1.49,5.24,5.24,0,0,0,.56-1.9V5.31a1.62,1.62,0,0,0,0-.23l0-.21a.27.27,0,0,1,0,.12.76.76,0,0,0,0,.11l0,.18a.77.77,0,0,0,0,.15,1,1,0,0,1,.17-.18.74.74,0,0,1,.16-.12.44.44,0,0,1,.17-.06A.62.62,0,0,1,75.3,5l-.19-.15a.9.9,0,0,1-.17-.26,5.19,5.19,0,0,0-.5-1.79,5.25,5.25,0,0,0-1-1.45,5,5,0,0,0-1.47-1,4.5,4.5,0,0,0-3.48,0A4.78,4.78,0,0,0,67,1.28,5.09,5.09,0,0,0,66,2.69a5.42,5.42,0,0,0-.53,1.74.07.07,0,0,1,0,.05v.06a1.1,1.1,0,0,0,0,.18.19.19,0,0,0,0,.07,1.41,1.41,0,0,0,0,.22l0,.2a.93.93,0,0,1,0-.13s0-.08,0-.12a.39.39,0,0,1,0-.14.59.59,0,0,0,0-.13.69.69,0,0,1-.17.2A.82.82,0,0,1,65,5a.45.45,0,0,1-.18.07.51.51,0,0,1,.22.09,1.27,1.27,0,0,1,.2.16.91.91,0,0,1,.18.27"/><path class="cls-1" d="M80.21,10.12h1a2.83,2.83,0,0,0,1.16-.24,2.8,2.8,0,0,0,1-.64,3,3,0,0,0,.64-1,3.09,3.09,0,0,0,.23-1.17V6a1.13,1.13,0,0,1,.15-.49,1.24,1.24,0,0,1,.26-.29A.79.79,0,0,1,85,5.07,1,1,0,0,1,84.72,5a1.09,1.09,0,0,1-.22-.18.86.86,0,0,1-.19-.31l-.08.75V1.09a1.47,1.47,0,0,1,.23-.55,1.65,1.65,0,0,1,.33-.32A1,1,0,0,1,85.1.06l.2,0h-4l.2,0a1,1,0,0,1,.31.16,1.47,1.47,0,0,1,.33.33,1.47,1.47,0,0,1,.23.55V4.15a1.18,1.18,0,0,1-.16.48.88.88,0,0,1-.26.28.84.84,0,0,1-.33.16,1,1,0,0,1,.26.11,1.09,1.09,0,0,1,.22.18,1,1,0,0,1,.19.31l.08-.75v2.2a1.14,1.14,0,0,1-1.16,1.16h-1a1.14,1.14,0,0,1-1.16-1.16V4.92l.08.75a.73.73,0,0,1,.18-.31,1.47,1.47,0,0,1,.23-.18,1,1,0,0,1,.26-.11,1,1,0,0,1-.34-.16,1.18,1.18,0,0,1-.26-.28,1,1,0,0,1-.15-.48V1.1a1.38,1.38,0,0,1,.26-.6,1.8,1.8,0,0,1,.36-.33A1.35,1.35,0,0,1,80.13,0h-4a1.28,1.28,0,0,1,.46.17A1.83,1.83,0,0,1,77,.5a1.38,1.38,0,0,1,.25.6V4.15a1,1,0,0,1-.15.48,1,1,0,0,1-.26.28.82.82,0,0,1-.34.16.85.85,0,0,1,.26.11,1.09,1.09,0,0,1,.22.18.87.87,0,0,1,.2.31l.07-.75v2.2a2.92,2.92,0,0,0,.24,1.17,2.7,2.7,0,0,0,.64,1,2.8,2.8,0,0,0,1,.64,2.92,2.92,0,0,0,1.17.24"/><path class="cls-1" d="M87.43,4.92V9a1.52,1.52,0,0,1-.27.6,1.35,1.35,0,0,1-.36.33,1,1,0,0,1-.46.17h4a1,1,0,0,1-.47-.17,1.54,1.54,0,0,1-.37-.33,1.38,1.38,0,0,1-.25-.6V6a1,1,0,0,1,.14-.49,1.27,1.27,0,0,1,.27-.29A.74.74,0,0,1,90,5.07.85.85,0,0,1,89.75,5a1.12,1.12,0,0,1-.23-.18.86.86,0,0,1-.19-.31l-.07.75V1.11a1.38,1.38,0,0,1,.25-.6,1.88,1.88,0,0,1,.37-.34A1,1,0,0,1,90.35,0h-4a1,1,0,0,1,.46.17,1.61,1.61,0,0,1,.36.34,1.52,1.52,0,0,1,.27.6v3a1.09,1.09,0,0,1-.16.48,1.16,1.16,0,0,1-.25.28.84.84,0,0,1-.33.16.91.91,0,0,1,.25.11,1.05,1.05,0,0,1,.42.49Z"/><path class="cls-1" d="M92.49,4.92V9a1.52,1.52,0,0,1-.27.6,1.54,1.54,0,0,1-.37.33,1,1,0,0,1-.46.17h7.5V7.22a1.21,1.21,0,0,1-.16.45,1.35,1.35,0,0,1-.32.37,1.41,1.41,0,0,1-.59.27H94.31V6a1,1,0,0,1,.15-.49,1.24,1.24,0,0,1,.26-.29.79.79,0,0,1,.34-.15A1,1,0,0,1,94.8,5a1.47,1.47,0,0,1-.23-.18.73.73,0,0,1-.18-.31l-.08.75V1.06a1.35,1.35,0,0,1,.26-.58,1.42,1.42,0,0,1,.36-.31A1.35,1.35,0,0,1,95.39,0h-4a1,1,0,0,1,.46.17,1.88,1.88,0,0,1,.37.34,1.52,1.52,0,0,1,.27.6v3a1.23,1.23,0,0,1-.16.48,1.43,1.43,0,0,1-.26.28.84.84,0,0,1-.33.16,1.12,1.12,0,0,1,.26.11,1.46,1.46,0,0,1,.22.18,1,1,0,0,1,.19.31Z"/><path class="cls-1" d="M105.87,6.45h-1.6l.8-1.85ZM109,9.08l-1.37-3.15-.16-.37-.15-.35.15.24a.33.33,0,0,1,.07-.16.34.34,0,0,1,.12-.12l.14-.11a.76.76,0,0,1-.27-.06,1.58,1.58,0,0,1-.23-.11.55.55,0,0,1-.2-.2l-2-4.69-1.94,4.48-.07.17-.11.22-.14.34v0l.08-.36-.19.13-.18.07-.2,0,.18.15a.61.61,0,0,1,.12.15.35.35,0,0,1,0,.14.19.19,0,0,1,0,.08l-1.5,3.48a2.27,2.27,0,0,1-.33.54,1.4,1.4,0,0,1-.33.32,1.07,1.07,0,0,1-.29.16l-.16.05h4l-.23-.06a1.41,1.41,0,0,1-.37-.18,1,1,0,0,1-.3-.32.44.44,0,0,1-.08-.25,1.2,1.2,0,0,1,0-.24l.35-.81h3.19L107,9a.68.68,0,0,1,.07.29.39.39,0,0,1-.07.23.8.8,0,0,1-.3.33,1.3,1.3,0,0,1-.37.19l-.24.06h4a1.11,1.11,0,0,1-.39-.17,1.87,1.87,0,0,1-.36-.31,2.15,2.15,0,0,1-.36-.57"/><path class="cls-2" d="M26.05,18.85H19.6L13,37.82l-6.47-19H0l.91,3.46V52.55L.06,56H7.23l-.85-3.4V36.06L13,55.35l6.68-19.22V52.55L18.83,56H26l-.88-3.4V22.31ZM42.35,56h7.14l-1.37-3.43-4.7-30.18.33-3.49H34.07l.3,3.49L29.69,52.52,28.27,56h7.14l-.21-3.48,1-8.17,2.59,1.32,2.75-1.41,1.09,8.31ZM40.81,38.28l-2,1L37,38.44l1.5-11.63h.86ZM66.09,56h6.2l-.83-3.41V22.31l.89-3.46h-7.2L66,22.31V39.74L58.22,18.85H51.7l.91,3.46V52.55L51.76,56H58.9l-.83-3.41L58,34.15Zm8.38-37.1.91,3.46V52.55L74.53,56H83.8c10,0,12.11-11.18,12.11-19.1,0-8.49-2.7-18-12.77-18ZM83.83,26c5.8,0,6.58,6.73,6.58,11.16A19.28,19.28,0,0,1,89,45c-1,2.21-2.57,3.91-5.13,3.91H80.84V26ZM109.9,56H117l-1.36-3.43L111,22.34l.33-3.49h-9.68l.3,3.49L97.24,52.52,95.82,56H103l-.21-3.48,1-8.17,2.59,1.32,2.75-1.41,1.09,8.31Zm-1.54-17.67-2,1-1.84-.89L106,26.81h.86ZM135.52,56V48.44L134,49.5h-8.41V22.32l.71-3.47h-7l.91,3.46V52.55l-.85,3.4Zm16.15,0h7.14l-1.36-3.43-4.71-30.18.33-3.49h-9.68l.3,3.49L139,52.52,137.59,56h7.14l-.21-3.48,1-8.17,2.59,1.32,2.75-1.41L152,52.52Zm-1.54-17.67-2,1-1.84-.89,1.5-11.63h.86Z"/></g></g></svg>