<svg xmlns="http://www.w3.org/2000/svg" viewBox="0 0 310.42 310.42"><g id="Capa_2" data-name="Capa 2"><g id="Capa_1-2" data-name="Capa 1"><path d="M215,36.83A126,126,0,0,0,36.83,215c41.67,41.67,103.63,48,152,18.95,0,0,3.5-2.09,6.31.73l64.27,64.26c12.79,12.79,30.67,15.84,42,4.5l1.95-2c11.34-11.34,8.3-29.23-4.49-42L234.78,195.3a5.39,5.39,0,0,1-.87-6.45C262.94,140.46,256.63,78.5,215,36.83ZM191.71,191.71a93.07,93.07,0,1,1,0-131.62A93.17,93.17,0,0,1,191.71,191.71Z"/><path d="M118.42,183.67a13,13,0,0,1-18.06,12A81.93,81.93,0,0,1,56.88,88.38,13,13,0,1,1,80.82,98.51a55.91,55.91,0,0,0,29.67,73.18A13,13,0,0,1,118.42,183.67Z"/></g></g></svg>