<svg xmlns="http://www.w3.org/2000/svg" viewBox="0 0 384 384"><defs><style>.cls-1{fill:#fff;}</style></defs><g id="Capa_2" data-name="Capa 2"><g id="Capa_1-2" data-name="Capa 1"><path class="cls-1" d="M217.82,384H0V0H152a23.71,23.71,0,0,1-2.46.7c-8.68,1.51-17.53,2.39-26,4.58A164.63,164.63,0,0,0,.91,154.06,47.06,47.06,0,0,0,1.21,166C2.46,172.32,9,176.72,15.1,176.12a13.84,13.84,0,0,0,12.51-13.2c.32-5.35.25-10.76,1-16.06q7.89-56.64,53-91.78c5.93-4.61,12.47-8.43,18.7-12.6l7,8.46c2.13,2.61,4.22,5.25,6.39,7.83,6.69,8,14.75,8.31,22.17.93q13-12.95,25.93-26c3.62-3.62,7.35-7.14,10.8-10.91,6.62-7.23,4.76-17.16-3.91-21.66A18.28,18.28,0,0,1,166.92,0H384V218.25a6,6,0,0,1-.38-.64c-3.39-7.39-9.08-10.88-15.43-9.48-7.19,1.59-10.82,6.81-11.16,15.14a145.29,145.29,0,0,1-1.68,19c-5.92,34.07-22.3,62.18-49,84-6.86,5.62-14.52,10.27-21.8,15.35-5.32-6.49-9.87-12.28-14.7-17.84-5.23-6-13.61-6.61-19.28-1.06-13,12.75-25.94,25.62-38.6,38.73-6.53,6.76-4.48,16.69,3.8,21.15C216.48,383,217.14,383.55,217.82,384ZM368.19,140.85A34.64,34.64,0,0,0,357.4,115.7c-19.24-19.07-38.31-38.31-57.46-57.47C288.56,46.84,277.32,35.3,265.7,24.16c-7.26-6.95-16.31-9.17-26.27-7.92-10.64,1.34-19.05,6.66-26.49,14.12Q122,121.62,31,212.79c-1.4,1.41-2.81,2.85-4.11,4.36-12.32,14.32-15,36.48,1.33,52.15,23.4,22.48,46,45.83,68.9,68.8,7.14,7.16,14.17,14.44,21.51,21.38,7.53,7.12,16.64,9.57,26.89,8.23,10.5-1.38,18.83-6.59,26.17-14q91-91.23,182-182.4c1.49-1.5,3-3,4.35-4.64A41.72,41.72,0,0,0,368.19,140.85Z"/><path d="M217.82,384c-.68-.45-1.34-1-2.06-1.35-8.28-4.46-10.33-14.39-3.8-21.15,12.66-13.11,25.58-26,38.6-38.73,5.67-5.55,14.05-5,19.28,1.06,4.83,5.56,9.38,11.35,14.7,17.84,7.28-5.08,14.94-9.73,21.8-15.35,26.71-21.87,43.09-50,49-84a145.29,145.29,0,0,0,1.68-19c.34-8.33,4-13.55,11.16-15.14,6.35-1.4,12,2.09,15.43,9.48a6,6,0,0,0,.38.64V232.5c-.59,4.16-1.12,8.32-1.79,12.46-5.13,31.55-18.06,59.46-39.26,83.36-24.6,27.73-55.06,45.48-91.47,52.67-6.19,1.23-12.46,2-18.68,3Z"/><path d="M166.92,0a18.28,18.28,0,0,0,1.75,1.16c8.67,4.5,10.53,14.43,3.91,21.66-3.45,3.77-7.18,7.29-10.8,10.91q-13,13-25.93,26c-7.42,7.38-15.48,7-22.17-.93-2.17-2.58-4.26-5.22-6.39-7.83l-7-8.46c-6.23,4.17-12.77,8-18.7,12.6q-45,35.07-53,91.78c-.74,5.3-.67,10.71-1,16.06a13.84,13.84,0,0,1-12.51,13.2C9,176.72,2.46,172.32,1.21,166a47.06,47.06,0,0,1-.3-11.93A164.63,164.63,0,0,1,123.45,5.28c8.51-2.19,17.36-3.07,26-4.58A23.71,23.71,0,0,0,152,0Z"/><path class="cls-1" d="M232.8,384c6.22-1,12.49-1.78,18.68-3,36.41-7.19,66.87-24.94,91.47-52.67,21.2-23.9,34.13-51.81,39.26-83.36.67-4.14,1.2-8.3,1.79-12.46V384Z"/><path d="M368.19,140.85A41.72,41.72,0,0,1,358,166.71c-1.37,1.62-2.86,3.14-4.35,4.64q-91,91.2-182,182.4c-7.34,7.37-15.67,12.58-26.17,14-10.25,1.34-19.36-1.11-26.89-8.23-7.34-6.94-14.37-14.22-21.51-21.38-22.93-23-45.5-46.32-68.9-68.8-16.32-15.67-13.65-37.83-1.33-52.15,1.3-1.51,2.71-3,4.11-4.36q91-91.21,182-182.43c7.44-7.46,15.85-12.78,26.49-14.12,10-1.25,19,1,26.27,7.92,11.62,11.14,22.86,22.68,34.24,34.07,19.15,19.16,38.22,38.4,57.46,57.47A34.64,34.64,0,0,1,368.19,140.85ZM143.79,340.64c5.44-.94,9.07-3.53,12.44-6.91q88.76-89,177.56-177.94c.61-.62,1.24-1.23,1.83-1.87,4.5-4.91,5.55-11.25,2.71-16.19-4.21-7.31-10.92-11.2-17.47-9.38-2.86.79-5.54,2.73-7.91,4.64-6.37,5.14-13.54,5.35-18.87,0q-21.48-21.42-42.87-42.95c-4.17-4.2-5.1-9.45-2.49-14.78a29.24,29.24,0,0,1,3.89-5.44c3.87-4.66,5.32-11,2.42-15.27-3.72-5.45-7.85-11-15.68-10.34C235,44.6,231.77,47,228.78,50q-89,89.26-178.08,178.47a33.08,33.08,0,0,0-2.57,2.73c-4.53,5.65-4.51,12.76.37,17.67Q92,292.57,135.63,336.07C137.76,338.18,141.05,339.14,143.79,340.64Z"/><path class="cls-1" d="M143.79,340.64c-2.74-1.5-6-2.46-8.16-4.57Q91.91,292.63,48.5,248.89c-4.88-4.91-4.9-12-.37-17.67a33.08,33.08,0,0,1,2.57-2.73q89-89.22,178.08-178.47c3-3,6.24-5.42,10.57-5.76,7.83-.61,12,4.89,15.68,10.34,2.9,4.25,1.45,10.61-2.42,15.27a29.24,29.24,0,0,0-3.89,5.44c-2.61,5.33-1.68,10.58,2.49,14.78Q272.6,111.6,294.08,133c5.33,5.3,12.5,5.09,18.87,0,2.37-1.91,5.05-3.85,7.91-4.64,6.55-1.82,13.26,2.07,17.47,9.38,2.84,4.94,1.79,11.28-2.71,16.19-.59.64-1.22,1.25-1.83,1.87q-88.78,89-177.56,177.94C152.86,337.11,149.23,339.7,143.79,340.64Z"/></g></g></svg>