<svg xmlns="http://www.w3.org/2000/svg" viewBox="0 0 25.6 31.99"><defs><style>.cls-1{fill:#2e318f;}</style></defs><g id="Capa_2" data-name="Capa 2"><g id="Layer_1" data-name="Layer 1"><path class="cls-1" d="M13.22,32s5.61,0,6.36-.09,1-.37,1.11-.66a1.7,1.7,0,0,0-.36-1.32c-.35-.4-1.19-1.22-1.19-1.22a12.35,12.35,0,0,0,2.67-1.81,12.5,12.5,0,0,0,3-4.35,13.93,13.93,0,0,0,.65-6.74,13.47,13.47,0,0,0-2.63-5.64A19.72,19.72,0,0,0,18.3,6.74L15.85,5.37S14.7,4.49,14.59,4a1.1,1.1,0,0,1,.11-1s.17-.25.07-.4a.78.78,0,0,0,.28-.22,1.94,1.94,0,0,0,.15-.61,2,2,0,0,0,0-.72A1.37,1.37,0,0,0,14.49.3,4.66,4.66,0,0,0,13.22,0h-.84a4.58,4.58,0,0,0-1.27.3,1.41,1.41,0,0,0-.67.73,1.88,1.88,0,0,0,0,.72,1.86,1.86,0,0,0,.14.61.78.78,0,0,0,.29.22c-.1.15.07.4.07.4A1.13,1.13,0,0,1,11,4c-.11.51-1.26,1.39-1.26,1.39L7.29,6.74a19.75,19.75,0,0,0-4.48,3.42A13.35,13.35,0,0,0,.18,15.8a13.8,13.8,0,0,0,.64,6.74,12.77,12.77,0,0,0,3,4.35A12.61,12.61,0,0,0,6.45,28.7s-.83.82-1.19,1.22a1.69,1.69,0,0,0-.35,1.32c.06.29.35.58,1.1.66s6.37.09,6.37.09"/></g></g></svg>